<?xml version="1.0" standalone="no"?>
<!DOCTYPE svg PUBLIC "-//W3C//DTD SVG 1.1//EN" "http://www.w3.org/Graphics/SVG/1.1/DTD/svg11.dtd" >
<svg xmlns="http://www.w3.org/2000/svg">
<metadata></metadata>
<defs>
<font id="catullregular" horiz-adv-x="555" >
<font-face units-per-em="2048" ascent="1638" descent="-410" />
<missing-glyph horiz-adv-x="500" />
<glyph horiz-adv-x="2048" />
<glyph horiz-adv-x="2048" />
<glyph horiz-adv-x="682" />
<glyph d="M-55 1278q70 -35 123 -55.5t93 -30.5t70.5 -12t53.5 -2q45 0 88 8t79.5 20.5t65.5 24.5t47 20l22.5 13.5l22.5 13.5q-6 -8 -12 -16.5t-14 -16.5q-76 -88 -162 -129t-146 -41q-27 0 -65.5 10.5t-83.5 34t-92 62.5t-90 96z" />
<glyph d="M145 1225q27 23 44.5 36t30.5 25t28.5 26.5t40.5 37.5q18 -25 31.5 -41.5t26.5 -31.5t27.5 -30.5t35.5 -38.5q-25 -23 -40.5 -38t-30.5 -28.5t-32.5 -27t-44.5 -33.5q-20 20 -34.5 36t-27 31t-24.5 32.5t-31 44.5z" />
<glyph d="M123 1184q0 59 42 107t114 48q37 0 65.5 -14t48 -36.5t28.5 -50.5t9 -52q0 -59 -43 -105.5t-113 -46.5q-66 0 -108.5 46t-42.5 104zM172 1188q0 -41 29.5 -74t74.5 -33t75 32t30 75q0 39 -27.5 71.5t-74.5 32.5t-77 -32.5t-30 -71.5z" />
<glyph unicode="&#xa;" d="M-125 1075l129 103l367 100l-131 -104zM184 1075l127 103l369 100l-131 -104z" />
<glyph d="M115 -178q0 59 46 95t105 54q2 2 16.5 6.5t30 8.5t28.5 7t15 3l52 -10q-61 -35 -108.5 -72t-47.5 -92q0 -35 22.5 -48.5t49.5 -13.5q23 0 55.5 7.5t60.5 13.5l-49 -70q-23 -6 -46 -11t-60 -5q-51 0 -88 14q-41 16 -61.5 47t-20.5 66z" />
<glyph d="M-35 1217l105 45l202 -95l318 113l-182 -135l-162 -60z" />
<glyph unicode="&#xd;" />
<glyph horiz-adv-x="256" d="M-391 -25q10 14 17 26.5t16 25.5q59 92 115.5 185t113.5 185q74 119 165 260.5t185 282.5t185.5 274.5t164.5 235.5l113 20q-31 -39 -58.5 -76.5t-58 -80.5t-65.5 -92.5t-76 -110.5q-57 -86 -112.5 -170t-110.5 -170q-61 -94 -123 -188.5t-121 -190.5q-59 -92 -96 -149.5 t-61.5 -96.5t-44 -70.5t-46.5 -74.5z" />
<glyph horiz-adv-x="1110" d="M59 858l115 70q2 35 8 93t35 130q51 121 139 188.5t179 90.5q25 6 44 9t46.5 5t68.5 2h105l-160 -88q-37 6 -72 6q-51 0 -82.5 -17.5t-51 -42t-29 -51t-13.5 -47.5q-4 -23 -7 -40t-5 -45.5t-4 -74t-4 -118.5h620q-12 -16 -18 -27.5t-9 -22t-5.5 -22.5t-2.5 -33l-8 -594 v-20t-1 -31.5t-1 -32v-20.5q0 -43 16.5 -54.5t65.5 -15.5l105 -10l-80 -45h-346q18 20 29.5 33.5t16.5 26t7 28.5t2 41v729h-391l-6 -356v-377q0 -33 6 -44t26 -15q8 -2 31 -5.5t47.5 -6.5t48 -5t35.5 -2l-84 -47h-358q8 10 19 24.5t20 24.5q12 16 14 33.5t4 58.5v717h-115z M731 1212q23 20 46.5 41t47.5 43l52 50l45 -54q4 -4 8 -9t8 -9l57 -62q-16 -18 -29.5 -31.5t-28.5 -27.5t-35.5 -32.5t-51.5 -43.5q-25 23 -40 39.5t-28.5 31.5t-25 29.5t-25.5 34.5z" />
<glyph horiz-adv-x="1110" d="M59 858l115 70q0 25 4 67.5t18.5 96t44 109.5t83.5 110q51 49 103 76.5t107.5 41t114 15.5t121.5 2h293q-31 -18 -49.5 -31.5t-28.5 -34t-14 -54.5t-4 -93q-2 -37 -2 -74t-2 -74l-7 -460q-4 -123 -4 -243v-241q0 -55 20.5 -69.5t63.5 -18.5q27 -2 52.5 -4t52.5 -6 l-78 -43h-363q29 39 42.5 58.5t13.5 47.5l2 336q2 141 3 290t5 308q0 18 2 64.5t4 99.5t4 100.5t2 67.5h-114q-76 0 -129.5 -10t-87 -41t-50 -91.5t-22.5 -162.5v-27.5t-1 -41t-2 -42t-1 -28.5h299l-115 -70h-184l-6 -356v-377q0 -39 10 -50.5t67 -17.5q29 -4 57.5 -5 t59.5 -5l-84 -47h-358q8 10 19 24.5t20 24.5q12 16 14 33.5t4 58.5v717h-115z" />
<glyph horiz-adv-x="1110" d="M16 377l31 119l166 147q2 80 3 139.5t2 108.5t3 91t4 85q2 66 5 133.5t6 132.5v18.5t2 18.5h-199l139 76h352l-45 -45q-18 -16 -26 -28.5t-13 -33.5q-2 -10 -5 -64t-5 -118.5t-3 -121t-1 -72.5l-2 -127l371 319l-31 -121l-340 -299v-65q0 -45 -1 -100.5t-1 -113 t-1 -112.5t-1 -100v-48.5t2 -33.5q2 -10 5 -28.5t16 -33.5q12 -14 41.5 -21t64.5 -10t68.5 -4.5t54.5 -1.5q51 0 101 2.5t100 6.5q45 4 75.5 9t54 13t42 17.5t39.5 19.5l108 37l-188 -168h-873q23 23 37 39t23.5 33.5t12.5 39t3 54.5v381z" />
<glyph horiz-adv-x="512" d="M8 334l19 125l131 155q4 190 7 379t13 379h-158l154 74h293q-31 -18 -48.5 -31.5t-28.5 -34t-15 -54.5t-6 -93q-4 -96 -7.5 -189.5t-3.5 -189.5l152 174l-18 -127l-134 -158v-591q0 -37 5.5 -56.5t23.5 -29.5q6 -2 11 -4.5t19.5 -3.5t43 -4t82.5 -9l-76 -45h-363 q18 23 28.5 37t16 24.5t7.5 20.5t2 27v395z" />
<glyph horiz-adv-x="1409" d="M14 -12q57 63 114.5 127.5t129.5 148.5t163 194.5t218 268.5l242 303q68 86 135 174t131 174l-694 -12l-193 -139l-125 -51l273 274l75 27q-6 -20 11 -29q6 -4 14 -4h14l918 14q-59 -86 -123 -173t-137 -185q-31 -41 -80 -104.5t-106.5 -136.5t-118 -149.5t-113.5 -144 t-96 -121t-64 -77.5q-10 -14 -45 -57.5t-75 -91.5t-74.5 -91t-45.5 -57l578 8q104 4 202.5 10t203.5 29q59 12 89.5 23.5t59.5 25.5l-74 -68l-291 -129l-81 -2l47 41zM553 1686l104 47l203 -95l318 113l-183 -137l-161 -60z" />
<glyph horiz-adv-x="854" d="M-12 -10q37 49 59.5 78.5t39.5 53t34.5 46t42.5 57.5l215 312q49 70 84 121t61.5 88.5t46 67.5t37.5 58l-340 -8l-121 -88l-96 -31l193 193l67 14q0 -18 11 -20q6 -4 32 -4l508 12q-16 -23 -29.5 -43t-26.5 -40.5t-28.5 -43t-36.5 -53.5l-55 -80q-33 -51 -55.5 -86 t-48 -74t-60.5 -91t-92 -136q-31 -45 -52.5 -78t-40 -59.5t-35.5 -51t-38 -51.5l301 8q70 2 115 6.5t75.5 11.5t55.5 16t55 26l-28 -47l-127 -101l-78 -24l53 57zM211 1217l105 45l202 -95l318 113l-182 -135l-162 -60z" />
<glyph unicode=" " />
<glyph unicode="!" horiz-adv-x="598" d="M174 121l115 100l39 37l39 -51l86 -92q-20 -23 -36 -38.5t-32 -30.5t-36.5 -31.5t-49.5 -39.5q-20 20 -33.5 35l-27 30t-28.5 33.5t-36 47.5zM236 457v151.5t2 124t3 125t5 154.5q0 25 2 62.5t4 82.5t4 94t6 97l207 110q0 -37 -1 -67.5t-3 -65.5t-5 -81t-7 -109l-19 -347 q-2 -51 -4 -87.5t-3 -67.5t-2 -60.5t-1 -64.5l-74 -19z" />
<glyph unicode="&#x22;" horiz-adv-x="811" d="M123 1440q0 53 32.5 73.5t61.5 20.5q18 0 35 -6q39 -16 45 -42t6 -52l-72 -523h-41l-65 496q0 10 -1 17.5t-1 15.5zM508 1440q0 53 32.5 73.5t61.5 20.5q18 0 35 -6q39 -16 45 -42t6 -52l-72 -523h-41l-65 496q0 10 -1 17.5t-1 15.5z" />
<glyph unicode="#" horiz-adv-x="1193" d="M2 528v113h356l29 199h-342v116h358l66 490h123l-68 -490h205l66 490h123l-66 -490h342v-116h-358l-27 -199h344v-113h-358l-70 -528h-125l74 528h-207l-78 -528h-117l72 528h-342zM481 641h207l27 199h-207z" />
<glyph unicode="$" horiz-adv-x="1110" d="M47 82l137 158l58 14q-27 -49 -32 -62.5t-5 -21.5t19.5 -29.5t60.5 -44t103.5 -40t148.5 -17.5q-2 154 1 309.5t7 310.5q-51 20 -114.5 53t-120 81.5t-94.5 116t-38 157.5q0 55 20.5 121.5t66.5 128t122 106.5t186 58l2 47l72 100l-4 -145q100 -4 188 -27 q68 -18 108 -38.5t75 -41.5l-140 -151l-53 -11q12 25 20.5 38.5t12.5 21.5t5 13t1 9q0 8 -14.5 27.5t-42 40t-68.5 36t-94 15.5q-6 -84 -6 -164l-8 -190q0 -20 -1 -48t-2 -55.5t-2 -54t-1 -45.5l120 -63q57 -31 107.5 -64t97.5 -92q39 -47 61.5 -103.5t22.5 -127.5 q0 -76 -29.5 -151t-93.5 -140q-41 -41 -83 -65.5t-82 -40t-74.5 -22.5t-59.5 -12v-49l-63 -147l-8 188q-100 -2 -228.5 22.5t-261.5 90.5zM340 1165q0 -37 11 -71.5t30 -65.5q39 -59 85 -88t85 -47q2 49 4 117.5t5 140.5t6 140.5t5 119.5q-68 -10 -112.5 -39t-70.5 -64.5 t-37 -73.5t-11 -69zM607 158.5q-1 -62.5 1 -115.5q10 4 21.5 6t23.5 6q55 18 93 47t63 64t36 72.5t11 74.5q0 53 -27.5 117t-95.5 117q-8 6 -14 10t-17.5 12.5t-32 21.5t-55.5 36q-2 -20 -3 -34.5t-1 -30v-35v-50.5l-2 -203q0 -53 -1 -115.5z" />
<glyph unicode="%" horiz-adv-x="1622" d="M45 950q0 111 25.5 205t69.5 162.5t104.5 106.5t132.5 38q113 0 186.5 -100t73.5 -309q0 -170 -47 -289q-18 -47 -44 -89t-59.5 -75t-74.5 -52.5t-90 -19.5q-72 0 -123.5 35t-86 93.5t-51 134t-16.5 159.5zM160 1085q0 -84 13 -169t39 -153.5t64.5 -111.5t92.5 -43 q20 0 46.5 11.5t51.5 43t41 90t16 152.5q0 31 -3 68t-7 73.5t-10 72.5t-15 63q-8 33 -22 69.5t-35.5 65.5t-49.5 48t-60 19q-51 0 -85 -31.5t-51 -78.5q-14 -41 -20 -91t-6 -98zM291 -23q10 12 17 24.5t16 25.5q59 92 115.5 185t115.5 185q70 113 159 252t184 282.5 t187.5 279t167.5 241.5l115 18q-31 -39 -59.5 -76.5t-59 -79.5t-64.5 -92.5t-75 -111.5q-57 -86 -113.5 -169t-111.5 -169q-61 -96 -122 -190.5t-122 -190.5q-59 -92 -95 -148.5t-60.5 -96.5t-45 -71.5t-47.5 -74.5zM985 410q0 111 25.5 205t69.5 161.5t104.5 105.5 t132.5 38q111 0 184.5 -99.5t73.5 -308.5q0 -172 -47 -291q-18 -47 -44 -89t-59.5 -74.5t-74.5 -52t-90 -19.5q-72 0 -123.5 34.5t-85 93t-50 135.5t-16.5 161zM1100 543q0 -84 13 -169t39 -153.5t64.5 -111.5t90.5 -43q20 0 46.5 11t51.5 43t41 90t16 152q0 31 -2 68t-7 74 t-11 72.5t-12 62.5q-10 33 -24.5 69.5t-35 65.5t-48.5 48.5t-60 19.5q-51 0 -85 -32t-51 -79q-14 -41 -20 -91t-6 -97z" />
<glyph unicode="&#x26;" horiz-adv-x="1579" d="M63 406q0 111 47.5 184.5t115 121.5t143 75.5t133.5 43.5q-18 39 -44 104.5t-26 151.5q0 94 38 165t96.5 117t131 69.5t142.5 23.5q63 0 119.5 -18.5t98.5 -53t65.5 -82.5t23.5 -108q0 -59 -25.5 -119.5t-85.5 -113.5q-68 -59 -148.5 -89t-144.5 -47q29 -43 78 -117.5 t133 -178.5q51 -63 106.5 -122t115.5 -116q43 53 67.5 109.5t24.5 123.5q0 53 -15.5 85t-38 50.5t-46 26.5t-42.5 13l80 49h428l-184 -70h-98q2 -23 4 -41t2 -39q0 -20 -4 -55t-17.5 -81t-39 -101.5t-70.5 -116.5q14 -16 37.5 -38t63.5 -54.5t99.5 -74.5t145.5 -97 q-23 -10 -44.5 -16.5t-58.5 -6.5q-106 0 -203.5 43t-183.5 109q-111 -70 -232.5 -111t-250.5 -41q-109 0 -206 32t-170.5 90t-117 140t-43.5 181zM270 473q0 -68 30 -135.5t86 -122.5t139 -89t192 -34t178.5 26.5t118.5 51.5q-94 90 -165 168t-127 150.5t-102.5 142 t-91.5 141.5q-47 -14 -93 -36.5t-83 -57.5t-59.5 -85t-22.5 -120zM614 1192q0 -47 10.5 -91t26 -83t33 -71.5t29.5 -55.5q14 4 27.5 10t27.5 12q90 41 141.5 116t51.5 163q0 92 -51.5 146.5t-129.5 54.5t-122 -54.5t-44 -146.5z" />
<glyph unicode="'" horiz-adv-x="425" d="M123 1440q0 53 32.5 73.5t61.5 20.5q18 0 35 -6q39 -16 45 -42t6 -52l-72 -523h-41l-65 496q0 10 -1 17.5t-1 15.5z" />
<glyph unicode="(" horiz-adv-x="641" d="M139 723q0 53 8.5 111.5t26.5 121.5q31 111 86 199t141 168q72 70 124.5 99.5t99.5 52.5q-20 -23 -49 -58t-62 -84t-65.5 -113.5t-59.5 -146.5q-35 -102 -46 -190t-11 -160q0 -127 25.5 -237.5t64.5 -199.5t81 -157t77 -109q10 -14 21.5 -27.5t23.5 -25.5q-37 16 -78 41 q-61 35 -132 97.5t-132.5 151.5t-102.5 206t-41 260z" />
<glyph unicode=")" horiz-adv-x="641" d="M16 -33q35 39 72 86t84 131q137 250 137 535q0 127 -25.5 237.5t-64.5 199.5t-82 156.5t-76 108.5q-10 14 -21.5 27t-23.5 27q37 -16 78 -41q59 -35 131 -97.5t133.5 -151.5t102.5 -206t41 -260q0 -47 -7.5 -106.5t-27.5 -127.5q-31 -111 -86 -198.5t-141 -169.5 q-72 -68 -124.5 -97.5t-99.5 -52.5z" />
<glyph unicode="*" horiz-adv-x="894" d="M47 1221l119 -43l135 -41q33 -10 46 -14.5t44 -12.5v248l84 121v-373q6 2 27.5 9t49.5 16.5t59.5 18.5t59 18.5t45 14.5t19.5 5l133 -45l-268 -80q-35 -12 -49 -16.5t-39 -12.5q35 -53 72 -106.5t75 -106.5l-6 -145l-147 213q-12 18 -19.5 28.5t-13.5 19.5t-12 18.5 t-15 25.5q-8 -12 -29.5 -43t-46 -66.5t-47 -67.5t-30.5 -44l-133 -35q10 14 18 26.5t17.5 24.5t21.5 28.5t29 39.5l61 86q20 29 33.5 47t32.5 47q-27 8 -52.5 16.5t-54.5 18.5q-31 8 -50 14t-32.5 11.5t-26 8.5t-28.5 9z" />
<glyph unicode="+" horiz-adv-x="1024" d="M61 537v122h390v383h122v-383h388v-122h-388v-390h-122v390h-390z" />
<glyph unicode="," horiz-adv-x="512" d="M18 -358l56 79q16 29 34.5 56.5t36.5 56.5q23 33 44.5 70t21.5 69q0 18 -6 30.5t-15 23.5q-16 20 -38.5 46.5t-38.5 47.5q27 23 45 38t33.5 29.5t33 29.5t41.5 38l80 -92q12 -12 21.5 -25.5t9.5 -36.5q0 -16 -5 -32.5t-12 -30.5q-20 -47 -60 -105.5t-79 -110.5t-69 -88 l-29 -36z" />
<glyph unicode="-" horiz-adv-x="811" d="M51 492l154 86h555l-154 -86h-555z" />
<glyph unicode="." horiz-adv-x="512" d="M115 117l90 80l61 61l45 -57l82 -84q-20 -23 -35.5 -39.5t-32 -31.5t-37 -31.5t-46.5 -39.5q-20 18 -32.5 31.5t-25 28t-29 33t-40.5 49.5z" />
<glyph unicode="/" horiz-adv-x="854" d="M6 -25q162 352 331 713t361 723l146 68q-8 -16 -16.5 -31.5t-16.5 -32.5q-49 -96 -81 -154.5t-57.5 -108.5t-52 -104.5t-69.5 -140.5l-105 -213l-153 -332q-25 -53 -48.5 -104t-44 -94t-35.5 -77t-24 -50z" />
<glyph unicode="0" horiz-adv-x="1067" d="M66 651q0 174 39.5 324.5t109.5 260.5t166 172t211 62q88 0 163.5 -40.5t129 -121.5t84 -204t30.5 -287q0 -172 -36.5 -342t-137.5 -307q-49 -68 -97 -106.5t-91 -57t-78 -24t-59 -5.5q-115 0 -197 57.5t-135 153t-77.5 217t-24.5 248.5zM225 868q0 -41 3 -95 t10.5 -115.5t18.5 -125t28 -120.5q12 -39 34.5 -96.5t58.5 -109.5t85 -90t115 -38q12 0 36.5 4t54 19.5t60.5 47t56.5 86t42 137t16.5 201.5q0 49 -4 110.5t-11.5 123t-17.5 120t-23 103.5q-16 59 -41.5 119.5t-60.5 110t-81 80t-103 30.5q-14 0 -30.5 -2t-37.5 -8 q-41 -14 -69.5 -38t-48 -49.5t-31 -51t-17.5 -41.5q-20 -59 -31.5 -139t-11.5 -173z" />
<glyph unicode="1" horiz-adv-x="1067" d="M172 1135l6 16q109 68 176.5 110t121.5 76.5t107.5 71.5t133.5 92l-19 -61q-6 -23 -9 -36t-4 -25.5t-2 -27t-1 -34.5l-29 -1161q0 -59 18.5 -74.5t71.5 -22.5l105 -8l-84 -51h-363q31 37 41.5 56.5t10.5 62.5l16 938q2 18 2 36.5v39.5q0 29 1 46t2 29.5t2 23.5t1 28 l-139 -91z" />
<glyph unicode="2" horiz-adv-x="1067" d="M57 1157q53 53 97.5 94t85.5 76t86 65.5t100 61.5q23 4 59.5 10t83.5 6q88 0 153.5 -25.5t107.5 -69.5t62.5 -102.5t20.5 -121.5q0 -96 -37.5 -193.5t-114.5 -212t-197 -255t-281 -318.5q92 -14 194.5 -20.5t179.5 -6.5q37 0 81 1t89 6.5t86 14.5t70 26l-16 -52 l-162 -186l-68 -12l45 67q-109 -10 -203 -13t-135 -3q-16 0 -58 1t-96 3t-115.5 7t-113.5 13q63 63 122 134t116 143q70 86 142.5 182t133 194.5t99.5 196t39 187.5q0 53 -15.5 103t-46 90t-76 63.5t-106.5 23.5q-51 0 -91 -14t-71 -34.5t-54.5 -43t-37.5 -41.5z" />
<glyph unicode="3" horiz-adv-x="1067" d="M33 1159q57 59 106 103.5t93 80t84 63.5t81 52q35 4 62.5 8t72.5 4q70 0 125 -14q51 -14 87 -40.5t56.5 -58.5t30 -64.5t9.5 -61.5q0 -53 -21.5 -101.5t-56.5 -89.5q-45 -51 -92 -83.5t-70 -47.5q35 -14 76 -33.5t82 -58.5q47 -47 74.5 -109.5t27.5 -132.5 q0 -63 -22.5 -129.5t-63.5 -126.5q-25 -35 -67.5 -77.5t-104 -87.5t-143.5 -89.5t-187 -80.5l-178 -13q20 8 45 18.5t49.5 20.5t44 18.5t31.5 14.5q57 29 135 79t144 124q51 59 79.5 124.5t28.5 143.5q0 70 -26.5 123t-71.5 89t-105.5 54.5t-130.5 20.5l52 71q57 2 110 27 t92 62.5t62.5 87t23.5 98.5t-20.5 84t-51 57.5t-68.5 32.5t-73 10q-6 0 -31.5 -2t-61.5 -13t-77 -37t-77 -73z" />
<glyph unicode="4" horiz-adv-x="1067" d="M12 436q8 14 28.5 50t44.5 77t44.5 78t28.5 53q45 80 110.5 187.5t132 214t125 198.5t88.5 140l183 36q-4 -29 -5 -52t-3.5 -56t-4.5 -84t-4 -135l-12 -563h139h25.5t41 1t41 1h27.5l-198 -152q-29 4 -43.5 4h-36.5v-276q0 -29 2 -47.5t9 -28.5t21.5 -15.5t39.5 -7.5 l98 -8l-66 -51h-321q14 27 22.5 42t12.5 27.5t5 27t1 38.5l4 303q-70 2 -140.5 2h-140.5q-96 0 -177 -1t-122 -3zM186 586h203q51 0 102.5 -1t100.5 -1l24 731q-51 -76 -109 -170t-114.5 -192.5t-110 -194.5t-96.5 -172z" />
<glyph unicode="5" horiz-adv-x="1067" d="M39 -29q59 23 108.5 42.5t92.5 39t84 42t84 50.5q74 49 119.5 98.5t72.5 96.5t37 93t10 89q0 84 -27.5 139.5t-60.5 90.5q-23 25 -55.5 46t-82.5 39.5t-124 32t-180 19.5l49 80q10 18 17 29.5t13.5 23.5t11.5 26.5t15 38.5l101 265l180 104q43 -4 78.5 -5t64.5 -3 q31 -2 55.5 -2h42.5q80 0 160 5t156 32l-27 -60l-184 -157l-70 -9l33 46q-35 -4 -87 -9.5t-138 -5.5q-53 0 -104.5 2t-104.5 6l-96 -249q31 -4 79 -12.5t103 -24t111.5 -41t105.5 -62.5q80 -63 119 -146t39 -173q0 -86 -34 -162t-87 -141q-55 -63 -121 -111.5t-134.5 -83.5 t-134 -60.5t-120.5 -45.5z" />
<glyph unicode="6" horiz-adv-x="1067" d="M72 440q0 131 62.5 281.5t184.5 304.5q70 88 145 159.5t146.5 131t137 105.5t116.5 81l-51 -108q-47 -33 -102.5 -76t-114.5 -98.5t-117.5 -127t-109.5 -159.5q-55 -98 -81 -189.5t-26 -195.5q0 -111 27.5 -199t75 -148.5t107.5 -93t126 -32.5q45 0 91 16.5t83 52 t59.5 89t22.5 126.5q0 68 -23.5 145t-70.5 141.5t-119 106.5t-170 42q-23 0 -41 -2t-39 -7l58 54l196 71q10 0 22.5 -2t24.5 -6q63 -14 120.5 -44t101.5 -76t70 -109.5t26 -145.5q0 -94 -36 -192t-102.5 -178t-163 -131.5t-219.5 -51.5q-111 0 -189.5 43t-129.5 111 t-74.5 149.5t-23.5 161.5z" />
<glyph unicode="7" horiz-adv-x="1067" d="M49 1206l260 258l80 19q2 -10 5 -17.5t14 -11.5q8 -4 34.5 -5t57 -2t59.5 -1h41q111 0 233.5 1t233.5 3q-106 -178 -191 -342t-157 -322q-23 -47 -52.5 -115.5t-61.5 -141t-61.5 -143.5t-51.5 -124q-18 -47 -37 -93t-39 -93l-10 -25q-43 -20 -72 -33.5t-55.5 -28 t-57.5 -31.5t-80 -46q16 37 28.5 65.5t29 60.5t39 76t59.5 111q41 82 83 163t85 161q102 193 212.5 379t229.5 370q-82 -4 -162.5 -7t-160.5 -3q-43 0 -87 1t-87 1q-41 0 -84 2t-78 4l-88 -61z" />
<glyph unicode="8" horiz-adv-x="1067" d="M74 360q0 68 24.5 134.5t73.5 123.5q47 53 102.5 88.5t92.5 53.5q-29 23 -66 53.5t-68.5 72.5t-53 94t-21.5 120q0 47 16 101t57 104q53 68 122 103.5t118 57.5q29 2 47.5 3t40.5 1q98 0 169 -27.5t117 -71.5t68.5 -99t22.5 -111q0 -100 -66 -194q-43 -61 -94 -97 t-86 -55q37 -20 80 -46t84 -62q59 -57 95 -132t36 -161t-38 -165t-103.5 -139.5t-151.5 -97.5t-184 -37q-92 0 -172 29t-138.5 81t-91 121.5t-32.5 153.5zM229 451q0 -59 22.5 -127t66.5 -125.5t111 -94t153 -36.5q55 0 104 17t86 50t57.5 79t20.5 101q0 68 -27.5 120 t-67.5 91t-83 67t-72 44q-10 4 -33.5 16.5t-51.5 25.5t-53.5 25.5t-35.5 18.5q-31 -14 -66.5 -33.5t-70.5 -62.5t-47.5 -88t-12.5 -88zM293 1192q0 -49 19.5 -93t53 -81t80 -70t97.5 -61l84 -43q20 12 44.5 28.5t49.5 49.5q27 33 42 76.5t15 95.5q0 53 -19.5 105t-55 94 t-88 67.5t-117.5 25.5q-55 0 -94 -17t-64 -46t-36 -63.5t-11 -67.5z" />
<glyph unicode="9" horiz-adv-x="1067" d="M57 918q0 80 30 172t83 167q68 94 173.5 153.5t236.5 59.5q111 0 189.5 -43t129.5 -109.5t74.5 -149.5t23.5 -162q0 -131 -62.5 -282t-184.5 -304q-70 -88 -145 -160t-146.5 -130t-137 -104t-116.5 -81l49 106q84 59 156.5 118.5t152.5 152.5q92 104 141.5 196t72 168 t26.5 130t4 83q0 111 -27.5 198t-75 147.5t-108.5 93t-127 32.5q-45 0 -91 -16.5t-83 -51t-59.5 -88t-22.5 -127.5q0 -72 24.5 -149.5t72.5 -141t120 -104.5t164 -41q23 0 41 2t43 6l-57 -53l-197 -71l-28 4q-27 4 -68 18t-88 40t-88 68t-68 104t-27 149z" />
<glyph unicode=":" horiz-adv-x="598" d="M199 119l151 141l47 -57l31 -35l49 -49q-20 -25 -36.5 -42.5t-34 -32.5t-36 -30.5t-44.5 -36.5q-47 45 -72 73t-55 69zM205 801l153 141l43 -53l39 -43l45 -45q-27 -29 -47 -48.5t-36.5 -35t-33 -28.5t-36.5 -27q-18 16 -31.5 29.5t-27 27.5t-30 33.5t-38.5 48.5z" />
<glyph unicode=";" horiz-adv-x="598" d="M104 -358l54 79q18 29 36.5 56.5t36.5 56.5q23 33 44.5 70t21.5 69q0 18 -7 30.5t-16 23.5q-16 20 -38.5 46.5t-38.5 47.5q27 23 45 39t34.5 29.5t33 28.5t40.5 38l82 -92q10 -12 20.5 -25.5t10.5 -36.5q0 -16 -6 -32.5t-13 -30.5q-20 -47 -60 -105.5t-79 -110.5t-67 -88 l-29 -36zM205 801l49 47l59 51l45 43l80 -96l47 -45q-27 -29 -47 -48.5t-36.5 -35t-34 -28.5t-37.5 -27q-18 16 -30.5 29.5t-26 27.5t-30 33.5t-38.5 48.5z" />
<glyph unicode="&#x3c;" horiz-adv-x="1024" d="M0 653v144l1024 510v-131l-889 -451l889 -455v-131z" />
<glyph unicode="=" horiz-adv-x="1024" d="M0 354v121h1024v-121h-1024zM0 715v121h1024v-121h-1024z" />
<glyph unicode="&#x3e;" horiz-adv-x="1024" d="M0 139v131l889 455l-889 451v131l1024 -510v-144z" />
<glyph unicode="?" horiz-adv-x="937" d="M33 1102q4 43 16 90t62 106q53 61 158.5 113.5t262.5 52.5q86 0 160 -18.5t128 -55t86 -92t32 -127.5q0 -51 -13.5 -91t-37 -74.5t-55 -65.5t-66.5 -61l-64 -50q-35 -31 -55 -57.5t-33.5 -60t-19.5 -80.5t-12 -117l-82 -16l-60 -15l-80 -22q6 90 23.5 152.5t46.5 109.5 t67 84t85 76q31 31 57.5 60.5t47 63t32.5 75.5t12 96q0 61 -16 96q-4 8 -16.5 28.5t-37 42t-61.5 38t-88 16.5q-102 0 -170 -66q-55 -51 -71.5 -103t-22.5 -89zM324 117l104 94l49 47l43 -53l82 -88q-18 -23 -32.5 -37t-30 -27.5t-36 -32t-52.5 -45.5l-28.5 28.5t-27 28 t-31 35t-40.5 50.5z" />
<glyph unicode="@" horiz-adv-x="1835" d="M141 492q0 186 67.5 360t187.5 309t283 216t353 81q158 0 281 -55t207 -149.5t128 -216.5t44 -253q0 -121 -36 -236.5t-96.5 -205.5t-140.5 -145.5t-168 -55.5q-12 0 -43.5 6.5t-64.5 38.5q-35 35 -39 76t-4 82q-31 -49 -63.5 -90t-98.5 -76q-63 -33 -127 -33 q-39 0 -85 16.5t-86 57.5t-66.5 108.5t-26.5 170.5q0 117 39 221t102.5 183t143 125t161.5 46q31 0 61.5 -7t59.5 -24q53 -29 72.5 -65.5t34.5 -73.5l26 115h121l-59 -277q-18 -78 -35 -155.5t-31 -155.5q-4 -20 -9 -52t-5 -61q0 -55 24.5 -70.5t40.5 -15.5q43 0 96.5 42 t101.5 117t81 176.5t33 219.5q0 131 -45 240t-123 187.5t-181.5 121.5t-220.5 43q-147 0 -280 -59t-230 -168q-55 -61 -100 -138t-77 -165t-49 -181.5t-17 -185.5q0 -117 37.5 -233.5t119.5 -209.5t213 -151.5t320 -58.5q90 0 200.5 21.5t227.5 80.5q84 45 135 89t102 94 l50 -60q-35 -35 -93.5 -87t-147.5 -101t-210 -84t-281 -35q-203 0 -356.5 59.5t-254.5 161t-152.5 237.5t-51.5 288zM694 444q0 -41 7.5 -79.5t31.5 -71.5q33 -41 68 -48t47 -7q57 0 103 31.5t83 84t62.5 115.5t43 126.5t26 119t8.5 92.5q0 57 -16.5 94t-41 59.5t-51.5 31.5 t-47 9q-53 0 -93 -24.5t-75 -69.5q-29 -35 -56.5 -87t-49 -113.5t-36 -129t-14.5 -133.5z" />
<glyph unicode="A" horiz-adv-x="1536" d="M29 61q39 51 74.5 99.5t72.5 108t80 139t98 194.5l76 160q33 63 51.5 102t34.5 74t33.5 76t48.5 110q14 31 23.5 52.5t16.5 39t13 34t13 38.5q-14 33 -41 52.5t-61 28.5t-72 10h-24q-25 0 -50 -1l131 54l287 20q8 -18 31.5 -69.5t50 -107.5t50 -106.5t29.5 -64.5 q16 -37 36 -83t41.5 -95t41 -95.5t35.5 -82.5l80 -183q63 -137 110 -227t88 -151.5t84 -103.5t101 -83q-39 -10 -70 -15t-65 -5q-41 0 -79 11t-85 40q-41 27 -73 60.5t-56.5 72.5t-45 81t-40.5 89l-121 282q-29 -8 -50.5 -14t-39 -12t-34.5 -13.5t-38 -15.5h-326 q-35 0 -49 -6t-30 -25l-179 -329l-9 -22.5t-5 -24.5q0 -27 29 -39q41 -25 105.5 -39.5t113.5 -22.5l-172 -53q-18 -1 -35 -1q-89 1 -136 19q-56 22 -93 43zM459 637l381 -2q49 4 73.5 5t53.5 3q-18 49 -54 132t-74 168t-73 156.5t-49 102.5q-39 -90 -65.5 -152.5 t-55.5 -125.5q-27 -55 -54.5 -110.5t-54.5 -111.5q-8 -16 -15 -32.5t-13 -32.5z" />
<glyph unicode="B" horiz-adv-x="1236" d="M6 1376l141 72h453q72 0 149.5 -13.5t141.5 -64.5q43 -35 70.5 -90t27.5 -115q0 -63 -25.5 -112t-63.5 -86t-83 -66t-82 -49q33 -4 74 -11t85 -22.5t88 -43t83 -70.5q53 -59 75.5 -126t22.5 -133q0 -104 -49 -195t-125 -151q-53 -41 -108.5 -62.5t-109.5 -31.5 t-106.5 -12t-99.5 -2q-49 0 -98 1t-96 3l-256 8q27 29 42 50.5t22 40t10.5 35.5t3.5 42v190.5t1 231.5t2 227.5t3 179.5q2 84 5 166t3 168l2 41h-203zM408 354q0 -37 2 -74.5t5 -71.5t9 -54q16 -51 67.5 -80t141.5 -29q141 0 226 86t85 236q0 76 -23.5 142t-70.5 115.5 t-115.5 77t-161.5 27.5q-59 0 -97 -8t-68 -19v-284v-64zM408 764q35 8 81 22.5t111 49.5q20 12 51 31.5t58.5 51t47 76.5t19.5 107q0 31 -11 76t-41 89t-83 78.5t-137 43.5q-23 2 -40.5 2h-39.5q-2 -10 -2 -19.5t-2 -19.5q-2 -35 -4 -80t-3 -91t-2 -91.5t-1 -81.5z" />
<glyph unicode="C" horiz-adv-x="1366" d="M96 709q0 141 54.5 279t156 246.5t246.5 175.5t330 67q135 0 264 -37q123 -35 188.5 -79t100.5 -73l-154 -149l-65 -6l55 77q-25 27 -59.5 62t-83 65.5t-113 52t-146.5 21.5q-98 0 -197.5 -40t-179 -118.5t-129 -193.5t-49.5 -264q0 -123 41 -254t128 -238.5 t221.5 -177.5t320.5 -70q111 0 187.5 22.5t142.5 49.5l-99 -82q-27 -10 -53 -19.5t-55 -17.5q-53 -16 -120.5 -27.5t-154.5 -11.5q-215 0 -363.5 72t-240.5 181.5t-133 239.5t-41 247z" />
<glyph unicode="D" horiz-adv-x="1579" d="M47 1370l115 76h409q84 0 180.5 -4t193.5 -24.5t189.5 -62.5t170.5 -116q80 -76 138 -201t58 -295q0 -94 -21.5 -184t-62.5 -172t-101.5 -151.5t-139.5 -120.5q-74 -47 -153 -76t-162 -43t-169 -18.5t-174 -4.5q-141 0 -223 8.5t-133 16.5l31 59q12 23 16 38.5t4 47.5 v342.5v235.5t1 173t3 155q2 84 3 135t2 85t1 56.5v50.5zM425 372q1 -58 5 -118q2 -35 10.5 -75t42.5 -70q29 -23 89.5 -42.5t158.5 -19.5q131 0 233.5 44t173 121t107.5 182.5t37 228.5q0 92 -17.5 186t-52.5 178q-16 41 -40.5 85t-60.5 85t-84 79t-112 69q-49 23 -102 37 t-101 22t-90 11t-71 3q-41 0 -67.5 -2t-43.5 -6l-10 -403l-4 -478q-1 -39 -1 -78v-39z" />
<glyph unicode="E" horiz-adv-x="1067" d="M14 1374l148 72h852l-131 -121l-54 -14q8 10 18.5 26.5t10.5 20.5q0 10 -18 12q-14 2 -43 3t-64 1h-72.5h-70.5h-146l-20 -573h473l-119 -113l-55 -16q16 29 20.5 35t4.5 10q0 10 -7.5 12t-15.5 2h-240q-31 0 -47 -10t-14 -49v-467q0 -37 2 -61.5t16 -39.5q12 -14 42 -22 t65 -11t67.5 -4t53.5 -1q47 0 95 2t95 10q72 10 109 24.5t71 30.5l111 37l-186 -170h-830q25 29 40 48.5t22.5 37.5t9.5 41t2 55q0 299 5 596t19 596h-219z" />
<glyph unicode="F" horiz-adv-x="980" d="M25 1368l135 78h860l-131 -123l-55 -16l15 25t7 9q2 4 4 6.5t2 6.5q0 8 -12 10t-25 2h-16h-23.5t-42 1t-71.5 1h-228l-10 -303q0 -12 -1 -45t-2 -70t-2 -70.5t-1 -48.5v-32h473l-119 -111l-53 -14q16 23 19.5 30t3.5 13q0 10 -9.5 12t-23.5 2h-230q-39 0 -51 -13t-12 -54 v-465q0 -47 2 -73t10 -39t26.5 -17t51.5 -7l146 -8l-101 -55h-420q18 23 31.5 39t23 33.5t13.5 37t6 46.5v50t-1 77t-1 76.5v52.5q0 479 18 956h-206z" />
<glyph unicode="G" horiz-adv-x="1622" d="M78 711q0 150 56 288t161.5 244.5t259.5 170t350 63.5q84 0 163 -11.5t151 -31.5q117 -33 176 -69t94 -58l-170 -162l-72 -17l51 82q-27 25 -64.5 59t-89.5 63.5t-123 50t-161 20.5q-121 0 -225.5 -44t-180 -124t-118.5 -190.5t-43 -245.5q0 -145 50 -279.5t144.5 -239 t228.5 -167t302 -62.5q98 0 155.5 16.5t104.5 34.5v330l-309 -16l164 88h434l-54 -51q-10 -10 -13 -15.5t-7 -17.5q-2 -14 -3 -48t-1 -50v-250l-293 -68q-90 -14 -171 -24.5t-167 -10.5q-141 0 -253.5 33t-200 87t-148.5 128t-101 157t-58.5 169t-18.5 168z" />
<glyph unicode="H" horiz-adv-x="1792" d="M25 1372l153 76h359l-62 -47q-14 -10 -18 -18.5t-8 -24.5q-2 -10 -3.5 -51t-3.5 -97.5t-4 -122t-4 -126t-4 -108.5t-2 -71h848q29 0 45 2t47 9l2 219q2 88 4 141t3 90t2 66.5t3 68.5l-198 -6l151 76h342l-67 -53q-4 -4 -7.5 -8.5t-5.5 -14.5q-2 -4 -5 -87t-7 -220 t-7 -317.5t-3 -378.5v-53v-68t1 -65.5t3 -49.5q2 -49 27.5 -60.5t85.5 -13.5l145 -4l-119 -55h-442q33 33 51.5 57.5t27.5 56t11 81t2 129.5v430q-27 -6 -45 -11.5t-35.5 -11.5t-35 -13t-44.5 -20h-628q-29 0 -63 -2t-56 -14q-12 -8 -19.5 -16.5t-10.5 -24.5t-3 -45v-74 v-143q0 -84 1 -141.5t5 -108.5q2 -41 16.5 -52t51.5 -16l157 -6l-112 -55h-416q33 35 52.5 62.5t25.5 74.5q2 14 4 54t3 85.5t1 87.5v62v59t-1 92.5t-1 93.5v62q0 162 6 322q4 72 5 142.5t3 141.5v18.5t2 18.5z" />
<glyph unicode="I" horiz-adv-x="641" d="M27 1374l135 72h370l-51 -43q-8 -8 -14 -14.5t-10 -16.5q-4 -4 -4 -13t-2 -44q-2 -41 -4.5 -92.5t-4.5 -105.5t-3 -106.5t-3 -92.5l-8 -304q-2 -68 -3 -134t-1 -134v-131q0 -47 2 -75.5t9 -44t23.5 -21.5t45.5 -8l151 -17l-88 -49h-432q27 33 41 52.5t22.5 34.5 t10.5 30.5t4 38.5q0 180 1 353t3 329.5t6 292t10 243.5h-206z" />
<glyph unicode="J" horiz-adv-x="598" d="M-74 1364l131 82h471l-51 -43q-18 -18 -23 -30.5t-10 -55.5q0 -25 -2 -88.5t-5 -135t-5 -136t-2 -91.5l-16 -684q-4 -70 -10.5 -143.5t-33 -151t-78.5 -161.5t-145 -172l-135 -80q29 47 55.5 94t47.5 96q27 61 42 117.5t24 121t13.5 144.5t10.5 191l12 462q0 80 1 161 t3 163q4 78 6 153.5t4 151.5v43z" />
<glyph unicode="K" horiz-adv-x="1366" d="M25 1370l135 78h362l-43 -37q-29 -20 -35 -31.5t-8 -29.5q0 -8 -1 -31t-2 -47.5t-2 -47t-1 -30.5q-2 -47 -2 -91v-91l-4 -285l137 135q102 106 168 178t113 126.5t84 102.5t82 107h-205l123 72h288l-51 -41q-12 -10 -18 -16.5t-25 -28.5q-111 -123 -220 -244t-224 -241 q31 -31 71.5 -79t77.5 -92t62.5 -77t27.5 -35q8 -10 31 -40t48.5 -63.5t48 -63.5t32.5 -42l66 -80q49 -57 87 -100t72.5 -80t70.5 -68.5t81 -68.5q-29 -6 -54.5 -10.5t-51.5 -4.5q-86 0 -163 41t-153 112t-150.5 165t-156.5 203l-102 133q-20 31 -48 59q-6 6 -16 15.5 t-25 9.5q-12 0 -20 -7.5t-16 -13.5l-72 -76v-284v-51t1 -67t3 -65.5t4 -46.5q4 -12 12.5 -21t53.5 -13l166 -9l-103 -57h-420l54 66q14 16 17 26t5 33v55t-1 87t-2 88t-1 59q-1 81 -1 161q0 161 3 321l8 480z" />
<glyph unicode="L" horiz-adv-x="1110" d="M37 1370l139 76h354l-45 -45q-27 -25 -34 -40t-9 -54q0 -16 -1 -35t-3 -53.5t-4 -95t-4 -160.5v-293q0 -23 -1 -86.5t-2 -134t-2 -130t-1 -71.5q0 -31 1 -50.5t3 -35.5q0 -12 3 -30.5t15 -31.5q12 -14 42 -21t65 -10t68.5 -4.5t54.5 -1.5q51 0 101 2.5t102 6.5 q43 4 73.5 9t54 13t42 17.5t38.5 19.5l111 37l-190 -168h-873q35 35 53.5 60.5t22.5 66.5v385v88t2 132t4 162t6 173q2 66 5 133.5t5 132.5v18.5t3 18.5h-199z" />
<glyph unicode="M" horiz-adv-x="2134" d="M49 1374l133 72h293q72 -137 133.5 -259t112.5 -229q59 -131 119 -256q31 -68 62.5 -134t62.5 -134q6 -14 23.5 -53t38 -83t37.5 -83t26 -55q59 131 107 235.5t88 189.5t75 159.5t70.5 147.5t74.5 150.5t86 171.5l29 66q6 12 12 27.5t6 29.5q0 29 -25.5 36t-58.5 7 q-27 0 -64.5 -2t-66.5 -2l154 72h377q-10 -8 -30.5 -23.5t-31.5 -25.5q-10 -8 -12 -16.5t-2 -30.5v-27.5t2 -46.5t6 -95.5t12 -174.5l29 -355q12 -115 19.5 -182.5t11.5 -109.5t8 -66.5t8 -50.5q10 -68 39 -130.5t103 -95.5q6 -4 12 -5t12 -5q-10 -2 -21.5 -4t-21.5 -4 q-25 -4 -48.5 -7t-47.5 -3q-31 0 -61.5 6t-59.5 22q-35 18 -57.5 44t-34.5 53.5t-18.5 55.5t-8.5 50q-10 59 -17 119.5t-13 120.5q-18 188 -33 375.5t-25 375.5l-129 -258q-25 -53 -44 -92t-37.5 -78t-40 -82t-50.5 -104l-242 -535l13 -34l-203 -52l-315 685q-33 68 -65 135 t-66 133q-8 14 -28 54t-43.5 85t-44 86l-28.5 57l-57 -659q-4 -43 -6 -71.5t-4 -52t-4.5 -47.5t-4.5 -58q-2 -25 -4 -64t-2 -72q0 -43 6.5 -66.5t17.5 -35.5t28.5 -16t39.5 -7l115 -12l-90 -51h-305q29 35 45 59.5t27.5 56t18.5 80t15 130.5l47 469q4 59 10.5 119.5 t10.5 119.5q0 12 4 54t7 89.5t6 86.5t3 43q0 39 -11 49t-27 14q-6 2 -12.5 3t-25 1h-53h-96.5z" />
<glyph unicode="N" horiz-adv-x="1835" d="M-16 1372l143 76h256l78 -74l78 -74q41 -43 118.5 -121.5t173 -179t201 -214t204.5 -221t183 -203t135 -158.5l11 495q2 145 2 259t-2 237q0 10 -1 36.5t-2 56.5t-2 56.5t-1 38.5l-234 -8l121 74h270q-16 -10 -23 -14t-18 -19q-6 -10 -11 -19.5t-8 -24.5t-4 -39.5 t-1 -63.5q-2 -47 -2 -96.5t-2 -98.5v-981l32 -41q-55 -23 -95 -40t-103 -44q-133 152 -231.5 263.5t-135.5 152.5q-20 20 -65 69.5t-105.5 116t-133.5 143t-145.5 153.5t-143 149.5t-126.5 128.5q-27 27 -43 42t-26.5 25.5l-16.5 16.5l-14 14v-500q0 -147 2 -290.5t6 -290.5 q2 -33 6 -52.5t23.5 -30.5t61.5 -16.5t120 -9.5l-78 -51h-309l47 47q16 16 22.5 28.5t10.5 47.5q0 8 1 48t2 88t2 93t1 68v295v138.5t-2 135.5q-2 104 -3 167t-1 110q0 72 -23.5 93t-83.5 21q-29 0 -58.5 -2t-57.5 -6z" />
<glyph unicode="O" horiz-adv-x="1792" d="M78 709q0 137 53 274t159.5 246.5t265.5 178.5t368 69q178 0 323.5 -56.5t248.5 -155t160.5 -229t57.5 -280.5q0 -154 -58.5 -296.5t-167 -251t-264 -174t-347.5 -65.5q-186 0 -335 61.5t-251.5 164t-157.5 235.5t-55 279zM295 795q0 -141 47 -276.5t132 -240t204 -169 t262 -64.5q82 0 179.5 32t179 104.5t137 193.5t55.5 299q0 57 -7 118.5t-24 122.5q-25 84 -76 171.5t-127.5 159t-176 116.5t-222.5 45q-113 0 -215 -41t-179 -120t-123 -192.5t-46 -258.5z" />
<glyph unicode="P" horiz-adv-x="1067" d="M14 1364l156 82h442q78 0 155 -10.5t151 -57.5q139 -92 139 -250q0 -86 -37 -150.5t-91.5 -110.5t-114.5 -76.5t-105 -51.5l-220 -39q53 18 102.5 38t96.5 55q57 41 100 109.5t43 166.5q0 51 -16 106.5t-56 101.5t-105.5 75.5t-164.5 29.5h-20t-25 -2l-12 -348 q-2 -84 -3 -202.5t-2 -239.5t-1 -229.5v-172.5q0 -39 2 -62.5t11.5 -36.5t28.5 -18t56 -8l152 -8l-107 -55h-432l51 66q14 20 19.5 33.5t5.5 47.5v60.5t-1 94.5t-1 95v64v116.5t1 147.5t3 161t4 158q2 76 4 151t4 151v28z" />
<glyph unicode="Q" horiz-adv-x="1835" d="M78 709q0 156 60.5 296t172 245.5t269 167t350.5 61.5q186 0 331.5 -61.5t246 -163t153.5 -233.5t53 -271q0 -150 -55 -281q-35 -88 -81 -153.5t-92 -111.5t-88 -76t-67 -46h103q25 -2 45 -6t41.5 -13.5t47 -27t60.5 -47.5q53 -47 102.5 -97.5t100.5 -101.5 q35 -35 75 -67.5t81 -53.5q10 -4 19 -7t19 -7h-237q-39 0 -66.5 8t-60.5 33.5t-79 73t-120 122.5l-59 62q-27 23 -68 52.5t-94 29.5h-6q-55 -20 -139 -42t-211 -24q-188 0 -338 61.5t-254.5 165t-159.5 236.5t-55 277zM299 793q0 -141 47 -275.5t132 -240t204 -170 t264 -64.5q125 0 227.5 51t174 138t110.5 201t39 239q0 143 -49 276t-135 235.5t-203 164t-250 61.5q-109 0 -214 -42t-181 -120q-72 -74 -119 -188.5t-47 -265.5z" />
<glyph unicode="R" horiz-adv-x="1366" d="M10 1370l150 76h411q61 0 123 -7t115 -32q100 -39 167.5 -126t67.5 -206q0 -76 -26.5 -133t-62 -98t-73.5 -66.5t-59 -38.5q20 -23 38 -42t33 -39.5t33.5 -46t43.5 -60.5q29 -43 59.5 -86t63.5 -84l63 -86q41 -55 74 -96t66.5 -77t71.5 -67.5t87 -66.5q-27 -4 -49.5 -8.5 t-46.5 -4.5q-66 0 -138.5 26t-129.5 67q-33 25 -64 56.5t-64.5 74.5t-72.5 97t-86 124l-98 135q-18 27 -31.5 43t-26 25.5t-26 12.5t-33.5 3q-10 0 -17.5 -1t-33.5 -5q-27 -4 -52.5 -5t-56.5 -1v-131v-82t1 -68t2 -80t3 -119q0 -23 2 -37t10.5 -24t26 -15t47.5 -8 q41 -4 79 -5t77 -3l-117 -55h-426q20 20 34.5 37.5t24 36t13.5 42t4 58.5q0 221 1 439t9 440q0 16 2 64t4 102.5t3 98.5t1 52h-221zM430 686q47 0 107.5 5t128.5 40q59 31 93 71t50 79t19 73.5t3 55.5q0 78 -25.5 144.5t-66.5 115.5q-37 41 -74.5 63.5t-76.5 32.5t-75 12 t-69 2q-4 -53 -5 -110.5t-3 -114.5q-2 -53 -3 -106.5t-3 -106.5v-256z" />
<glyph unicode="S" horiz-adv-x="1150" d="M51 72l160 180l55 12l-35 -69q-6 -10 -6 -17q0 -8 11 -22q12 -14 45.5 -34t79 -38t97.5 -30.5t103 -12.5q68 0 124 21.5t98 58.5t65.5 86t23.5 106q0 33 -8 61.5t-18 51.5q-37 80 -102.5 124t-135.5 79l-141 67q-66 33 -130.5 73t-107.5 108q-29 45 -41 93t-12 89 q0 61 26.5 135t85 136.5t148.5 104.5t219 42q78 0 177.5 -19.5t203.5 -79.5l-155 -166l-54 -12l33 62q10 25 10 28q0 10 -16 30.5t-47 40t-76 35t-102 15.5t-107.5 -18.5t-88.5 -52t-59.5 -80t-21.5 -101.5q0 -66 27 -114t66.5 -82.5t88 -60t89.5 -46.5l178 -86 q37 -20 82 -49t84 -71t65.5 -100t26.5 -140q0 -92 -39 -172t-110.5 -140.5t-172 -94.5t-223.5 -34q-121 0 -236.5 28t-226.5 75z" />
<glyph unicode="T" horiz-adv-x="1193" d="M-63 1237l83 209h1219l-109 -189l-49 -20q16 45 17 78q0 43 -28 50t-58 7h-320q0 -25 -2 -91.5t-5 -140t-5 -141t-2 -96.5l-2 -459q2 -133 2 -198.5t2 -104.5q0 -23 4 -36t15.5 -21t34 -12t61.5 -9l120 -12l-100 -51h-422l37 51q12 23 21.5 45.5t9.5 81.5v226.5t1 185.5 t2 167t3 171t5 196.5t9 245.5h-327q-23 0 -43.5 -3t-38.5 -13q-8 -6 -14.5 -11.5t-13.5 -14.5t-17.5 -23.5t-26.5 -38.5z" />
<glyph unicode="U" horiz-adv-x="1536" d="M-29 1368l154 78h371l-54 -45q-23 -18 -24 -39q-4 -12 -7 -65.5t-6.5 -115t-6.5 -118.5t-3 -78l-6 -205q-2 -82 -2 -147.5t4 -118.5t12.5 -99t22.5 -87q49 -137 155.5 -208t256.5 -71q55 0 107 11.5t99 37.5q109 59 166 174q41 80 52.5 182.5t17.5 237.5l6 266q0 52 1 96 q0 22 0.5 44.5t-0.5 45.5q-1 46 -3 99t-4 125h-233l157 78h254l-55 -47q-12 -12 -16.5 -23.5t-8.5 -52.5q0 -25 -1 -48.5t-1 -47.5l-20 -596q-4 -59 -9.5 -122t-19.5 -126.5t-40.5 -124.5t-74.5 -115q-82 -94 -200.5 -134t-243.5 -40q-96 0 -162.5 14.5t-107.5 30.5 q-121 47 -186.5 121t-95.5 153t-35 152.5t-5 120.5q0 82 2 180.5t6 237.5l4 125q0 45 1 76.5t1 59.5v57.5v70.5h-219z" />
<glyph unicode="V" horiz-adv-x="1409" d="M-133 1366l145 80h369l-51 -43q-18 -18 -26.5 -28.5t-8.5 -28.5q0 -10 3 -21.5t7 -21.5q8 -27 16.5 -50.5t20.5 -60.5t32.5 -95.5t53.5 -154.5l172 -465q37 -98 77 -198.5t77 -184.5l96 213q72 166 119 276.5t81.5 197.5t64.5 165t65 178q18 55 31.5 95.5t21.5 69t13 49 t9 36.5l-243 -8l147 80h322q-16 -12 -37 -28.5t-37 -28.5q-18 -14 -29.5 -25.5t-21.5 -32t-23.5 -53.5t-34.5 -88q-2 -4 -20 -51t-48 -121t-68 -166t-75.5 -184.5t-72.5 -175t-62 -140.5q-33 -74 -66.5 -146.5t-62.5 -146.5q-4 -10 -8 -19t-8 -20q-47 -8 -78 -13t-55.5 -10 t-46 -12.5t-52.5 -15.5q-102 260 -200.5 516t-188.5 521q-29 86 -56.5 168.5l-55.5 166.5l-13 33z" />
<glyph unicode="W" horiz-adv-x="2217" d="M-154 1366l127 82h367l-43 -51q-16 -16 -22.5 -27.5t-6.5 -28.5q0 -23 10.5 -66.5t28.5 -115.5q10 -41 20.5 -83t20.5 -83l107 -411q16 -66 34.5 -131.5t34.5 -131.5q12 -47 21.5 -77.5t15.5 -54t12.5 -43t14.5 -46.5q23 57 41 106.5t37.5 103.5t45 122t60.5 164l90 254 q41 121 67.5 204t45 141t30 99t21.5 80h-188l133 76h389l-47 -57q-10 -12 -19.5 -25.5t-9.5 -34.5q0 -12 2 -18q2 -10 3 -19.5t6 -27t13.5 -48t22.5 -81.5q4 -16 7 -28.5t9.5 -36t16.5 -61.5t29 -106l98 -352q16 -59 34.5 -117.5t35.5 -118.5q12 -43 21 -72.5t16.5 -53 t14.5 -45t17 -48.5q33 84 55.5 140.5t41 105.5t39 102.5t49.5 131.5l127 340q20 59 38.5 117.5t38.5 117.5q14 45 23.5 74.5t16.5 52.5t13.5 44.5t12.5 47.5h-240l133 76h314l-47 -43q-25 -20 -38.5 -31.5t-21.5 -24t-15 -28.5t-18 -43l-55 -160q-25 -70 -47 -132 t-43.5 -121.5t-45.5 -122t-50 -132.5l-117 -307q-23 -57 -37 -96t-26.5 -71t-25.5 -59.5t-30 -60.5q-41 -6 -67.5 -10t-49 -9t-47 -11t-57.5 -17q-25 72 -49.5 145.5t-46.5 145.5q-18 59 -45 152.5t-54.5 189.5t-51 182t-36.5 134q-8 29 -20 76.5t-25.5 97t-24.5 90.5 t-16 57q-23 -59 -48 -133t-52 -150.5t-52.5 -151.5t-45.5 -132q-31 -86 -62.5 -168t-62.5 -168q-25 -70 -40 -115t-28.5 -78.5t-26 -62.5t-30.5 -64q-43 -6 -71.5 -10t-53.5 -9t-48.5 -12.5t-55.5 -15.5q-27 86 -52.5 172t-50.5 174q-8 29 -22.5 84.5t-33 125t-39 147.5 t-38.5 149.5t-33.5 132t-23.5 97.5q-4 16 -15.5 61t-24 96.5t-23.5 98.5t-15 65z" />
<glyph unicode="X" horiz-adv-x="1449" d="M-51 1360l135 88h408q-16 -16 -32 -35.5t-16 -44.5t11.5 -46.5t23.5 -37.5l283 -393l90 123q70 96 112 154.5t67.5 95t40.5 61.5t34 55l-254 -8l123 76h336q-43 -43 -71 -69.5t-52.5 -55.5t-55 -66.5t-81.5 -103.5l-242 -326l264 -352q68 -88 123 -157.5t107.5 -128 t106.5 -108.5t120 -97q-23 -8 -43.5 -13.5t-54.5 -5.5q-82 0 -151 30t-127 77t-107.5 105.5t-94.5 113.5l-45 59q-31 43 -55.5 78t-49 68.5t-52 72.5t-64.5 95l-301 -385q-29 -37 -53.5 -71t-40.5 -63q-14 -23 -15 -39q0 -16 9.5 -25t21.5 -13.5t26.5 -5.5t24.5 -1 q41 -2 79 -3t77 -5l-90 -53h-438q33 18 56.5 31.5t47.5 34.5q33 27 83 83t105.5 122.5t108.5 134t94 120.5l154 205l-203 268q-35 49 -71.5 98.5t-73.5 96.5q-29 39 -48.5 64.5t-35 45t-27.5 35t-26 33.5z" />
<glyph unicode="Y" horiz-adv-x="1280" d="M-145 1368l143 80h354l-11 -11l-15.5 -15.5l-15.5 -15.5t-7 -9q-6 -6 -6 -19q0 -12 7 -26.5t11 -24.5q14 -25 39 -64.5t80 -127.5l88 -134q6 -10 23.5 -35.5t38 -54t39 -55.5t26.5 -37q2 -4 11.5 -17.5t19.5 -28.5t18.5 -27.5t10.5 -14.5l135 193q35 55 70.5 109 t70.5 110q33 49 53.5 81.5t36 57.5t26.5 44.5t23 41.5h-250l140 80h327l-77 -57q-16 -14 -27.5 -23.5t-21 -21t-19.5 -24.5t-25 -34l-409 -622v-519q0 -35 7 -48t30 -19q29 -10 83 -16.5t117 -12.5l-92 -51h-418l46 70q12 23 14 34t4 37v453l-184 289q-45 66 -88 130 t-88 130q-8 12 -31 44t-48.5 67.5t-49 68.5t-31.5 45h-178z" />
<glyph unicode="Z" horiz-adv-x="1409" d="M14 -12q57 63 114.5 127.5t129.5 148.5t163 194.5t218 268.5l242 303q68 86 135 174t131 174l-694 -12l-193 -139l-125 -51l273 274l75 27q-6 -20 11 -29q6 -4 14 -4h14l918 14q-59 -86 -123 -173t-137 -185q-31 -41 -80 -104.5t-106.5 -136.5t-118 -149.5t-113.5 -144 t-96 -121t-64 -77.5q-10 -14 -45 -57.5t-75 -91.5t-74.5 -91t-45.5 -57l578 8q104 4 202.5 10t203.5 29q59 12 89.5 23.5t59.5 25.5l-74 -68l-291 -129l-81 -2l47 41z" />
<glyph unicode="[" horiz-adv-x="641" d="M188 154q0 2 1 43t2.5 102t2.5 132t2 132.5t2 105.5t1 52q2 43 5 129t7 190.5t8 213t8 192.5h412l-107 -62h-73q-23 0 -41.5 -9t-28.5 -40q-6 -20 -10 -74.5t-7 -117t-4 -120.5t-1 -85l-9 -385q-4 -72 -5 -135.5t-1 -126.5q0 -55 1 -87t2 -50.5t3 -26.5t7 -14 q16 -37 47.5 -45.5t83.5 -10.5q33 -2 61.5 -3t56.5 -1l-110 -53h-311q-2 27 -3.5 61.5t-1.5 92.5z" />
<glyph unicode="\" horiz-adv-x="854" d="M8 1479l148 -68q193 -362 361.5 -722.5t328.5 -713.5l-135 62q-8 16 -23.5 50t-35 77t-43 94t-48.5 104q-39 84 -77 166t-78 166l-105 213q-31 63 -61.5 126t-63.5 124q-8 18 -31.5 63.5t-50 96.5t-51.5 97t-35 65z" />
<glyph unicode="]" horiz-adv-x="641" d="M0 0l106 61h72q23 0 42.5 9.5t29.5 40.5q6 20 10 74.5t7 117t4 119.5t1 86l9 385q4 74 5 137.5t1 126.5q0 55 -1 87t-2 50.5t-3 26.5t-5 14q-12 39 -47.5 45t-91.5 9q-29 2 -56.5 3t-55.5 1l110 53h311q2 -27 3.5 -61.5t1.5 -90.5q0 -2 -1 -43l-2.5 -102.5t-2.5 -132 t-2 -133t-2 -106.5t-1 -50q0 -43 -3 -129t-7 -189.5t-8 -212t-8 -196.5h-414z" />
<glyph unicode="^" horiz-adv-x="1492" d="M319 717l369 729h129l357 -729h-156l-268 559l-275 -559h-156z" />
<glyph unicode="_" horiz-adv-x="1024" d="M-20 -154h1064v-102h-1064v102z" />
<glyph unicode="`" d="M-14 1278l440 -100l143 -103l-444 99z" />
<glyph unicode="a" horiz-adv-x="894" d="M29 188q0 88 53 156t128 116t153.5 78.5t130.5 49.5l-31 90q-27 72 -52.5 111.5t-59.5 59t-81 22.5q-28 2 -64 2q-24 0 -52 -1l149 64q68 0 133.5 -5t114.5 -38q27 -18 46 -44t34.5 -61.5t31 -85t33.5 -114.5l41 -146q25 -84 46.5 -152.5t47.5 -131.5q29 -76 52.5 -110 t48.5 -64q-16 -2 -30.5 -4.5t-29.5 -2.5q-35 0 -65.5 10.5t-61.5 26.5q-51 29 -75.5 65t-38.5 64l-96 -94q-29 -16 -91.5 -45t-160.5 -29q-63 0 -111.5 17.5t-80.5 47.5t-47 67.5t-15 80.5zM227 258q0 -45 18.5 -76.5t47.5 -52t63.5 -30t67.5 -9.5q80 0 126 31t66 51 q-10 31 -17 50.5t-13 41t-13.5 48t-19.5 69.5l-18 70q-10 41 -18.5 57t-29.5 16q-16 0 -58 -18.5t-87 -52t-80 -82.5t-35 -113z" />
<glyph unicode="b" horiz-adv-x="1110" d="M29 1376l149 70h277q-27 -16 -42.5 -27.5t-23.5 -26t-11 -34t-5 -49.5l-17 -424l136 49q18 0 36.5 1t38.5 1q123 0 212 -37t147.5 -97.5t87 -139t28.5 -162.5q0 -76 -21.5 -147.5t-66.5 -133t-111.5 -110t-156.5 -78.5q-59 -20 -103 -24.5t-91 -6.5h-396q23 23 35 38 t18.5 28.5t7.5 31t1 43.5v95q0 100 1 165.5t1 121t1 113.5t3 144q4 139 7 293t7 303h-149zM352 268q0 -74 1 -102.5t3 -40.5q0 -16 3 -28.5t14.5 -21.5t35 -14.5t64.5 -5.5q84 0 139 15q74 20 120 60t72.5 90t36 103.5t9.5 102.5q0 43 -10.5 101.5t-38 119t-79.5 114.5 t-134 85q-68 27 -124 30q-34 2 -66 2q-21 0 -42 -1l-2 -187v-100t-1 -111.5t-1 -112v-98.5z" />
<glyph unicode="c" horiz-adv-x="811" d="M66 451q0 82 29.5 171t98 162.5t180 121.5t273.5 48q74 0 122 -8t89 -18l-162 -164l-86 -31l74 98q-20 12 -61 29t-107 17q-47 0 -95 -17.5t-88 -56.5t-65.5 -99.5t-25.5 -148.5q0 -78 23.5 -162t71.5 -152.5t124 -112.5t180 -44q86 0 145.5 24.5t110.5 53.5l-109 -113 q-16 -8 -32.5 -16t-32.5 -15q-33 -14 -90.5 -29.5t-128.5 -15.5q-123 0 -207 48.5t-135 120t-73.5 154.5t-22.5 155z" />
<glyph unicode="d" horiz-adv-x="1110" d="M66 434q0 104 35.5 184t92 138.5t126 95.5t137.5 55q78 20 155.5 23.5t153.5 3.5q6 124 8 240q1 58 1 108t-1 92h-162l158 72h279q-31 -20 -48.5 -33.5t-25.5 -35t-10 -58.5t-2 -102l-9 -545q-4 -170 -6 -276.5t-2 -188.5q0 -61 1 -76.5t3 -24.5q4 -25 20.5 -34t65.5 -11 q23 -2 46.5 -3t45.5 -5l-92 -53h-450q-51 0 -109.5 4t-117 20.5t-114 51.5t-98.5 96q-35 47 -58 111.5t-23 150.5zM256 512q0 -72 21.5 -151.5t67.5 -146.5t119 -111t175 -44q39 0 62.5 6.5t35 16.5t14.5 22.5t5 22.5q2 12 3 53t2 90t1 93.5v62.5v444q-27 2 -51.5 3t-51.5 1 t-59.5 -2t-69 -11t-74.5 -25.5t-75 -44.5q-80 -63 -102.5 -138t-22.5 -141z" />
<glyph unicode="e" horiz-adv-x="894" d="M66 481q0 119 44 208t111.5 147.5t150.5 88t163 29.5q55 0 109 -14t101 -43q39 -25 64 -53.5t41 -56t24.5 -51t14.5 -42.5l-481 -194l-158 -13q18 -98 59 -173.5t97.5 -129t124 -81t141.5 -27.5q78 0 137 22.5t113 48.5l-109 -102q-16 -10 -33.5 -19.5t-34.5 -17.5 q-51 -23 -101 -31t-97 -8q-25 0 -55.5 2t-66.5 9.5t-74 23.5t-77 45q-55 39 -94 89t-64.5 107.5t-37.5 118t-12 117.5zM242 602q0 -27 2 -53.5t4 -54.5l373 161q29 10 44 21.5t15 34.5q0 31 -16.5 62.5t-44 56t-64.5 41t-78 16.5q-31 0 -71.5 -13.5t-76.5 -46t-61.5 -88 t-25.5 -137.5z" />
<glyph unicode="f" horiz-adv-x="598" d="M59 858l115 70q2 35 8 93t35 130q51 121 139 188.5t179 90.5q25 6 44 9t46.5 5t68.5 2h105l-160 -88q-37 6 -70 6q-51 0 -83.5 -17.5t-52 -42t-29 -51t-13.5 -47.5q-4 -23 -7 -40t-5 -45.5t-4 -74t-4 -118.5h299l-115 -70h-184l-6 -356v-377q0 -39 10 -50.5t67 -17.5 q29 -4 58.5 -5t58.5 -5l-84 -47h-358q8 10 19 24.5t20 24.5q12 16 14 33.5t4 58.5v717h-115z" />
<glyph unicode="g" horiz-adv-x="980" d="M-49 -340q0 55 33.5 126t124.5 124q47 29 101 46t107.5 27.5t100.5 14.5t82 6q-23 29 -42.5 60.5t-19.5 78.5q0 27 6.5 44.5t14.5 35.5q-16 -2 -32.5 -3t-33.5 -1q-82 0 -145.5 27.5t-106.5 73t-65.5 103.5t-22.5 118q0 72 33 144.5t98 129.5q88 72 185.5 92.5 t181.5 20.5h422l-131 -74h-127q18 -14 42.5 -37.5t47 -57.5t39 -79t16.5 -102t-14.5 -100.5t-39 -77t-55 -61.5t-63.5 -52q-20 -20 -38.5 -43t-18.5 -58t18.5 -54t34.5 -34l74 -57q33 -29 64.5 -57.5t55 -61.5t38 -74t14.5 -94q0 -72 -35 -141.5t-102.5 -123.5t-169 -88 t-232.5 -34q-111 0 -193.5 24.5t-138 65.5t-82 93.5t-26.5 109.5zM131 -297q0 -111 97.5 -180.5t263.5 -69.5q147 0 224 62.5t77 158.5q0 39 -13.5 71t-40 62.5t-69.5 63.5t-101 74q-12 2 -21 2h-26q-6 0 -28.5 -1t-53 -4t-65.5 -10.5t-68 -17.5q-16 -6 -46 -19.5t-58.5 -38 t-50 -61.5t-21.5 -92zM233 641q0 -51 15.5 -114.5t47.5 -119t79.5 -93.5t113.5 -38q39 0 77 16.5t63 41.5q35 35 43 78t8 71q0 55 -16.5 121t-49 123t-81 95t-111.5 38q-41 0 -80 -18.5t-63 -48.5q-27 -33 -36.5 -72t-9.5 -80z" />
<glyph unicode="h" horiz-adv-x="1150" d="M16 1366l162 80h283q-43 -33 -55.5 -42t-18.5 -24q-8 -14 -10 -34.5t-4 -61.5q0 -14 -1 -49t-2 -75t-2 -76.5t-1 -51.5l-7 -260q18 20 47 51t72 60.5t101.5 50t136.5 20.5q41 0 98 -13t107 -64q55 -59 64 -125t9 -134q0 -123 -3 -243.5t-7 -243.5v-10q0 -35 10.5 -43 t20.5 -12q8 -2 29.5 -5.5t46 -6.5t46 -6t31.5 -3l-86 -45h-338q29 35 38.5 53.5t9.5 59.5l8 385v37q-1 76 -7 138q-8 77 -59 124q-51 45 -123 45q-37 0 -66.5 -11.5t-54 -27t-42 -32.5t-29.5 -32q-25 -29 -37 -48t-23 -34l-4 -479q0 -55 7.5 -80.5t44.5 -36.5q6 -2 24.5 -4 t40 -5t39.5 -6t27 -3l-70 -43h-356q29 37 37 53.5t8 52.5l2 175q2 186 4 368t6 363q2 106 4 166.5t3 95.5t1 54.5v45.5z" />
<glyph unicode="i" horiz-adv-x="512" d="M12 856l138 72h245q-12 -16 -18 -27.5t-9 -22t-5.5 -22.5t-2.5 -33l-8 -594v-20t-1 -30.5t-1 -32v-21.5q0 -45 17.5 -55.5t64.5 -14.5l105 -8l-80 -47h-346q18 20 29.5 33.5t16.5 26t7 28.5t2 43v725h-154zM135 1212q23 20 46.5 41t47.5 43l52 50l45 -56q4 -4 8 -9t8 -9 l57 -60q-16 -18 -29.5 -32.5t-28.5 -28.5t-35.5 -31.5t-51.5 -42.5q-25 23 -40 39.5t-28.5 31.5t-24.5 29.5t-26 34.5z" />
<glyph unicode="j" horiz-adv-x="468" d="M-8 856l131 72h250q-10 -14 -16.5 -22.5t-9.5 -18.5t-5 -25.5t-4 -40.5l-14 -715q-4 -90 -11.5 -157.5t-23 -128t-41 -121.5t-64.5 -137l-94 -101q4 12 5 25.5t3 28.5q12 84 16.5 153.5t8.5 151.5l10 442q0 80 1 135.5t1 114.5v137v207h-143zM98 1212l39 35 q18 18 28.5 26.5t27.5 22.5l45 43l43 -45q8 -10 15 -17t15 -17l47 -48q-16 -18 -28.5 -31.5t-27.5 -26.5t-34.5 -29.5t-52.5 -43.5q-23 25 -38 40.5t-26.5 28.5t-23.5 26.5t-29 35.5z" />
<glyph unicode="k" horiz-adv-x="1024" d="M8 1372l162 74h283q-27 -18 -42.5 -30.5t-23.5 -22t-12 -17.5t-6 -20q-2 -10 -4.5 -44t-3.5 -80t-3 -99.5t-3 -101.5t-2 -86t-1 -52l-4 -369q61 41 102.5 67.5t76 50.5t70.5 50.5t89 65.5l70 53q10 8 27.5 21.5t17.5 23.5t-33 14q-43 4 -86 7.5t-86 7.5l82 43h342 q-49 -41 -85 -69t-62.5 -49.5t-47 -36.5t-39.5 -30q-47 -35 -96 -69.5t-96 -71.5l-31 -24q92 -98 150.5 -168t111.5 -134l70 -81q33 -35 56.5 -58.5l43 -43t42 -41t55.5 -52.5q-23 -10 -40.5 -13t-50.5 -3q-59 0 -106 15t-87 41t-73 58.5t-63 65.5l-205 246q-41 47 -65.5 60 t-55.5 13v-327q0 -53 10.5 -73t61.5 -26q29 -4 56.5 -8t55.5 -8l-69 -41h-359q20 27 30.5 44t14.5 48q0 6 1.5 48t1.5 104.5t1 136.5t1 143.5t1 125t1 79.5q0 23 1 73t3 112.5t4 132t4 134t3 115t1 76.5h-162z" />
<glyph unicode="l" horiz-adv-x="512" d="M20 1372l154 74h293q-25 -14 -40 -24.5t-26.5 -23t-17.5 -29.5t-8 -44q-12 -119 -15.5 -299t-3.5 -399v-473q0 -59 15.5 -77t66.5 -22q27 -4 52.5 -5t52.5 -5l-76 -45h-363q18 23 28.5 37t17 24.5t8.5 20.5t2 27v333q0 121 2 281t6 319q2 78 6 168t6 162h-160z" />
<glyph unicode="m" horiz-adv-x="1792" d="M8 862l137 66h252q-10 -10 -20 -19.5t-15 -21.5q-4 -12 -5 -34t-3 -81q27 25 44.5 41t29.5 26.5t20.5 17.5t18.5 15q49 35 115.5 58.5t140.5 23.5t123 -21.5t78.5 -51t45 -62.5t23.5 -55q14 18 45 50t77 63.5t108.5 54t140.5 22.5q100 0 155.5 -37.5t81 -93t30.5 -115 t5 -102.5v-44t-1 -72.5t-1 -73.5v-47v-209q0 -53 2 -65.5t6 -16.5q6 -6 27 -10.5t35 -6.5l106 -14l-84 -47h-333q16 18 26.5 30.5t14.5 26t6 28.5t2 40l2 420q0 51 -2 84t-4 53t-6.5 31.5t-6.5 19.5q-2 6 -11 23.5t-28.5 37t-50 35t-78.5 15.5q-53 0 -94 -19.5t-72.5 -47 t-54 -58.5t-37.5 -51l-2 -172q-2 -74 -3 -128.5t-1 -117.5v-139q2 -29 14.5 -37t59.5 -15l113 -12l-88 -47h-340q14 14 23 26.5t14.5 24.5t7.5 29.5t4 42.5l4 344q1 29 1 55q0 54 -3 100q-4 68 -21 111q-20 53 -65 81t-105 28q-49 0 -86 -16.5t-67.5 -42t-56 -59.5 t-50.5 -69v-520q0 -41 9.5 -56.5t52.5 -19.5l118 -12l-88 -47h-335q16 18 25 30.5t15.5 26t8.5 29.5t2 41l2 70v665h-154z" />
<glyph unicode="n" horiz-adv-x="1150" d="M16 866l138 64h245q-14 -16 -22 -28.5t-11.5 -28t-4.5 -39t-1 -60.5q35 35 62 60.5t55 46.5q45 33 106.5 57.5t133.5 24.5q86 0 149.5 -38t94.5 -102q27 -53 31 -117.5t3 -130.5l-10 -421q0 -55 8 -70.5t49 -20.5l127 -14l-86 -49h-342q29 31 38 53.5t12 67.5l8 350 q0 76 -1 125t-5.5 84t-15.5 58.5t-29 47.5q-12 18 -43 39t-84 21q-39 0 -70 -12.5t-54.5 -27.5t-40 -31.5t-22.5 -24.5q-12 -12 -34.5 -42t-41.5 -55l-12 -483q0 -35 1 -54.5t7 -30.5t20.5 -16.5t39.5 -7.5l118 -12l-83 -49h-345q18 18 29.5 31.5t18 29t8.5 35t2 49.5 q0 180 2 360.5t6 360.5h-154z" />
<glyph unicode="o" horiz-adv-x="1150" d="M66 457q0 100 38.5 190t109.5 158.5t168 108.5t214 40q113 0 204 -41t154.5 -108.5t97 -154.5t33.5 -179q0 -90 -34.5 -179t-100 -160t-163 -115t-222.5 -44q-123 0 -216 43t-155.5 113t-95 156t-32.5 172zM264 571q0 -76 19.5 -169t61.5 -175t108.5 -137t158.5 -55 q59 0 116.5 27.5t92.5 76.5q37 49 49.5 108.5t12.5 119.5q0 68 -17.5 157.5t-57.5 171.5t-105.5 138.5t-159.5 56.5q-51 0 -99.5 -18.5t-85.5 -51.5q-59 -53 -76.5 -118.5t-17.5 -131.5z" />
<glyph unicode="p" horiz-adv-x="1110" d="M-14 872l82 56h284v-158q61 43 101.5 71.5t70 47t54 31t57.5 26.5q10 2 19.5 2h19.5q61 0 125.5 -19.5t119 -64.5t89 -120.5t34.5 -186.5q0 -145 -53 -250.5t-125 -171.5q-61 -53 -123.5 -82.5t-129 -44t-135 -17.5t-138.5 -3l-12 -369q-2 -31 0 -49.5t9 -27.5t22.5 -14 t39.5 -7q25 -4 48.5 -5t48.5 -5l-72 -48h-369q43 29 54.5 39.5t15.5 22.5q10 18 11 81.5t3 139.5q2 59 3 120.5t5 121.5l9 467q0 31 1 68.5t1 76.5t1 77t1 68q0 41 -2 63.5t-11.5 34t-29 15.5t-56.5 6q-18 2 -36.5 3t-36.5 5zM338 14l106 68q57 0 108.5 1t94.5 8t80 23.5 t68 45.5q47 45 66.5 106.5t19.5 126.5q0 102 -29 181t-73 132.5t-96 81t-99 27.5q-59 0 -101.5 -26.5t-76.5 -57.5l-56 -43q0 -25 -1 -76t-2 -117.5t-2 -139t-3 -140.5t-3 -121t-1 -80z" />
<glyph unicode="q" horiz-adv-x="1110" d="M61 442q0 102 43 191.5t119 155t178.5 103.5t221.5 38h401q-20 -25 -32.5 -40.5t-18.5 -26.5t-7 -21.5t-1 -24.5v-72.5t1 -112t1 -112.5v-76v-142.5t-2 -141.5l-7 -332q0 -59 -1 -115.5t-1 -118.5q0 -45 10.5 -55t22.5 -14q6 -2 23.5 -5t38 -6t39 -5.5t24.5 -4.5l-65 -41 h-363q39 37 48 46.5t16 19.5q6 14 7 33.5t3 54.5l8 434l-137 -49q-29 -2 -46.5 -3t-31.5 -1q-106 0 -196.5 29.5t-156 87t-102.5 140.5t-37 187zM254 516q0 -86 26.5 -170t77.5 -145q47 -55 102.5 -85t111 -43.5t106.5 -14.5t90 -1l4 613v69.5t-2 43t-4 26.5t-8 20 q-16 31 -50 37t-75 6t-90 -6t-101 -28q-98 -43 -143 -128t-45 -194z" />
<glyph unicode="r" horiz-adv-x="768" d="M29 862l139 66h248q-12 -14 -18.5 -23.5t-10.5 -20t-6 -21.5t-4 -27v-64q25 23 58.5 52.5t76.5 55t95 44t112 18.5q29 0 45 -5t29 -11l-84 -209l-58 -33l17 98q-14 8 -27.5 13.5t-44.5 5.5q-57 0 -111.5 -31t-107.5 -106l-4 -514q0 -59 18.5 -71.5t61.5 -17.5l108 -4 l-76 -57h-354q18 27 27.5 44t14.5 34.5t6 38t1 51.5v77.5t1 131.5t2 156.5t2 152.5t1 119v57h-157z" />
<glyph unicode="s" horiz-adv-x="768" d="M-18 61l127 132l69 12l-43 -68q57 -39 112.5 -67.5t133.5 -28.5q49 0 82 14.5t52.5 36t28.5 48t9 50.5q0 39 -14.5 67t-36 48.5t-49 34.5t-52.5 27l-145 65q-29 16 -55.5 30.5t-48.5 37.5q-29 29 -47.5 70.5t-18.5 93.5q0 51 22.5 102t66.5 93t112.5 68.5t161.5 26.5 q72 0 138 -16t130 -45l-92 -121l-76 -31l37 76q-43 25 -93.5 48.5t-109.5 23.5q-41 0 -68.5 -13.5t-44 -34t-23.5 -45t-7 -44.5q0 -35 12 -59.5t31.5 -43t43 -31t44.5 -20.5l145 -63q49 -27 99.5 -63t76.5 -110q14 -35 15 -75q0 -61 -25 -117.5t-74 -100.5t-121.5 -70 t-167.5 -26q-33 0 -79.5 4.5t-106.5 20.5q-55 16 -89 31.5t-62 31.5z" />
<glyph unicode="t" horiz-adv-x="598" d="M55 858l123 70v143q33 12 55.5 20.5t42 16.5t42 17.5t57.5 23.5v-221h291l-107 -70h-184l-8 -377v-65.5t1 -84.5t2 -84t3 -63q2 -27 10 -50t23.5 -40.5t42 -28t69.5 -10.5q25 0 48.5 3t47.5 8l-86 -60q-10 -4 -22 -6t-23 -6q-53 -12 -102 -12q-80 0 -124 25.5t-64.5 61 t-23.5 72.5t-3 60l12 657h-123z" />
<glyph unicode="u" horiz-adv-x="1150" d="M-16 858l135 70h276q-18 -23 -28.5 -39.5t-15.5 -33.5t-7 -40.5t-2 -62.5l-2 -181v-136t1 -80.5t2 -46t3 -29.5q2 -18 8 -48t26.5 -60t60.5 -50.5t112 -20.5q80 0 137.5 25t102.5 53q0 188 2 356t6 324h-156l123 70h274q-18 -20 -27 -35.5t-14.5 -31t-7.5 -36t-2 -51.5 l-4 -295q0 -31 -1 -67.5t-1 -70.5t1 -63.5t1 -48.5q2 -41 7 -74.5t21.5 -58t47.5 -39t84 -14.5q20 0 41.5 1t38.5 3l-74 -47q-4 -2 -55 -16.5t-111 -14.5q-59 0 -95 17.5t-57.5 41t-29.5 47t-12 38.5q-6 -4 -19.5 -14.5t-30 -20.5t-31 -20.5t-20.5 -14.5 q-51 -33 -108.5 -52.5t-132.5 -19.5q-96 0 -172 39t-109 129q-4 12 -9 29.5t-8 50.5t-5.5 88t-2.5 146q0 59 3.5 168.5t9.5 236.5h-174z" />
<glyph unicode="v" horiz-adv-x="894" d="M-96 856l125 72h247q-16 -29 -20 -37t-4 -19q0 -8 6 -31.5t14.5 -51t15.5 -52t11 -37.5l125 -378l68 -199l79 190q43 111 73 188t50.5 137t35.5 110.5t30 107.5h-203l119 72h221q-14 -20 -22.5 -34.5t-15.5 -30t-15 -35t-21 -52.5q-35 -94 -59.5 -161.5t-45 -123 t-40 -102.5t-41 -100t-48 -115.5t-63.5 -148.5l-180 -54q-43 117 -85 235t-83 238q-33 98 -64.5 195.5t-66.5 194.5l-8 22h-135z" />
<glyph unicode="w" horiz-adv-x="1579" d="M-68 848l144 80h235q-18 -39 -23 -50.5t-5 -21.5q0 -18 7 -50t16 -68t20.5 -70.5t17.5 -59.5l70 -221l98 -297q12 35 30.5 83t32.5 83l68 207q4 14 15.5 52t24.5 81t24.5 82t15.5 55q8 27 12 44.5t7 29.5t5.5 23.5t6.5 27.5h-140l131 70h236q-20 -41 -25.5 -56.5 t-5.5 -31.5q0 -8 1 -14.5t3 -16.5q0 -6 2 -13.5t6.5 -22.5t12.5 -43t22 -73l60 -198q16 -47 29.5 -92t29.5 -93q12 -43 21.5 -69.5t17.5 -46t14.5 -34.5t16.5 -34q16 37 27.5 64.5t21.5 56.5t22.5 62.5t28.5 86.5l31 101q16 53 31.5 104t31.5 105q18 70 28.5 109.5 t18.5 78.5h-190l127 70h209q-12 -18 -20.5 -30.5t-14.5 -23t-10 -19.5t-10 -24q-12 -39 -23.5 -69.5t-21 -59t-18.5 -55t-17 -57.5q-25 -74 -52.5 -154t-55 -154.5t-54.5 -143t-49 -120.5l-197 -51q-10 25 -20.5 49.5t-24.5 65.5q-27 72 -49.5 145.5t-44.5 145.5 q-25 80 -41 130t-26.5 86t-16.5 63.5t-12 60.5q-12 -47 -22.5 -85t-24 -79t-31 -92t-43.5 -123q-31 -84 -49.5 -135.5t-30.5 -83t-20.5 -54t-18.5 -49.5l-199 -45q-80 231 -152.5 449.5t-133.5 431.5h-138z" />
<glyph unicode="x" horiz-adv-x="980" d="M-12 860l127 68h254q-16 -23 -20.5 -32t-4.5 -19t5 -20.5t11 -18.5l183 -277l116 133q14 18 28.5 36t31.5 36q41 51 41 68q0 23 -22.5 26.5t-32.5 3.5q-2 0 -18.5 -1t-36 -1t-37 -1t-21.5 -1l123 68h250l-47 -33q-18 -18 -35 -34.5t-34.5 -36t-39 -45t-51.5 -62.5 l-176 -215l100 -148q35 -49 70.5 -97t74.5 -95q8 -10 30 -36t46.5 -55.5t46 -56t31.5 -39.5q-63 0 -116.5 7.5t-102.5 32t-97.5 69.5t-101.5 121l-57 84l-49 76l-101 -111q-20 -23 -39.5 -45.5t-40.5 -44.5q-29 -33 -38 -47.5t-9 -28.5q0 -18 13.5 -23.5t23.5 -7.5 q35 -4 67 -5t64 -3l-86 -49h-315q43 37 69.5 59.5t54 48t63.5 63.5t102 103l133 148l-160 237q-41 59 -73.5 106.5t-69.5 94.5h-127z" />
<glyph unicode="y" horiz-adv-x="894" d="M-94 860l127 68h250q-16 -33 -19.5 -42t-3.5 -20q0 -18 11.5 -55t19.5 -59q16 -47 29.5 -92.5t27.5 -90.5l113 -336q12 -37 21.5 -62.5t21.5 -57.5l84 200q29 72 56.5 142.5t55.5 142.5q29 76 49.5 135.5t34.5 126.5h-190l121 68h211q-12 -16 -20.5 -25.5t-14.5 -19 t-11.5 -21.5t-13.5 -33q-37 -98 -63.5 -167.5t-49 -127t-43 -110.5t-48 -118.5t-63.5 -151.5t-87 -209q-39 -92 -76 -182.5t-76 -182.5q-2 -8 -4 -15t-2 -16q0 -18 23 -28q12 -4 37.5 -8.5t93.5 -10.5l-82 -43h-246q12 12 22.5 23.5t19.5 26t19.5 35t26.5 50.5l131 277 q12 27 21.5 45t15.5 31.5t12.5 27t12.5 29.5l-103 -33q-29 74 -62.5 170.5t-64 186.5t-54 158.5t-30.5 86.5q-25 76 -39 121t-24 74t-17.5 48.5t-15.5 43.5h-145z" />
<glyph unicode="z" horiz-adv-x="854" d="M-12 -10q37 49 59.5 78.5t39.5 53t34.5 46t42.5 57.5l215 312q49 70 84 121t61.5 88.5t46 67.5t37.5 58l-340 -8l-121 -88l-96 -31l193 193l67 14q0 -18 11 -20q6 -4 32 -4l508 12q-16 -23 -29.5 -43t-26.5 -40.5t-28.5 -43t-36.5 -53.5l-55 -80q-33 -51 -55.5 -86 t-48 -74t-60.5 -91t-92 -136q-31 -45 -52.5 -78t-40 -59.5t-35.5 -51t-38 -51.5l301 8q70 2 115 6.5t75.5 11.5t55.5 16t55 26l-28 -47l-127 -101l-78 -24l53 57z" />
<glyph unicode="{" horiz-adv-x="724" d="M150 711v28q51 6 80.5 24.5t43 48.5t16.5 69t3 88v176q2 59 4 92t12 63q23 55 72 89t108 47q12 2 24.5 3t31 3t47.5 3t74 3v-31q-35 -6 -63 -12t-52 -19q-33 -16 -51.5 -36.5t-26.5 -46t-10 -57.5t-2 -70v-121q0 -98 -3 -144.5t-16 -76.5q-25 -61 -70.5 -82t-86.5 -29 q35 -8 82 -27.5t73 -72.5q14 -33 17.5 -78t5.5 -135v-138q0 -41 2 -72.5t14 -60.5q27 -57 78 -76.5t109 -31.5v-31q-111 4 -181.5 14.5t-122.5 55.5q-49 41 -57 93t-10 120v184v54.5t-1 35.5t-3 24.5t-4 20.5q-10 31 -25.5 50.5t-35 31.5t-39 17.5t-37.5 9.5z" />
<glyph unicode="|" horiz-adv-x="468" d="M174 -512v2048h123v-2048h-123z" />
<glyph unicode="}" horiz-adv-x="724" d="M66 0v31q35 6 62.5 12t51.5 18q33 16 51.5 37t26.5 46.5t10 57t2 70.5v121q0 49 1 84t2 59.5t5.5 43t10.5 34.5q12 31 30.5 50.5t40 31t44 17.5t42.5 10q-35 10 -82 29.5t-73 72.5q-16 33 -18.5 78t-4.5 135v138q0 41 -2 72.5t-14 60.5q-27 57 -78 76.5t-108 31.5v31 q111 -4 181 -14.5t122 -55.5q49 -41 57 -93t10 -120v-184v-55.5t1 -34.5t2 -24.5t5 -20.5q8 -31 24.5 -50.5t36 -31.5t39 -17.5t38.5 -9.5v-28q-53 -6 -82 -24.5t-42.5 -48.5t-16.5 -69t-3 -88v-176q-2 -61 -4 -93t-12 -63q-23 -55 -72 -88.5t-108 -46.5q-12 -2 -24.5 -4 t-31 -3t-47 -2t-73.5 -3z" />
<glyph unicode="~" horiz-adv-x="1492" d="M274 582q12 18 34 45.5t52.5 53.5t71.5 44t94 18q59 0 115.5 -21.5t116.5 -49.5l65 -31q51 -23 78 -32t55 -9q37 0 70 15.5t57.5 36t43 42t28.5 33.5l64 -113q-51 -63 -114 -110t-149 -47q-47 0 -88 15t-108 48l-62 31q-33 16 -78 33.5t-92 17.5q-43 0 -75 -18 q-12 -6 -21.5 -13.5t-21 -18.5t-26.5 -30.5t-42 -52.5z" />
<glyph unicode="&#xa0;" />
<glyph unicode="&#xa1;" horiz-adv-x="598" d="M129 -12q4 80 7 149.5t9 159.5l19 346q2 51 4 88t3 68.5t2 60.5t1 66l74 16l114 35v-145.5t-2 -124t-4 -128t-4 -157.5q0 -25 -2 -62.5t-4 -84t-5 -95.5t-5 -96zM145 1333q20 20 36 36.5t33 32t36.5 31t48.5 37.5l32.5 -32.5t28 -29.5t28.5 -34.5t36 -46.5l-115 -100 l-39 -37l-41 51z" />
<glyph unicode="&#xa2;" horiz-adv-x="854" d="M66 449q0 27 8 90t45 137t113.5 143.5t216.5 112.5v53l67 98v-139q10 2 21.5 3t27.5 3t36 2h44q78 0 122 -6t81 -14l-160 -170l-84 -31l76 96q-37 23 -71 35t-93 12l-16 -481q-2 -57 -3 -97t-2 -70.5t-1 -56.5v-56q23 -10 52 -20.5t87 -10.5q80 0 137 22.5t115 51.5 l-107 -107q-10 -4 -20 -10t-21 -10q-68 -33 -132 -41t-111 -11v-38l-68 -156v194q-29 6 -68 16.5t-86 39.5q-53 33 -92 81t-64.5 103t-37.5 114.5t-12 117.5zM236 539q0 -94 34 -183q33 -86 74 -127.5t82 -72.5q0 12 2 64t4 127t5 159t5 158.5t4.5 130t2.5 71.5 q-25 -8 -51.5 -19t-59.5 -40q-47 -43 -74.5 -112.5t-27.5 -155.5z" />
<glyph unicode="&#xa3;" horiz-adv-x="1492" d="M4 682l105 66h258q6 70 14 138t23.5 132.5t42 125t71.5 116.5q76 94 194.5 151t256.5 57q98 0 158.5 -24.5t89.5 -46.5q39 -31 61 -65t32.5 -66.5t13.5 -61t3 -49.5l-213 -63q4 23 7 41t3 45q0 104 -52 163.5t-142 59.5q-53 0 -105.5 -21.5t-91.5 -62.5 q-39 -39 -62.5 -89t-39 -102.5t-23.5 -105.5t-14 -98l-16 -174h409l-98 -66h-318q-10 -104 -23 -182t-42 -142.5t-76 -120t-123 -114.5q72 -18 147.5 -29.5t148.5 -18.5t138.5 -9.5t116.5 -2.5q80 0 170 10.5t158 45.5q61 33 81.5 70.5t30.5 72.5q27 2 52.5 4t52.5 6 q41 6 70.5 9.5t44.5 5.5q2 -20 0 -39q-4 -45 -49.5 -98.5t-141.5 -88.5q-68 -25 -167 -37t-215 -17t-238.5 -6t-237.5 -1h-428l170 123q29 23 50.5 45t36.5 50t25.5 64.5t14.5 88.5l22 311h-356z" />
<glyph unicode="&#xa4;" horiz-adv-x="1366" d="M119 223l151 150q-23 33 -42 64.5t-35.5 69.5t-25.5 84t-9 105q0 63 12 114.5t29.5 90.5t37 67.5t33.5 47.5l-149 149l92 92l149 -149q25 18 56 37.5t69.5 36t88 28t110.5 11.5t111.5 -11.5t89.5 -29t67.5 -37t51.5 -33.5l149 150l94 -95l-151 -149q14 -18 33.5 -47 t36 -68t28.5 -90t12 -119q0 -66 -12 -117t-30.5 -90t-38 -66.5t-31.5 -45.5l151 -154l-94 -92l-149 154q-31 -20 -62 -41t-67.5 -36.5t-84 -24.5t-108.5 -9q-59 0 -105.5 9t-83 24.5t-68.5 35t-63 42.5l-151 -150zM283 694q0 -84 30.5 -157.5t84 -128t128 -86t160.5 -31.5 q82 0 154.5 29.5t126 84t85 128t31.5 163.5q0 92 -32.5 167t-88 127t-127 81t-147.5 29q-80 0 -153.5 -29t-130 -81t-89 -128t-32.5 -168z" />
<glyph unicode="&#xa5;" horiz-adv-x="1280" d="M-145 1368l143 80h354q-37 -39 -46 -49t-9 -21q0 -6 2 -13t4 -11q4 -10 16.5 -33t31 -53.5t40 -65.5t43.5 -67l88 -134q6 -10 23.5 -35.5t38 -54t39 -55.5t26.5 -37q2 -4 11.5 -18.5t19.5 -28.5t18.5 -26.5t10.5 -14.5l135 193q35 53 70.5 108t70.5 109q33 49 53.5 82.5 t36 58.5t26.5 44.5t23 41.5h-250l140 80h327l-77 -57q-16 -12 -27.5 -22.5t-21 -21t-19.5 -24.5l-25 -35l-352 -536h340l-121 -68h-264l-12 -18v-93h397l-121 -67h-276v-359q0 -35 7 -48t30 -19q29 -10 83 -16.5t117 -12.5l-92 -51h-418l46 70q12 23 14 35t4 36v365h-412 l121 67h291v19l-59 92h-353l121 68h189l-82 131q-45 66 -88 130t-88 130q-8 12 -31 44t-48.5 67.5t-49 68.5t-31.5 45h-178z" />
<glyph unicode="&#xa6;" horiz-adv-x="468" d="M174 -358v716h123v-716h-123zM174 666v716h123v-716h-123z" />
<glyph unicode="&#xa7;" horiz-adv-x="980" d="M66 537q0 63 20 112t50 86t59.5 61.5t48.5 39.5q-8 8 -15.5 14t-13.5 14q-47 47 -74.5 110.5t-27.5 127.5q0 53 23.5 115.5t74.5 115.5t134 89t200 36q41 0 107.5 -10t131.5 -57q43 -31 69 -66t38 -67.5t15 -61.5t5 -47l-202 -55q2 16 3 33.5t1 35.5q0 49 -13.5 91 t-40 74t-63.5 50.5t-82 18.5q-47 0 -86 -17.5t-67.5 -48.5t-45 -71.5t-16.5 -85.5q0 -31 13.5 -81.5t62.5 -103.5q39 -43 85 -68.5t91 -46.5l143 -59q33 -14 72 -34.5t72.5 -50.5t55 -73t21.5 -104t-20.5 -109.5t-49 -84t-59 -60.5t-51.5 -39q20 -16 46 -39.5t48.5 -56.5 t38 -75t15.5 -97q0 -68 -27 -132.5t-81 -114.5t-134 -81t-184 -31q-45 0 -93.5 7.5t-94.5 26t-86 49t-70 77.5q-29 47 -35 83t-10 65l213 59q-2 -16 -3.5 -33.5t-1.5 -36.5q0 -63 16.5 -108t44.5 -75t63.5 -43t72.5 -13q51 0 90 22.5t65.5 57t39 76.5t12.5 81 q0 68 -26.5 115t-63.5 80t-79 54.5t-73 33.5l-135 49q-35 14 -76 34.5t-76.5 52.5t-60 78t-24.5 112zM223 649q0 -59 28 -103t67.5 -77t83.5 -54.5t79 -35.5q39 -14 64.5 -23.5t46 -17.5t40 -17.5t48.5 -23.5q23 20 51.5 55t28.5 94q0 16 -6 45t-29 66q-35 55 -91 90 t-142 72q-51 20 -81 31.5t-48.5 18.5t-32 13t-31.5 17q-27 -25 -51.5 -58.5t-24.5 -91.5z" />
<glyph unicode="&#xa8;" d="M-72 1223q25 18 41.5 32.5t31.5 27.5t30.5 27.5t38.5 35.5q20 -25 33.5 -41.5t25.5 -30.5t26.5 -29.5t32.5 -36.5l-38 -38t-30.5 -28.5t-31.5 -28t-41 -32.5q-23 20 -37 36t-26.5 30t-24.5 31.5t-31 44.5zM369 1229q27 20 44 33.5t31.5 25.5t29.5 25.5t38 34.5 q18 -25 30.5 -41.5t24 -29.5t24.5 -29.5t36 -41.5q-23 -23 -39.5 -37t-31.5 -26.5t-32.5 -27t-42.5 -32.5q-20 20 -33.5 36t-24.5 31t-23.5 33.5t-30.5 45.5z" />
<glyph unicode="&#xa9;" horiz-adv-x="1705" d="M125 723q0 156 57.5 289t156.5 231t231 153.5t284 55.5q158 0 291 -57.5t230.5 -156.5t151.5 -232t54 -283q0 -152 -55.5 -285t-153.5 -231t-231 -155.5t-289 -57.5q-145 0 -276.5 53t-231.5 150.5t-159.5 231.5t-59.5 294zM190 725q0 -143 53.5 -265t143.5 -211 t211 -139.5t256 -50.5q115 0 221.5 37t196.5 109q70 55 116 120.5t74.5 135t41 136.5t12.5 124q0 137 -50.5 259t-137.5 212t-208 142t-262 52t-264 -52t-212 -143t-140.5 -211t-51.5 -255zM408 737q0 86 15 151.5t34 100.5q47 102 148.5 149.5t228.5 47.5q18 0 34.5 -1 t39 -2t54 -4t80.5 -8l142 -8l24 -270h-49q-8 35 -20.5 77t-32.5 72q-4 8 -17.5 24.5t-37 33t-59.5 30t-85 13.5q-43 0 -86 -10.5t-80 -34.5q-39 -27 -64.5 -65t-39.5 -83t-20.5 -93t-6.5 -95q0 -57 6 -113q2 -37 12.5 -97t40 -118.5t86 -101.5t152.5 -43q82 0 130 25.5 t75 63.5t37 82t16 81h49v-262l-153 -15q-53 -6 -115.5 -12t-97.5 -6t-75 4t-87 18q-31 8 -63.5 22.5t-63.5 39t-59.5 62.5t-48.5 91q-25 61 -34 133t-9 121z" />
<glyph unicode="&#xaa;" horiz-adv-x="598" d="M33 985q0 55 32.5 97t77.5 73t93.5 50.5t78.5 29.5q-16 53 -27.5 78.5t-29.5 48.5q-12 14 -24.5 21.5t-33 10.5t-50 3t-76.5 -2l135 57q68 0 107.5 -8t65.5 -31.5t42 -66.5t37 -113l24 -90q16 -59 36 -119.5t42 -101.5q10 -18 18.5 -29.5t30.5 -38.5q-27 -4 -36 -5 t-17 -1q-29 0 -73 17.5t-78 76.5l-50 -49q-23 -12 -60.5 -29.5t-98.5 -17.5q-84 0 -125 42t-41 97zM172 1028q0 -53 37 -74.5t76 -21.5q59 0 108 43q-6 16 -10 28.5t-9 29t-11.5 42t-18.5 68.5q-8 29 -11 34t-11 5t-33 -10.5t-50.5 -31t-46 -48t-20.5 -64.5z" />
<glyph unicode="&#xab;" horiz-adv-x="894" d="M45 532l420 396l55 -56l-358 -340l356 -348l-61 -53zM375 532l418 392l55 -54l-356 -338l356 -350l-57 -53z" />
<glyph unicode="&#xac;" horiz-adv-x="1366" d="M0 537v120h1366v-657h-123v537h-1243z" />
<glyph unicode="&#xad;" horiz-adv-x="1024" d="M0 537v120h1024v-120h-1024z" />
<glyph unicode="&#xae;" horiz-adv-x="1705" d="M125 723q0 158 58.5 291t157.5 230t231.5 152.5t279.5 55.5q158 0 292 -57.5t231.5 -156.5t152.5 -231t55 -282q0 -154 -56.5 -287t-154.5 -231t-231 -155.5t-289 -57.5q-143 0 -274.5 53t-231.5 149.5t-160.5 230.5t-60.5 296zM190 723q0 -139 52.5 -261t142.5 -211 t210 -140.5t257 -51.5q141 0 263 52.5t211 141.5t140.5 210t51.5 260q0 137 -50.5 258t-138.5 211t-210 142t-263 52t-262 -52t-211 -142t-141.5 -211t-51.5 -258zM494 268v70q35 4 53 9t28 20q4 6 6.5 11t4.5 16.5t2 29.5v49v533q0 29 -1 48t-10.5 31.5t-28 18.5t-54.5 8 v70q43 -2 70.5 -3t47 -1h32.5h28q12 0 45 1t69.5 1t69.5 1t47 1q59 0 112.5 -6.5t94.5 -28.5q47 -25 79 -72t32 -112q0 -29 -9.5 -62t-34 -63.5t-67.5 -55t-113 -34.5q33 -10 53.5 -30t35 -44.5t21.5 -50t13 -45.5l19 -80q14 -53 24.5 -80t34.5 -27q18 0 36.5 20.5 t33.5 92.5l63 -10q-6 -25 -16 -65t-28.5 -77t-49.5 -64.5t-76 -27.5q-25 0 -53.5 10.5t-46.5 30.5q-31 31 -48.5 89.5t-33.5 117.5q-12 55 -23.5 94t-29 63.5t-45 37t-72.5 16.5h-70v-248q0 -37 2 -60.5t11.5 -38t31 -21.5t62.5 -13v-70q-51 4 -83 4h-79q-49 0 -95 -1 t-95 -3zM739 809h72q49 0 72.5 2t46.5 6q49 10 90 44t41 100q0 45 -23 79q-31 45 -77 54.5t-84 9.5q-51 0 -79 -5t-41.5 -20.5t-15.5 -41t-2 -68.5v-160z" />
<glyph unicode="&#xaf;" d="M-25 1139l131 73h476l-131 -73h-476z" />
<glyph unicode="&#xb0;" horiz-adv-x="724" d="M61 1231q0 63 24 117.5t64.5 95.5t96 64.5t116.5 23.5q63 0 118 -23.5t95.5 -64.5t64.5 -96.5t24 -116.5t-24 -116.5t-64.5 -96.5t-95 -64.5t-118.5 -23.5q-61 0 -116.5 23.5t-96 64.5t-64.5 96t-24 117zM184 1231q0 -74 51.5 -126t126.5 -52q74 0 126.5 52t52.5 126 t-52.5 126t-126.5 52q-76 0 -127 -52t-51 -126z" />
<glyph unicode="&#xb1;" horiz-adv-x="1024" d="M63 0v121h898v-121h-898zM63 700v121h392v389h120v-389h386v-121h-386v-389h-120v389h-392z" />
<glyph unicode="&#xb2;" horiz-adv-x="681" d="M20 1243q37 37 68 65.5t60.5 53t59.5 46.5t66 42q25 4 42.5 7t45.5 3q61 0 103.5 -17.5t69 -46t38 -65.5t11.5 -76q0 -102 -70 -212.5t-207 -266.5q-6 -6 -20.5 -22.5t-29.5 -35t-29.5 -34.5t-20.5 -22q29 -4 60.5 -7.5t61 -5.5t53.5 -2h36q55 0 91 3t58.5 8.5t38 12.5 t27.5 15l-19 -53l-100 -117l-63 -12l28 43q-47 -4 -102 -6t-90 -2q-47 0 -115 4t-135 14q41 41 80 87t76 93q41 51 85 108.5t80.5 118t61 120t24.5 114.5q0 31 -9 59.5t-26.5 52t-44 38t-61.5 14.5q-59 0 -95 -28.5t-56 -51.5z" />
<glyph unicode="&#xb3;" horiz-adv-x="681" d="M4 1245q37 37 67.5 65.5t59.5 53.5t58.5 46.5t64.5 43.5q18 4 37.5 6t46.5 2q43 0 80 -10q68 -18 93.5 -63.5t25.5 -81.5q0 -39 -16.5 -70t-38 -55.5t-45 -42t-38.5 -27.5l39 -19.5t47 -33.5q66 -61 66 -154q0 -68 -32 -125t-84 -104t-117.5 -83t-133.5 -61l-164 -10 q57 23 93.5 38t62 27.5t44 23t40.5 26.5q59 41 102.5 99.5t43.5 129.5q0 33 -10.5 62.5t-35 53.5t-65.5 38t-102 16l40 60q80 4 127.5 55t47.5 104q0 27 -11.5 47.5t-30 33t-40 18.5t-41.5 6q-43 0 -81 -20.5t-65 -55.5z" />
<glyph unicode="&#xb4;" d="M-12 1075l139 103l440 100l-143 -104z" />
<glyph unicode="&#xb5;" horiz-adv-x="1150" d="M-16 858l135 70h274q-16 -23 -26.5 -38.5t-15.5 -33.5t-7 -41.5t-2 -62.5l-2 -177q-2 -143 0 -239q4 -55 12 -97t31 -71q35 -41 87 -54.5t91 -13.5q78 0 137.5 28t94.5 50q0 188 2 356t6 324h-156l123 70h274q-14 -18 -23 -31.5t-15.5 -29t-8.5 -37t-4 -56.5l-4 -295 q0 -23 -1 -75t-1 -99q0 -70 5 -120t22.5 -81.5t49.5 -46t87 -14.5q20 0 38.5 1t39.5 3l-74 -47q-51 -16 -92 -23.5t-74 -7.5q-59 0 -95 17.5t-57.5 41t-29.5 48t-12 37.5q-6 -4 -19.5 -14.5t-30 -20.5t-31 -20.5t-20.5 -14.5q-53 -35 -112.5 -53.5t-124.5 -18.5 q-61 0 -88 15.5t-37 25.5l-2 -393q0 -31 1 -49.5t8 -27.5t21.5 -14t40.5 -7q12 -2 44 -5t53 -5l-72 -48h-369q35 23 43 30t15 13q6 6 9 11.5t6 15.5t4 28.5t3 51.5q2 39 2 88v99t1 99.5t1 88.5l6 436q0 90 1 154.5t3.5 113.5t4.5 88l4 78h-174z" />
<glyph unicode="&#xb6;" horiz-adv-x="1366" d="M184 1049q0 51 16.5 118.5t63.5 126.5q41 53 90 84t98.5 45.5t96.5 18.5t86 4h452v-90h-67v-1698h-94v1698h-322v-1698h-94v1018q-51 10 -110.5 27.5t-118.5 82.5q-51 53 -74 125t-23 138z" />
<glyph unicode="&#xb7;" horiz-adv-x="512" d="M115 535l55 49l96 92l45 -55l33 -37l49 -49q-18 -20 -33.5 -36t-32 -31t-37 -32.5t-48.5 -40.5q-18 18 -30.5 29.5t-25 25t-29 33t-42.5 52.5z" />
<glyph unicode="&#xb8;" d="M139 -612q23 18 48.5 40.5t47 50t36 60.5t14.5 72t-12.5 65.5t-32 45t-43 29.5t-43.5 22q23 33 40 61.5t32.5 56t30.5 58.5t34 69h84l-68 -135q16 -8 25 -14q35 -25 59.5 -69t24.5 -99q0 -43 -17.5 -90t-52.5 -92q-6 -6 -16.5 -18.5t-22.5 -24t-22.5 -20.5t-14.5 -11z " />
<glyph unicode="&#xb9;" horiz-adv-x="681" d="M106 1235l11 29q61 37 100 60.5t73 45t73.5 49t105.5 72.5l-18 -59q-4 -20 -7.5 -34t-3.5 -40l-16 -713q0 -31 8 -38t39 -11l90 -8l-76 -45h-241q27 33 33 44t8 36l10 575q0 31 1 50.5t1 29.5v16v13l-72 -45z" />
<glyph unicode="&#xba;" horiz-adv-x="724" d="M41 1149q0 63 24.5 119.5t68.5 99.5t106.5 68.5t136.5 25.5q70 0 127 -25.5t97 -67.5t61.5 -97.5t21.5 -114.5q0 -57 -21.5 -113.5t-63.5 -100.5t-103.5 -71.5t-139.5 -27.5t-136 27.5t-98 70.5t-60.5 97.5t-20.5 109.5zM180 1219q0 -43 11.5 -98.5t36 -104.5t63.5 -83 t94 -34q35 0 67.5 15.5t53.5 43.5q23 29 30 65t7 73t-10.5 90t-34 102t-61.5 84t-95 35q-4 0 -29.5 -3t-55.5 -21.5t-53.5 -56.5t-23.5 -107z" />
<glyph unicode="&#xbb;" horiz-adv-x="894" d="M47 186l359 338l-357 350l55 54l418 -404l-416 -391zM377 184l358 340l-358 348l61 54l414 -402l-420 -395z" />
<glyph unicode="&#xbc;" horiz-adv-x="1622" d="M106 1235l11 29q61 37 100 60.5t73 45t73.5 49t105.5 72.5l-18 -59q-4 -20 -7.5 -34t-3.5 -40l-16 -713q0 -31 8 -38t39 -11l90 -8l-76 -45h-241q27 33 33 44t8 36l10 575q0 31 1 50.5t1 29.5v16v13l-72 -45zM293 -25q8 14 15 26.5t16 25.5q59 92 115.5 185t113.5 185 q70 113 160 251t185 281.5t187.5 278.5t167.5 242l113 20q-31 -39 -58.5 -76.5t-58 -80.5t-64.5 -92.5t-75 -110.5q-59 -86 -114.5 -170t-110.5 -170q-61 -96 -122 -189.5t-122 -189.5q-59 -92 -96 -149.5t-61.5 -96.5t-44 -70.5t-46.5 -74.5zM946 268q45 80 73 129l48 84 t38.5 64.5t43.5 70.5q43 72 86 140.5t90 138.5l125 27q-2 -20 -3 -39t-2 -41.5t-2 -54t-3 -78.5l-8 -336h55q33 0 64.5 1t64.5 1l-143 -111q-14 2 -23.5 2t-19.5 2v-164q0 -35 4 -42t32 -11l82 -6l-61 -45h-213q10 18 16 29.5t9.5 20.5t5.5 17.5t2 22.5l2 180q-14 0 -53 1 t-91.5 1t-111 -1t-107.5 -3zM1081 377h228l12 409q-41 -68 -69.5 -114.5t-54.5 -89.5t-52.5 -90.5t-63.5 -114.5z" />
<glyph unicode="&#xbd;" horiz-adv-x="1622" d="M106 1235l11 29q61 37 100 60.5t73 46t73.5 49t105.5 73.5l-18 -61q-4 -20 -7.5 -34t-3.5 -40l-16 -711q0 -33 8 -40t39 -11l90 -8l-76 -45h-241q27 33 33 44t8 36l10 577q0 31 1 49.5t1 28.5v17.5v13.5l-72 -47zM293 -23q8 12 15 24.5t16 27.5q59 92 115.5 184 t113.5 184q70 113 160 251t185 281.5t187.5 278.5t167.5 244l115 18q-31 -39 -59.5 -76.5t-59 -80.5t-64.5 -92.5t-75 -110.5q-57 -86 -113.5 -169t-111.5 -169q-61 -96 -122 -190.5t-122 -190.5q-59 -92 -96 -148.5t-61.5 -95t-44 -70.5t-46.5 -75zM958 702q37 37 68 66 t60.5 53.5t59.5 46t66 41.5q25 4 42.5 7.5t45.5 3.5q61 0 103.5 -17.5t69 -46.5t38 -65.5t11.5 -75.5q0 -102 -70 -214t-207 -268q-6 -6 -20.5 -21t-30.5 -33.5t-30.5 -35t-20.5 -22.5q31 -4 62.5 -7t61 -5.5t53 -2.5h36.5q55 0 91 3.5t58.5 8.5t38 12t27.5 13l-19 -51 l-100 -117l-63 -12l28 43q-45 -4 -101 -6t-91 -2q-66 0 -129.5 4t-122.5 14q43 41 82 87.5t75 93.5q41 51 85.5 108t81 116.5t61 119t24.5 114.5q0 61 -34.5 113.5t-106.5 52.5q-59 0 -95 -29.5t-56 -52.5z" />
<glyph unicode="&#xbe;" horiz-adv-x="1622" d="M4 1247q37 37 67.5 65.5t59.5 52.5t58.5 45.5t64.5 43.5q18 4 37.5 6t46.5 2q43 0 80 -10q68 -18 93.5 -63.5t25.5 -81.5q0 -39 -16.5 -70t-38 -55.5t-45 -42t-38.5 -27.5l39 -19.5t47 -33.5q66 -61 66 -154q0 -68 -32 -125t-84 -103t-117.5 -82t-133.5 -60l-164 -11 q57 23 93.5 38.5t62 27.5t44 22.5t40.5 26.5q59 41 102.5 99.5t43.5 129.5q0 31 -10.5 60.5t-35 53.5t-65.5 38t-102 16l40 60q39 2 72 17t55.5 39t35 51.5t12.5 51.5q0 29 -11.5 48.5t-30 32t-40 18.5t-41.5 6q-43 0 -81 -20.5t-65 -55.5zM291 -25q8 14 16 26.5t17 25.5 q59 92 114.5 185t114.5 185q70 113 160 251t185 281.5t187.5 278.5t167.5 242l115 20q-31 -39 -59.5 -76.5t-59 -80.5t-64.5 -92.5t-75 -110.5q-57 -86 -113.5 -170t-111.5 -170q-61 -94 -123 -188.5t-121 -190.5q-59 -92 -96 -149.5t-61.5 -96.5t-44 -70.5t-46.5 -74.5z M946 268q45 80 73 129l48 84t38.5 64.5t43.5 72.5q43 70 86 138.5t90 138.5l125 27q-2 -20 -3 -38t-2 -41.5t-2 -55t-3 -78.5l-8 -336h55q33 0 64.5 1t64.5 1l-143 -111q-14 2 -23.5 2t-19.5 2v-164q0 -35 4 -42t32 -11l82 -6l-61 -45h-213q10 18 16 29.5t9.5 20.5t5.5 17.5 t2 22.5l2 180q-14 0 -53 1t-91.5 1t-111 -1t-107.5 -3zM1081 377h228l12 409q-41 -68 -69.5 -114.5t-54.5 -89.5t-52.5 -90.5t-63.5 -114.5z" />
<glyph unicode="&#xbf;" horiz-adv-x="937" d="M0 274q0 51 13.5 91.5t37 75t54 65.5t67.5 61l64 49q35 31 56 57.5t33.5 60.5t19.5 80t13 118l82 16l60 15l80 22q-6 -90 -23.5 -152.5t-46.5 -109.5t-68 -84t-84 -76q-31 -31 -58.5 -60.5t-48 -63t-32.5 -75.5t-12 -96q0 -61 16 -96q4 -8 16.5 -28.5t37 -42t61.5 -38 t90 -16.5q102 0 170 66q55 51 71.5 103t22.5 91l215 37q-4 -43 -16 -90t-62 -104q-53 -63 -157.5 -115.5t-263.5 -52.5q-86 0 -161 18t-129.5 55t-86 92.5t-31.5 126.5zM338 1329q18 20 31.5 35.5t29 29t37 31t53.5 45.5q14 -16 27.5 -28t27 -26.5t31 -35t41.5 -51.5 l-104 -94l-49 -47l-43 53z" />
<glyph unicode="&#xc0;" horiz-adv-x="1536" d="M29 61q39 51 74.5 99.5t72.5 108t80 139t98 194.5l76 160q33 63 51.5 102t34.5 74t33.5 76t48.5 110q14 31 23.5 52.5t16.5 39t13 34t13 38.5q-14 33 -41 52.5t-61 28.5t-71.5 10t-74.5 -1l131 54l287 20q8 -18 31.5 -69.5t50 -107.5t50 -106.5t29.5 -64.5q16 -37 36 -83 t41.5 -95t41 -95.5t35.5 -82.5l80 -183q63 -137 110 -227t88 -151.5t84 -103.5t101 -83q-39 -10 -70 -15t-65 -5q-41 0 -79 11t-85 40q-41 27 -73 60.5t-56.5 72.5t-45 81t-40.5 89l-121 282q-29 -8 -50.5 -14t-39 -12t-34.5 -13.5t-38 -15.5h-326q-35 0 -49 -6t-30 -25 l-179 -329l-9 -22.5t-5 -24.5q0 -27 29 -39q41 -25 105.5 -39.5t113.5 -22.5l-172 -53q-115 -4 -171 17.5t-93 43.5zM350 1747l441 -98l143 -103l-445 96zM459 637l381 -2q49 4 73.5 5t53.5 3q-18 49 -54 132t-74 168t-73 156.5t-49 102.5q-39 -90 -65.5 -152.5 t-55.5 -125.5q-27 -55 -54.5 -110.5t-54.5 -111.5q-8 -16 -15 -32.5t-13 -32.5z" />
<glyph unicode="&#xc1;" horiz-adv-x="1536" d="M29 61q39 51 74.5 99.5t72.5 108t80 139t98 194.5l76 160q33 63 51.5 102t34.5 74t33.5 76t48.5 110q14 31 23.5 52.5t16.5 39t13 34t13 38.5q-14 33 -41 52.5t-61 28.5t-71.5 10t-74.5 -1l131 54l287 20q8 -18 31.5 -69.5t50 -107.5t50 -106.5t29.5 -64.5q16 -37 36 -83 t41.5 -95t41 -95.5t35.5 -82.5l80 -183q63 -137 110 -227t88 -151.5t84 -103.5t101 -83q-39 -10 -70 -15t-65 -5q-41 0 -79 11t-85 40q-41 27 -73 60.5t-56.5 72.5t-45 81t-40.5 89l-121 282q-29 -8 -50.5 -14t-39 -12t-34.5 -13.5t-38 -15.5h-326q-35 0 -49 -6t-30 -25 l-179 -329l-9 -22.5t-5 -24.5q0 -27 29 -39q41 -25 105.5 -39.5t113.5 -22.5l-172 -53q-115 -4 -171 17.5t-93 43.5zM459 637l381 -2q49 4 73.5 5t53.5 3q-18 49 -54 132t-74 168t-73 156.5t-49 102.5q-39 -90 -65.5 -152.5t-55.5 -125.5q-27 -55 -54.5 -110.5t-54.5 -111.5 q-8 -16 -15 -32.5t-13 -32.5zM623 1546l139 103l440 100l-143 -104z" />
<glyph unicode="&#xc2;" horiz-adv-x="1536" d="M29 61q39 51 74.5 99.5t72.5 108t80 139t98 194.5l76 160q33 63 51.5 102t34.5 74t33.5 76t48.5 110q14 31 23.5 52.5t16.5 39t13 34t13 38.5q-14 33 -41 52.5t-61 28.5t-71.5 10t-74.5 -1l131 54l287 20q8 -18 31.5 -69.5t50 -107.5t50 -106.5t29.5 -64.5q16 -37 36 -83 t41.5 -95t41 -95.5t35.5 -82.5l80 -183q63 -137 110 -227t88 -151.5t84 -103.5t101 -83q-39 -10 -70 -15t-65 -5q-41 0 -79 11t-85 40q-41 27 -73 60.5t-56.5 72.5t-45 81t-40.5 89l-121 282q-29 -8 -50.5 -14t-39 -12t-34.5 -13.5t-38 -15.5h-326q-35 0 -49 -6t-30 -25 l-179 -329l-9 -22.5t-5 -24.5q0 -27 29 -39q41 -25 105.5 -39.5t113.5 -22.5l-172 -53q-115 -4 -171 17.5t-93 43.5zM436 1552l182 138l164 59l281 -131l-105 -47l-204 96zM459 637l381 -2q49 4 73.5 5t53.5 3q-18 49 -54 132t-74 168t-73 156.5t-49 102.5 q-39 -90 -65.5 -152.5t-55.5 -125.5q-27 -55 -54.5 -110.5t-54.5 -111.5q-8 -16 -15 -32.5t-13 -32.5z" />
<glyph unicode="&#xc3;" horiz-adv-x="1536" d="M29 61q39 51 74.5 99.5t72.5 108t80 139t98 194.5l76 160q33 63 51.5 102t34.5 74t33.5 76t48.5 110q14 31 23.5 52.5t16.5 39t13 34t13 38.5q-14 33 -41 52.5t-61 28.5t-71.5 10t-74.5 -1l131 54l287 20q8 -18 31.5 -69.5t50 -107.5t50 -106.5t29.5 -64.5q16 -37 36 -83 t41.5 -95t41 -95.5t35.5 -82.5l80 -183q63 -137 110 -227t88 -151.5t84 -103.5t101 -83q-39 -10 -70 -15t-65 -5q-41 0 -79 11t-85 40q-41 27 -73 60.5t-56.5 72.5t-45 81t-40.5 89l-121 282q-29 -8 -50.5 -14t-39 -12t-34.5 -13.5t-38 -15.5h-326q-35 0 -49 -6t-30 -25 l-179 -329l-9 -22.5t-5 -24.5q0 -27 29 -39q41 -25 105.5 -39.5t113.5 -22.5l-172 -53q-115 -4 -171 17.5t-93 43.5zM434 1567l170 123q31 6 60 6q20 0 48.5 -4t53.5 -9q82 -12 135 -12q57 0 97 11.5t85 27.5l-141 -104q-4 -2 -16.5 -4.5t-27.5 -3.5t-29.5 -2t-20.5 -1 q-25 0 -44.5 3.5t-41.5 7.5q-57 12 -90 15t-56 3q-63 0 -100 -15.5t-82 -41.5zM459 637l381 -2q49 4 73.5 5t53.5 3q-18 49 -54 132t-74 168t-73 156.5t-49 102.5q-39 -90 -65.5 -152.5t-55.5 -125.5q-27 -55 -54.5 -110.5t-54.5 -111.5q-8 -16 -15 -32.5t-13 -32.5z" />
<glyph unicode="&#xc4;" horiz-adv-x="1536" d="M29 61q39 51 74.5 99.5t72.5 108t80 139t98 194.5l76 160q33 63 51.5 102t34.5 74t33.5 76t48.5 110q14 31 23.5 52.5t16.5 39t13 34t13 38.5q-14 33 -41 52.5t-61 28.5t-71.5 10t-74.5 -1l131 54l287 20q8 -18 31.5 -69.5t50 -107.5t50 -106.5t29.5 -64.5q16 -37 36 -83 t41.5 -95t41 -95.5t35.5 -82.5l80 -183q63 -137 110 -227t88 -151.5t84 -103.5t101 -83q-39 -10 -70 -15t-65 -5q-41 0 -79 11t-85 40q-41 27 -73 60.5t-56.5 72.5t-45 81t-40.5 89l-121 282q-29 -8 -50.5 -14t-39 -12t-34.5 -13.5t-38 -15.5h-326q-35 0 -49 -6t-30 -25 l-179 -329l-9 -22.5t-5 -24.5q0 -27 29 -39q41 -25 105.5 -39.5t113.5 -22.5l-172 -53q-115 -4 -171 17.5t-93 43.5zM416 1692q25 20 41 34.5t31.5 27.5t31 27.5t37.5 35.5q20 -25 33.5 -41.5t26 -31.5t26.5 -30.5t33 -36.5l-38 -38t-30.5 -27.5t-31.5 -27t-41 -32.5 q-23 20 -37.5 36t-26.5 30t-24.5 31.5t-30.5 42.5zM459 637l381 -2q49 4 73.5 5t53.5 3q-18 49 -54 132t-74 168t-73 156.5t-49 102.5q-39 -90 -65.5 -152.5t-55.5 -125.5q-27 -55 -54.5 -110.5t-54.5 -111.5q-8 -16 -15 -32.5t-13 -32.5zM856 1700q27 20 44.5 33.5t31.5 26 t29.5 25.5t37.5 32q18 -25 30.5 -40.5t24 -28.5t25 -29.5t35.5 -41.5q-23 -23 -39 -37t-31.5 -27.5t-32.5 -27t-42 -31.5q-20 20 -33.5 36t-25 31t-24 32.5t-30.5 46.5z" />
<glyph unicode="&#xc5;" horiz-adv-x="1536" d="M29 61q39 51 74.5 99.5t72.5 108t80 139t98 194.5l76 160q33 63 51.5 102t34.5 74t33.5 76t48.5 110q14 31 23.5 52.5t16.5 39t13 34t13 38.5q-14 33 -41 52.5t-61 28.5t-71.5 10t-74.5 -1l131 54l287 20q8 -18 31.5 -69.5t50 -107.5t50 -106.5t29.5 -64.5q16 -37 36 -83 t41.5 -95t41 -95.5t35.5 -82.5l80 -183q63 -137 110 -227t88 -151.5t84 -103.5t101 -83q-39 -10 -70 -15t-65 -5q-41 0 -79 11t-85 40q-41 27 -73 60.5t-56.5 72.5t-45 81t-40.5 89l-121 282q-29 -8 -50.5 -14t-39 -12t-34.5 -13.5t-38 -15.5h-326q-35 0 -49 -6t-30 -25 l-179 -329l-9 -22.5t-5 -24.5q0 -27 29 -39q41 -25 105.5 -39.5t113.5 -22.5l-172 -53q-115 -4 -171 17.5t-93 43.5zM459 637l381 -2q49 4 73.5 5t53.5 3q-18 49 -54 132t-74 168t-73 156.5t-49 102.5q-39 -90 -65.5 -152.5t-55.5 -125.5q-27 -55 -54.5 -110.5t-54.5 -111.5 q-8 -16 -15 -32.5t-13 -32.5zM612 1653q0 59 42 107t114 48q37 0 64.5 -14t47 -36.5t29 -50.5t9.5 -52q0 -59 -43.5 -105.5t-110.5 -46.5q-66 0 -109 46t-43 104zM662 1657q0 -41 29.5 -74t74.5 -33q43 0 72.5 32t29.5 75q0 39 -27.5 71.5t-74.5 32.5t-75.5 -33.5 t-28.5 -70.5z" />
<glyph unicode="&#xc6;" horiz-adv-x="1878" d="M-4 76q84 88 160.5 179t152.5 185q59 74 106.5 134.5t92.5 120t91 123t103 143.5l289 415h-209l152 70h862l-133 -121l-55 -14q6 10 11 19t9 13q6 6 6 15q0 8 -7 10t-11 2q-10 0 -39 1t-61.5 2t-62.5 1h-44l-190 2l-13 -274q-2 -35 -2 -71t-2 -70q-2 -37 -3 -58.5t-1 -37 v-31v-39.5h475l-119 -111l-55 -14q6 10 14.5 23.5t8.5 17.5q0 12 -11.5 14t-17.5 2h-236q-39 -2 -50 -15.5t-11 -52.5v-456q0 -43 4 -70t28.5 -42t79 -20t154.5 -5q78 0 134.5 5t97.5 14t69.5 21.5t53.5 24.5l108 35l-188 -166h-834q27 31 42.5 50.5t23.5 37.5t10 38.5 t2 53.5v441q-33 -8 -56.5 -14.5t-43 -12.5t-38 -13.5t-38.5 -17.5h-225q-25 0 -39.5 -2t-25.5 -8t-22.5 -16.5t-25.5 -26.5q-35 -45 -59.5 -77t-48 -60.5t-49 -59t-60.5 -73.5q-29 -37 -39 -53.5t-10 -32.5q0 -4 1 -9.5t7 -13.5q10 -14 35.5 -25.5t59.5 -19.5t72 -14t73 -13 l-183 -59q-51 2 -120.5 11t-149.5 65zM565 639h293q20 0 32.5 1t25 1t26.5 1t39 3q0 12 2 55t3 91.5t2 90.5t1 56q2 76 4 150.5t6 150.5q-10 -14 -18 -24.5t-17.5 -23.5t-22.5 -31.5t-34 -49.5q-84 -121 -169 -237.5t-173 -233.5z" />
<glyph unicode="&#xc7;" horiz-adv-x="1366" d="M96 709q0 141 54.5 279t156 246.5t246.5 175.5t330 67q135 0 264 -37q121 -35 187.5 -80t99.5 -72l-154 -149l-63 -6l55 77q-25 27 -59.5 62t-83 65.5t-113 52t-146.5 21.5q-98 0 -197.5 -40t-179 -118.5t-129 -193.5t-49.5 -264q0 -123 41 -254t128 -238.5t221.5 -177.5 t320.5 -70q111 0 186.5 22.5t141.5 49.5l-97 -82q-27 -10 -53 -18.5t-55 -18.5q-92 -27 -161.5 -32t-125.5 -7l-43 -86q6 -4 12.5 -7t12.5 -7q35 -25 59.5 -69t24.5 -101q0 -41 -17.5 -88t-52.5 -92q-20 -25 -38.5 -41.5t-37.5 -32.5l-131 -57q23 18 48.5 40.5t47 50 t36 60.5t14.5 72t-12.5 65.5t-32 45t-43 29.5t-43.5 22q33 47 62.5 98t51.5 104q-35 4 -94 12.5t-131 35.5q-121 45 -207 121.5t-142 170t-83 195.5t-27 199z" />
<glyph unicode="&#xc8;" horiz-adv-x="1067" d="M14 1374l148 72h852l-131 -121l-54 -14q8 10 18.5 26.5t10.5 20.5q0 10 -18 12q-14 2 -43 3t-64 1h-72.5h-70.5h-146l-20 -573h473l-119 -113l-55 -16q16 29 20.5 35t4.5 10q0 10 -7.5 12t-15.5 2h-240q-31 0 -47 -10t-14 -49v-467q0 -37 2 -61.5t16 -39.5q12 -14 42 -22 t65 -11t67.5 -4t53.5 -1q47 0 95 2t95 10q72 10 109 24.5t71 30.5l111 37l-186 -170h-830q25 29 40 48.5t22.5 37.5t9.5 41t2 55q0 299 5 596t19 596h-219zM201 1747l440 -98l143 -103l-444 96z" />
<glyph unicode="&#xc9;" horiz-adv-x="1067" d="M14 1374l148 72h852l-131 -121l-54 -14q8 10 18.5 26.5t10.5 20.5q0 10 -18 12q-14 2 -43 3t-64 1h-72.5h-70.5h-146l-20 -573h473l-119 -113l-55 -16q16 29 20.5 35t4.5 10q0 10 -7.5 12t-15.5 2h-240q-31 0 -47 -10t-14 -49v-467q0 -37 2 -61.5t16 -39.5q12 -14 42 -22 t65 -11t67.5 -4t53.5 -1q47 0 95 2t95 10q72 10 109 24.5t71 30.5l111 37l-186 -170h-830q25 29 40 48.5t22.5 37.5t9.5 41t2 55q0 299 5 596t19 596h-219zM387 1546l139 103l441 100l-144 -104z" />
<glyph unicode="&#xca;" horiz-adv-x="1067" d="M14 1374l148 72h852l-131 -121l-54 -14q8 10 18.5 26.5t10.5 20.5q0 10 -18 12q-14 2 -43 3t-64 1h-72.5h-70.5h-146l-20 -573h473l-119 -113l-55 -16q16 29 20.5 35t4.5 10q0 10 -7.5 12t-15.5 2h-240q-31 0 -47 -10t-14 -49v-467q0 -37 2 -61.5t16 -39.5q12 -14 42 -22 t65 -11t67.5 -4t53.5 -1q47 0 95 2t95 10q72 10 109 24.5t71 30.5l111 37l-186 -170h-830q25 29 40 48.5t22.5 37.5t9.5 41t2 55q0 299 5 596t19 596h-219zM244 1552l182 138l164 59l280 -131l-104 -47l-205 96z" />
<glyph unicode="&#xcb;" horiz-adv-x="1067" d="M14 1374l148 72h852l-131 -121l-54 -14q8 10 18.5 26.5t10.5 20.5q0 10 -18 12q-14 2 -43 3t-64 1h-72.5h-70.5h-146l-20 -573h473l-119 -113l-55 -16q16 29 20.5 35t4.5 10q0 10 -7.5 12t-15.5 2h-240q-31 0 -47 -10t-14 -49v-467q0 -37 2 -61.5t16 -39.5q12 -14 42 -22 t65 -11t67.5 -4t53.5 -1q47 0 95 2t95 10q72 10 109 24.5t71 30.5l111 37l-186 -170h-830q25 29 40 48.5t22.5 37.5t9.5 41t2 55q0 299 5 596t19 596h-219zM219 1692q25 20 41 34.5t31.5 27.5t31 27.5t37.5 35.5q20 -25 34 -41.5t26 -31.5t26.5 -30.5t32.5 -36.5l-38 -38 t-30.5 -27.5t-31.5 -27t-41 -32.5q-23 20 -37 36t-26.5 30t-24.5 31.5t-31 42.5zM659 1700q27 20 44.5 33.5t32 26t29.5 25.5t38 32q18 -25 30.5 -40.5t23.5 -28.5t24.5 -29.5t36.5 -41.5q-23 -23 -39.5 -37t-32 -27.5t-32.5 -27t-42 -31.5q-20 20 -33.5 36t-25 31 t-23.5 32.5t-31 46.5z" />
<glyph unicode="&#xcc;" horiz-adv-x="641" d="M-98 1747l440 -98l143 -103l-444 96zM27 1374l135 72h370l-51 -43q-8 -8 -14 -14.5t-10 -16.5q-4 -4 -4 -13t-2 -44q-2 -41 -4.5 -92.5t-4.5 -105.5t-3 -106.5t-3 -92.5l-8 -304q-2 -68 -3 -134t-1 -134v-131q0 -47 2 -75.5t9 -44t23.5 -21.5t45.5 -8l151 -17l-88 -49 h-432q27 33 41 52.5t22.5 34.5t10.5 30.5t4 38.5q0 180 1 353t3 329.5t6 292t10 243.5h-206z" />
<glyph unicode="&#xcd;" horiz-adv-x="641" d="M27 1374l135 72h370l-51 -43q-8 -8 -14 -14.5t-10 -16.5q-4 -4 -4 -13t-2 -44q-2 -41 -4.5 -92.5t-4.5 -105.5t-3 -106.5t-3 -92.5l-8 -304q-2 -68 -3 -134t-1 -134v-131q0 -47 2 -75.5t9 -44t23.5 -21.5t45.5 -8l151 -17l-88 -49h-432q27 33 41 52.5t22.5 34.5 t10.5 30.5t4 38.5q0 180 1 353t3 329.5t6 292t10 243.5h-206zM174 1546l139 103l441 100l-144 -104z" />
<glyph unicode="&#xce;" horiz-adv-x="641" d="M10 1552l183 138l163 59l281 -131l-105 -47l-204 96zM27 1374l135 72h370l-51 -43q-8 -8 -14 -14.5t-10 -16.5q-4 -4 -4 -13t-2 -44q-2 -41 -4.5 -92.5t-4.5 -105.5t-3 -106.5t-3 -92.5l-8 -304q-2 -68 -3 -134t-1 -134v-131q0 -47 2 -75.5t9 -44t23.5 -21.5t45.5 -8 l151 -17l-88 -49h-432q27 33 41 52.5t22.5 34.5t10.5 30.5t4 38.5q0 180 1 353t3 329.5t6 292t10 243.5h-206z" />
<glyph unicode="&#xcf;" horiz-adv-x="641" d="M-14 1692q25 20 41 34.5t31.5 27.5t30.5 27.5t38 35.5q20 -25 33.5 -41.5t26 -31.5t26.5 -30.5t33 -36.5l-38 -38t-30.5 -27.5t-32 -27t-41.5 -32.5q-23 20 -37 36t-26 30t-24.5 31.5t-30.5 42.5zM27 1374l135 72h370l-51 -43q-8 -8 -14 -14.5t-10 -16.5q-4 -4 -4 -13 t-2 -44q-2 -41 -4.5 -92.5t-4.5 -105.5t-3 -106.5t-3 -92.5l-8 -304q-2 -68 -3 -134t-1 -134v-131q0 -47 2 -75.5t9 -44t23.5 -21.5t45.5 -8l151 -17l-88 -49h-432q27 33 41 52.5t22.5 34.5t10.5 30.5t4 38.5q0 180 1 353t3 329.5t6 292t10 243.5h-206zM426 1700 q27 20 44 33.5t31.5 26t30 25.5t37.5 32q18 -25 30.5 -40.5t24 -28.5t25 -29.5t35.5 -41.5q-23 -23 -39 -37t-31.5 -27.5t-32.5 -27t-42 -31.5q-20 20 -33.5 36t-25 31t-24 32.5t-30.5 46.5z" />
<glyph unicode="&#xd0;" horiz-adv-x="1579" d="M18 700l86 82h111q2 66 2 133.5t2 135.5q2 88 3 141t2 86t1 54.5v45.5l-176 -8l113 76h409q84 0 180.5 -4t193.5 -24.5t189.5 -62.5t170.5 -116q80 -76 138 -200t58 -296q0 -94 -21.5 -184t-62.5 -172t-101.5 -151.5t-139.5 -120.5q-74 -47 -153 -76t-162 -43t-169 -18.5 t-174 -4.5q-141 0 -222 8.5t-134 16.5l33 59q12 23 16 38.5t4 47.5v557h-197zM426 489q0 -113 1 -184.5t11.5 -114.5t29.5 -66.5t56 -39.5q47 -23 102.5 -30t102.5 -7q29 0 86 4t125 27.5t137.5 74t124.5 144.5q53 92 66.5 180t13.5 148q0 84 -16.5 179t-51.5 183 q-55 133 -135 211t-170 118t-180 50t-164 10q-39 0 -68.5 -1t-56.5 -3l-12 -405l-2 -185h508l-117 -82h-391v-211z" />
<glyph unicode="&#xd1;" horiz-adv-x="1835" d="M-16 1372l143 76h256l78 -74l78 -74q41 -43 118.5 -121.5t173 -179t201 -214t204.5 -221t183 -203t135 -158.5l11 495q2 145 2 259t-2 237q0 10 -1 36.5t-2 56.5t-2 56.5t-1 38.5l-234 -8l121 74h270q-16 -10 -23 -14t-18 -19q-6 -10 -11 -19.5t-8 -24.5t-4 -39.5 t-1 -63.5q-2 -47 -2 -96.5t-2 -98.5v-981l32 -41q-55 -23 -95 -40t-103 -44q-133 152 -231.5 263.5t-135.5 152.5q-20 20 -65 69.5t-105.5 116t-133.5 143t-145.5 153.5t-143 149.5t-126.5 128.5q-27 27 -43 42t-26.5 25.5l-16.5 16.5l-14 14v-500q0 -147 2 -290.5t6 -290.5 q2 -33 6 -52.5t23.5 -30.5t61.5 -16.5t120 -9.5l-78 -51h-309l47 47q16 16 22.5 28.5t10.5 47.5q0 8 1 48t2 88t2 93t1 68v295v138.5t-2 135.5q-2 104 -3 167t-1 110q0 72 -23.5 93t-83.5 21q-29 0 -58.5 -2t-57.5 -6zM584 1567l170 123q31 6 59 6q20 0 49 -4t53 -9 q82 -12 136 -12q57 0 97 11.5t85 27.5l-141 -104q-4 -2 -16.5 -4.5t-28 -3.5t-29.5 -2t-21 -1q-25 0 -44 3.5t-42 7.5q-57 12 -90 15t-55 3q-63 0 -100 -15.5t-82 -41.5z" />
<glyph unicode="&#xd2;" horiz-adv-x="1792" d="M78 709q0 137 53 274t159.5 246.5t265.5 178.5t368 69q178 0 323.5 -56.5t248.5 -155t160.5 -229t57.5 -280.5q0 -154 -58.5 -296.5t-167 -251t-264 -174t-347.5 -65.5q-186 0 -335 61.5t-251.5 164t-157.5 235.5t-55 279zM295 795q0 -141 47 -276.5t132 -240t204 -169 t262 -64.5q82 0 179.5 32t179 104.5t137 193.5t55.5 299q0 57 -7 118.5t-24 122.5q-25 84 -76 171.5t-127.5 159t-176 116.5t-222.5 45q-113 0 -215 -41t-179 -120t-123 -192.5t-46 -258.5zM477 1747l441 -98l143 -103l-445 96z" />
<glyph unicode="&#xd3;" horiz-adv-x="1792" d="M78 709q0 137 53 274t159.5 246.5t265.5 178.5t368 69q178 0 323.5 -56.5t248.5 -155t160.5 -229t57.5 -280.5q0 -154 -58.5 -296.5t-167 -251t-264 -174t-347.5 -65.5q-186 0 -335 61.5t-251.5 164t-157.5 235.5t-55 279zM295 795q0 -141 47 -276.5t132 -240t204 -169 t262 -64.5q82 0 179.5 32t179 104.5t137 193.5t55.5 299q0 57 -7 118.5t-24 122.5q-25 84 -76 171.5t-127.5 159t-176 116.5t-222.5 45q-113 0 -215 -41t-179 -120t-123 -192.5t-46 -258.5zM750 1546l139 103l440 100l-143 -104z" />
<glyph unicode="&#xd4;" horiz-adv-x="1792" d="M78 709q0 137 53 274t159.5 246.5t265.5 178.5t368 69q178 0 323.5 -56.5t248.5 -155t160.5 -229t57.5 -280.5q0 -154 -58.5 -296.5t-167 -251t-264 -174t-347.5 -65.5q-186 0 -335 61.5t-251.5 164t-157.5 235.5t-55 279zM295 795q0 -141 47 -276.5t132 -240t204 -169 t262 -64.5q82 0 179.5 32t179 104.5t137 193.5t55.5 299q0 57 -7 118.5t-24 122.5q-25 84 -76 171.5t-127.5 159t-176 116.5t-222.5 45q-113 0 -215 -41t-179 -120t-123 -192.5t-46 -258.5zM563 1552l182 138l164 59l281 -131l-105 -47l-204 96z" />
<glyph unicode="&#xd5;" horiz-adv-x="1792" d="M78 709q0 137 53 274t159.5 246.5t265.5 178.5t368 69q178 0 323.5 -56.5t248.5 -155t160.5 -229t57.5 -280.5q0 -154 -58.5 -296.5t-167 -251t-264 -174t-347.5 -65.5q-186 0 -335 61.5t-251.5 164t-157.5 235.5t-55 279zM295 795q0 -141 47 -276.5t132 -240t204 -169 t262 -64.5q82 0 179.5 32t179 104.5t137 193.5t55.5 299q0 57 -7 118.5t-24 122.5q-25 84 -76 171.5t-127.5 159t-176 116.5t-222.5 45q-113 0 -215 -41t-179 -120t-123 -192.5t-46 -258.5zM561 1567l170 123q31 6 60 6q20 0 48.5 -4t53.5 -9q82 -12 135 -12q57 0 97 11.5 t85 27.5l-141 -104q-4 -2 -16.5 -4.5t-27.5 -3.5t-29.5 -2t-20.5 -1q-25 0 -44.5 3.5t-41.5 7.5q-57 12 -90 15t-56 3q-63 0 -100 -15.5t-82 -41.5z" />
<glyph unicode="&#xd6;" horiz-adv-x="1792" d="M78 709q0 137 53 274t159.5 246.5t265.5 178.5t368 69q178 0 323.5 -56.5t248.5 -155t160.5 -229t57.5 -280.5q0 -154 -58.5 -296.5t-167 -251t-264 -174t-347.5 -65.5q-186 0 -335 61.5t-251.5 164t-157.5 235.5t-55 279zM295 795q0 -141 47 -276.5t132 -240t204 -169 t262 -64.5q82 0 179.5 32t179 104.5t137 193.5t55.5 299q0 57 -7 118.5t-24 122.5q-25 84 -76 171.5t-127.5 159t-176 116.5t-222.5 45q-113 0 -215 -41t-179 -120t-123 -192.5t-46 -258.5zM545 1692q25 20 41 34.5t31.5 27.5t31 27.5t37.5 35.5q20 -25 33.5 -41.5t26 -31.5 t26.5 -30.5t33 -36.5l-38 -38t-30.5 -27.5t-31.5 -27t-41 -32.5q-23 20 -37.5 36t-26.5 30t-24.5 31.5t-30.5 42.5zM985 1700q27 20 44.5 33.5t31.5 26t29.5 25.5t37.5 32q18 -25 30.5 -40.5t24 -28.5t25 -29.5t35.5 -41.5q-23 -23 -39 -37t-31.5 -27.5t-32.5 -27t-42 -31.5 q-20 20 -33.5 36t-25 31t-23.5 32.5t-31 46.5z" />
<glyph unicode="&#xd7;" horiz-adv-x="1024" d="M123 293l303 303l-303 303l86 86l303 -303l303 303l86 -86l-303 -303l303 -303l-86 -86l-303 303l-303 -303z" />
<glyph unicode="&#xd8;" horiz-adv-x="1792" d="M72 4l217 201q-31 35 -67 80t-68.5 106.5t-54 140t-21.5 181.5q0 154 59.5 293t170 243.5t267 166t351.5 61.5q94 0 174 -15.5t146.5 -41t122.5 -60.5t104 -72l133 117l129 33l-211 -211q31 -39 63.5 -85t61 -104.5t47 -130t18.5 -159.5q0 -143 -54 -282.5t-160.5 -250.5 t-261.5 -178.5t-353 -67.5q-63 0 -139 9.5t-156 35.5q-96 31 -155.5 70t-88.5 61l-125 -106zM299 797q0 -133 33 -244t110 -215l891 817q-18 25 -39.5 49.5t-62.5 59.5q-80 68 -177.5 106.5t-203.5 38.5q-90 0 -187.5 -33t-178.5 -106.5t-133 -190t-52 -282.5zM487 266 q6 -6 12.5 -13t12.5 -15q92 -102 205.5 -148.5t224.5 -46.5q123 0 224.5 48t174 132t113.5 201t41 254q0 111 -28.5 214t-90.5 193z" />
<glyph unicode="&#xd9;" horiz-adv-x="1536" d="M-29 1368l154 78h371l-54 -45q-23 -18 -24 -39q-4 -12 -7 -65.5t-6.5 -115t-6.5 -118.5t-3 -78l-6 -205q-2 -82 -2 -147.5t4 -118.5t12.5 -99t22.5 -87q49 -137 155.5 -208t256.5 -71q55 0 107 11.5t99 37.5q109 59 166 174q41 80 52.5 182.5t17.5 237.5l6 266 q0 51 1 95.5t0 90.5t-3 99t-4 125h-233l157 78h254l-55 -47q-12 -12 -16.5 -23.5t-8.5 -52.5q0 -25 -1 -48.5t-1 -47.5l-20 -596q-4 -59 -9.5 -122t-19.5 -126.5t-40.5 -124.5t-74.5 -115q-82 -94 -200.5 -134t-243.5 -40q-96 0 -162.5 14.5t-107.5 30.5q-121 47 -186.5 121 t-95.5 153t-35 152.5t-5 120.5q0 82 2 180.5t6 237.5l4 125q0 45 1 76.5t1 59.5v57.5v70.5h-219zM350 1747l441 -98l143 -103l-445 96z" />
<glyph unicode="&#xda;" horiz-adv-x="1536" d="M-29 1368l154 78h371l-54 -45q-23 -18 -24 -39q-4 -12 -7 -65.5t-6.5 -115t-6.5 -118.5t-3 -78l-6 -205q-2 -82 -2 -147.5t4 -118.5t12.5 -99t22.5 -87q49 -137 155.5 -208t256.5 -71q55 0 107 11.5t99 37.5q109 59 166 174q41 80 52.5 182.5t17.5 237.5l6 266 q0 51 1 95.5t0 90.5t-3 99t-4 125h-233l157 78h254l-55 -47q-12 -12 -16.5 -23.5t-8.5 -52.5q0 -25 -1 -48.5t-1 -47.5l-20 -596q-4 -59 -9.5 -122t-19.5 -126.5t-40.5 -124.5t-74.5 -115q-82 -94 -200.5 -134t-243.5 -40q-96 0 -162.5 14.5t-107.5 30.5q-121 47 -186.5 121 t-95.5 153t-35 152.5t-5 120.5q0 82 2 180.5t6 237.5l4 125q0 45 1 76.5t1 59.5v57.5v70.5h-219zM623 1546l139 103l440 100l-143 -104z" />
<glyph unicode="&#xdb;" horiz-adv-x="1536" d="M-29 1368l154 78h371l-54 -45q-23 -18 -24 -39q-4 -12 -7 -65.5t-6.5 -115t-6.5 -118.5t-3 -78l-6 -205q-2 -82 -2 -147.5t4 -118.5t12.5 -99t22.5 -87q49 -137 155.5 -208t256.5 -71q55 0 107 11.5t99 37.5q109 59 166 174q41 80 52.5 182.5t17.5 237.5l6 266 q0 51 1 95.5t0 90.5t-3 99t-4 125h-233l157 78h254l-55 -47q-12 -12 -16.5 -23.5t-8.5 -52.5q0 -25 -1 -48.5t-1 -47.5l-20 -596q-4 -59 -9.5 -122t-19.5 -126.5t-40.5 -124.5t-74.5 -115q-82 -94 -200.5 -134t-243.5 -40q-96 0 -162.5 14.5t-107.5 30.5q-121 47 -186.5 121 t-95.5 153t-35 152.5t-5 120.5q0 82 2 180.5t6 237.5l4 125q0 45 1 76.5t1 59.5v57.5v70.5h-219zM479 1552l183 138l163 59l281 -131l-105 -47l-204 96z" />
<glyph unicode="&#xdc;" horiz-adv-x="1536" d="M-29 1368l154 78h371l-54 -45q-23 -18 -24 -39q-4 -12 -7 -65.5t-6.5 -115t-6.5 -118.5t-3 -78l-6 -205q-2 -82 -2 -147.5t4 -118.5t12.5 -99t22.5 -87q49 -137 155.5 -208t256.5 -71q55 0 107 11.5t99 37.5q109 59 166 174q41 80 52.5 182.5t17.5 237.5l6 266 q0 51 1 95.5t0 90.5t-3 99t-4 125h-233l157 78h254l-55 -47q-12 -12 -16.5 -23.5t-8.5 -52.5q0 -25 -1 -48.5t-1 -47.5l-20 -596q-4 -59 -9.5 -122t-19.5 -126.5t-40.5 -124.5t-74.5 -115q-82 -94 -200.5 -134t-243.5 -40q-96 0 -162.5 14.5t-107.5 30.5q-121 47 -186.5 121 t-95.5 153t-35 152.5t-5 120.5q0 82 2 180.5t6 237.5l4 125q0 45 1 76.5t1 59.5v57.5v70.5h-219zM467 1692q25 20 41 34.5t31.5 27.5t31 27.5t37.5 35.5q20 -25 33.5 -41.5t26 -31.5t27 -30.5t32.5 -36.5l-38 -38t-30.5 -27.5t-31.5 -27t-41 -32.5q-23 20 -37 36t-26.5 30 t-25 31.5t-30.5 42.5zM907 1700q27 20 44.5 33.5t31.5 26t29.5 25.5t38.5 32q18 -25 30.5 -40.5t23.5 -28.5t24.5 -29.5t35.5 -41.5q-23 -23 -39 -37t-31.5 -27.5t-32.5 -27t-42 -31.5q-20 20 -33.5 36t-25 31t-23.5 32.5t-31 46.5z" />
<glyph unicode="&#xdd;" horiz-adv-x="1280" d="M-145 1368l143 80h354l-11 -11l-15.5 -15.5l-15.5 -15.5t-7 -9q-6 -6 -6 -19q0 -12 7 -26.5t11 -24.5q14 -25 39 -64.5t80 -127.5l88 -134q6 -10 23.5 -35.5t38 -54t39 -55.5t26.5 -37q2 -4 11.5 -17.5t19.5 -28.5t18.5 -27.5t10.5 -14.5l135 193q35 55 70.5 109 t70.5 110q33 49 53.5 81.5t36 57.5t26.5 44.5t23 41.5h-250l140 80h327l-77 -57q-16 -14 -27.5 -23.5t-21 -21t-19.5 -24.5t-25 -34l-409 -622v-519q0 -35 7 -48t30 -19q29 -10 83 -16.5t117 -12.5l-92 -51h-418l46 70q12 23 14 34t4 37v453l-184 289q-45 66 -88 130 t-88 130q-8 12 -31 44t-48.5 67.5t-49 68.5t-31.5 45h-178zM494 1546l139 103l440 100l-143 -104z" />
<glyph unicode="&#xde;" horiz-adv-x="1067" d="M16 1364l156 82h352l-53 -45q-16 -12 -20.5 -21.5t-6.5 -25.5q-4 -47 -5 -91t-1 -81h176q61 0 145.5 -10.5t168.5 -65.5q70 -47 99.5 -109.5t29.5 -134.5q0 -86 -37 -150.5t-91.5 -110.5t-114.5 -76.5t-105 -49.5l-217 -39q53 16 102 37t94 55q57 41 100 110t43 167 q0 12 -5 57t-31.5 96.5t-84 97.5t-159.5 58q-35 4 -63.5 4t-51.5 -2l-2 -84q-2 -84 -3 -202.5t-2 -239.5t-1 -229.5v-172.5q0 -39 2 -62.5t11.5 -36.5t28.5 -18t56 -8l152 -8l-107 -55h-432l51 66q14 20 19.5 33.5t5.5 47.5v60.5t-1 94.5t-1 96v65q0 61 1 135t2 151.5 t2 154.5t3 143q0 16 1 62t2 98.5t3 99.5t2 65z" />
<glyph unicode="&#xdf;" horiz-adv-x="1067" d="M25 860l114 72q4 43 11.5 98t31.5 119q31 80 79 137t105.5 93t118 52.5t113.5 16.5q74 0 135.5 -25.5t105.5 -66.5t68.5 -95.5t24.5 -109.5q0 -59 -19.5 -99t-40.5 -71q-12 -10 -24 -17.5t-31.5 -17.5t-50.5 -23.5t-80 -33.5q20 -6 48 -17.5t58.5 -32t63.5 -50t64 -72.5 q45 -59 59 -115.5t14 -114.5q0 -74 -18 -141q-25 -88 -73 -159.5t-95 -122t-84 -78.5l-37 -29l-264 -113q20 12 55 35t75 54.5t81 73.5t74 95q41 66 64.5 144t23.5 149q0 72 -21.5 140.5t-62.5 121.5q-35 45 -75 76t-79 51.5t-75 30.5t-60 16l127 80q18 0 29.5 -1t22.5 -2 t22.5 -3t27.5 -4q57 70 72.5 135.5t15.5 98.5q0 51 -16 95t-45 74.5t-67 48t-81 17.5q-16 0 -38.5 -4t-46 -16.5t-46 -38t-37.5 -68.5q-16 -53 -22 -134t-8 -230v-211v-119v-161v-154.5v-98.5t3 -41t12 -22.5t26.5 -11.5t46.5 -5l108 -8l-79 -47h-363q18 23 28.5 36 t16.5 25.5t7 27.5t1 40v731h-114z" />
<glyph unicode="&#xe0;" horiz-adv-x="894" d="M9 1278l440 -100l143 -103l-444 99zM29 188q0 88 53 156t128 116t153.5 78.5t130.5 49.5l-31 90q-27 72 -52.5 111.5t-59.5 59t-81 22.5t-116 1l149 64q68 0 133.5 -5t114.5 -38q27 -18 46 -44t34.5 -61.5t31 -85t33.5 -114.5l41 -146q25 -84 46.5 -152.5t47.5 -131.5 q29 -76 52.5 -110t48.5 -64q-16 -2 -30.5 -4.5t-29.5 -2.5q-35 0 -65.5 10.5t-61.5 26.5q-51 29 -75.5 65t-38.5 64l-96 -94q-29 -16 -91.5 -45t-160.5 -29q-63 0 -111.5 17.5t-80.5 47.5t-47 67.5t-15 80.5zM227 258q0 -45 18.5 -76.5t47.5 -52t63.5 -30t67.5 -9.5 q80 0 126 31t66 51q-10 31 -17 50.5t-13 41t-13.5 48t-19.5 69.5l-18 70q-10 41 -18.5 57t-29.5 16q-16 0 -58 -18.5t-87 -52t-80 -82.5t-35 -113z" />
<glyph unicode="&#xe1;" horiz-adv-x="894" d="M29 188q0 88 53 156t128 116t153.5 78.5t130.5 49.5l-31 90q-27 72 -52.5 111.5t-59.5 59t-81 22.5t-116 1l149 64q68 0 133.5 -5t114.5 -38q27 -18 46 -44t34.5 -61.5t31 -85t33.5 -114.5l41 -146q25 -84 46.5 -152.5t47.5 -131.5q29 -76 52.5 -110t48.5 -64 q-16 -2 -30.5 -4.5t-29.5 -2.5q-35 0 -65.5 10.5t-61.5 26.5q-51 29 -75.5 65t-38.5 64l-96 -94q-29 -16 -91.5 -45t-160.5 -29q-63 0 -111.5 17.5t-80.5 47.5t-47 67.5t-15 80.5zM227 258q0 -45 18.5 -76.5t47.5 -52t63.5 -30t67.5 -9.5q80 0 126 31t66 51q-10 31 -17 50.5 t-13 41t-13.5 48t-19.5 69.5l-18 70q-10 41 -18.5 57t-29.5 16q-16 0 -58 -18.5t-87 -52t-80 -82.5t-35 -113zM281 1075l139 103l440 100l-143 -104z" />
<glyph unicode="&#xe2;" horiz-adv-x="894" d="M29 188q0 88 53 156t128 116t153.5 78.5t130.5 49.5l-31 90q-27 72 -52.5 111.5t-59.5 59t-81 22.5t-116 1l149 64q68 0 133.5 -5t114.5 -38q27 -18 46 -44t34.5 -61.5t31 -85t33.5 -114.5l41 -146q25 -84 46.5 -152.5t47.5 -131.5q29 -76 52.5 -110t48.5 -64 q-16 -2 -30.5 -4.5t-29.5 -2.5q-35 0 -65.5 10.5t-61.5 26.5q-51 29 -75.5 65t-38.5 64l-96 -94q-29 -16 -91.5 -45t-160.5 -29q-63 0 -111.5 17.5t-80.5 47.5t-47 67.5t-15 80.5zM94 1083l182 136l164 59l281 -131l-105 -45l-204 94zM227 258q0 -45 18.5 -76.5t47.5 -52 t63.5 -30t67.5 -9.5q80 0 126 31t66 51q-10 31 -17 50.5t-13 41t-13.5 48t-19.5 69.5l-18 70q-10 41 -18.5 57t-29.5 16q-16 0 -58 -18.5t-87 -52t-80 -82.5t-35 -113z" />
<glyph unicode="&#xe3;" horiz-adv-x="894" d="M29 188q0 88 53 156t128 116t153.5 78.5t130.5 49.5l-31 90q-27 72 -52.5 111.5t-59.5 59t-81 22.5t-116 1l149 64q68 0 133.5 -5t114.5 -38q27 -18 46 -44t34.5 -61.5t31 -85t33.5 -114.5l41 -146q25 -84 46.5 -152.5t47.5 -131.5q29 -76 52.5 -110t48.5 -64 q-16 -2 -30.5 -4.5t-29.5 -2.5q-35 0 -65.5 10.5t-61.5 26.5q-51 29 -75.5 65t-38.5 64l-96 -94q-29 -16 -91.5 -45t-160.5 -29q-63 0 -111.5 17.5t-80.5 47.5t-47 67.5t-15 80.5zM92 1096l170 123q31 6 59 6q20 0 49 -4t54 -9q82 -12 135 -12q57 0 97 11.5t85 27.5 l-141 -104q-4 -2 -16.5 -4.5t-28 -3.5t-29.5 -2t-20 -1q-25 0 -44.5 3t-41.5 8q-57 12 -90 15t-56 3q-63 0 -100 -15.5t-82 -41.5zM227 258q0 -45 18.5 -76.5t47.5 -52t63.5 -30t67.5 -9.5q80 0 126 31t66 51q-10 31 -17 50.5t-13 41t-13.5 48t-19.5 69.5l-18 70 q-10 41 -18.5 57t-29.5 16q-16 0 -58 -18.5t-87 -52t-80 -82.5t-35 -113z" />
<glyph unicode="&#xe4;" horiz-adv-x="894" d="M29 188q0 88 53 156t128 116t153.5 78.5t130.5 49.5l-31 90q-27 72 -52.5 111.5t-59.5 59t-81 22.5t-116 1l149 64q68 0 133.5 -5t114.5 -38q27 -18 46 -44t34.5 -61.5t31 -85t33.5 -114.5l41 -146q25 -84 46.5 -152.5t47.5 -131.5q29 -76 52.5 -110t48.5 -64 q-16 -2 -30.5 -4.5t-29.5 -2.5q-35 0 -65.5 10.5t-61.5 26.5q-51 29 -75.5 65t-38.5 64l-96 -94q-29 -16 -91.5 -45t-160.5 -29q-63 0 -111.5 17.5t-80.5 47.5t-47 67.5t-15 80.5zM104 1223q25 18 41.5 32.5t31.5 27.5t30.5 27.5t38.5 35.5q20 -25 33.5 -41.5t25.5 -30.5 t26.5 -29.5t32.5 -36.5l-38 -38t-30.5 -28.5t-31.5 -28t-41 -32.5q-23 20 -37 36t-26.5 30t-24.5 31.5t-31 44.5zM227 258q0 -45 18.5 -76.5t47.5 -52t63.5 -30t67.5 -9.5q80 0 126 31t66 51q-10 31 -17 50.5t-13 41t-13.5 48t-19.5 69.5l-18 70q-10 41 -18.5 57t-29.5 16 q-16 0 -58 -18.5t-87 -52t-80 -82.5t-35 -113zM545 1229q27 20 44 33.5t31.5 25.5t29.5 25.5t38 34.5q18 -25 30.5 -41.5t24 -29.5t24.5 -29.5t36 -41.5q-23 -23 -39.5 -37t-31.5 -26.5t-32.5 -27t-42.5 -32.5q-20 20 -33.5 36t-24.5 31t-23.5 33.5t-30.5 45.5z" />
<glyph unicode="&#xe5;" horiz-adv-x="894" d="M29 188q0 88 53 156t128 116t153.5 78.5t130.5 49.5l-31 90q-27 72 -52.5 111.5t-59.5 59t-81 22.5t-116 1l149 64q68 0 133.5 -5t114.5 -38q27 -18 46 -44t34.5 -61.5t31 -85t33.5 -114.5l41 -146q25 -84 46.5 -152.5t47.5 -131.5q29 -76 52.5 -110t48.5 -64 q-16 -2 -30.5 -4.5t-29.5 -2.5q-35 0 -65.5 10.5t-61.5 26.5q-51 29 -75.5 65t-38.5 64l-96 -94q-29 -16 -91.5 -45t-160.5 -29q-63 0 -111.5 17.5t-80.5 47.5t-47 67.5t-15 80.5zM227 258q0 -45 18.5 -76.5t47.5 -52t63.5 -30t67.5 -9.5q80 0 126 31t66 51q-10 31 -17 50.5 t-13 41t-13.5 48t-19.5 69.5l-18 70q-10 41 -18.5 57t-29.5 16q-16 0 -58 -18.5t-87 -52t-80 -82.5t-35 -113zM303 1184q0 59 42 107t114 48q37 0 65.5 -14t48 -36.5t28.5 -50.5t9 -52q0 -59 -43 -105.5t-113 -46.5q-66 0 -108.5 46t-42.5 104zM352 1188q0 -41 29.5 -74 t74.5 -33t75 32t30 75q0 39 -27.5 71.5t-74.5 32.5t-77 -32.5t-30 -71.5z" />
<glyph unicode="&#xe6;" horiz-adv-x="1366" d="M41 186q0 70 35 128.5t96 107.5t146 90t186 78l-23 74q-29 80 -55.5 121.5t-64 61t-90 22.5t-130.5 1l150 66q61 0 115.5 -2t100.5 -17.5t80 -49t56 -97.5q20 23 53 54.5t79 61t104.5 50t132.5 20.5q45 0 96 -11t99 -41t87 -80t60 -126l-463 -198l-148 -15 q10 -90 46 -164.5t90.5 -129t123 -85t144.5 -30.5q78 0 135 23.5t109 52.5l-113 -105q-31 -16 -61.5 -29.5t-63.5 -23.5q-39 -14 -77 -19.5t-72 -5.5q-70 0 -123.5 16.5t-94.5 42t-73.5 58.5t-59.5 66l-106 -105q-33 -18 -95.5 -47t-156.5 -29q-125 0 -189.5 64.5 t-64.5 150.5zM238 256q0 -74 54 -122t142 -48q82 0 129 32.5t76 61.5q-29 45 -47.5 97.5t-36.5 130.5q-16 66 -25.5 91t-35.5 25q-18 0 -60.5 -20.5t-86.5 -55t-76.5 -85t-32.5 -107.5zM733 606q0 -29 2 -56.5t6 -55.5l367 170q10 4 24.5 15t14.5 34q0 31 -15.5 62.5t-41 56 t-59.5 41t-73 16.5q-23 0 -60.5 -11.5t-74.5 -42t-63.5 -86t-26.5 -143.5z" />
<glyph unicode="&#xe7;" horiz-adv-x="811" d="M66 449q0 82 29.5 171t98 163.5t180 122.5t273.5 48q74 0 122 -8t89 -18l-162 -164l-86 -31l74 98q-23 12 -62.5 29t-103.5 17q-47 0 -96 -17.5t-89 -56.5t-65.5 -99.5t-25.5 -148.5q0 -80 23.5 -163t71.5 -152.5t124 -113.5t180 -44q86 0 145.5 24.5t110.5 53.5 l-109 -113q-16 -8 -32.5 -15t-32.5 -16q-51 -23 -92 -28.5t-62 -10.5l-47 -94q6 -4 12.5 -8t12.5 -8q35 -25 59.5 -68t24.5 -100q0 -43 -17.5 -89t-52.5 -93q-20 -25 -38.5 -41.5t-37.5 -32.5l-131 -57q23 18 48.5 41.5t47 51t36 59.5t14.5 71t-12.5 65.5t-32 45t-43 29.5 t-43.5 22q57 84 79.5 131t32.5 71q-35 4 -77 10.5t-95 30.5q-72 35 -118 89.5t-74.5 115t-39.5 120.5t-11 110z" />
<glyph unicode="&#xe8;" horiz-adv-x="894" d="M66 481q0 119 44 208t111.5 147.5t150.5 88t163 29.5q55 0 109 -14t101 -43q39 -25 64 -53.5t41 -56t24.5 -51t14.5 -42.5l-481 -194l-158 -13q18 -98 59 -173.5t97.5 -129t124 -81t141.5 -27.5q78 0 137 22.5t113 48.5l-109 -102q-16 -10 -33.5 -19.5t-34.5 -17.5 q-51 -23 -101 -31t-97 -8q-25 0 -55.5 2t-66.5 9.5t-74 23.5t-77 45q-55 39 -94 89t-64.5 107.5t-37.5 118t-12 117.5zM95 1278l440 -100l143 -103l-444 99zM242 602q0 -27 2 -53.5t4 -54.5l373 161q29 10 44 21.5t15 34.5q0 31 -16.5 62.5t-44 56t-64.5 41t-78 16.5 q-31 0 -71.5 -13.5t-76.5 -46t-61.5 -88t-25.5 -137.5z" />
<glyph unicode="&#xe9;" horiz-adv-x="894" d="M66 481q0 119 44 208t111.5 147.5t150.5 88t163 29.5q55 0 109 -14t101 -43q39 -25 64 -53.5t41 -56t24.5 -51t14.5 -42.5l-481 -194l-158 -13q18 -98 59 -173.5t97.5 -129t124 -81t141.5 -27.5q78 0 137 22.5t113 48.5l-109 -102q-16 -10 -33.5 -19.5t-34.5 -17.5 q-51 -23 -101 -31t-97 -8q-25 0 -55.5 2t-66.5 9.5t-74 23.5t-77 45q-55 39 -94 89t-64.5 107.5t-37.5 118t-12 117.5zM242 602q0 -27 2 -53.5t4 -54.5l373 161q29 10 44 21.5t15 34.5q0 31 -16.5 62.5t-44 56t-64.5 41t-78 16.5q-31 0 -71.5 -13.5t-76.5 -46t-61.5 -88 t-25.5 -137.5zM367 1075l139 103l440 100l-143 -104z" />
<glyph unicode="&#xea;" horiz-adv-x="894" d="M66 481q0 119 44 208t111.5 147.5t150.5 88t163 29.5q55 0 109 -14t101 -43q39 -25 64 -53.5t41 -56t24.5 -51t14.5 -42.5l-481 -194l-158 -13q18 -98 59 -173.5t97.5 -129t124 -81t141.5 -27.5q78 0 137 22.5t113 48.5l-109 -102q-16 -10 -33.5 -19.5t-34.5 -17.5 q-51 -23 -101 -31t-97 -8q-25 0 -55.5 2t-66.5 9.5t-74 23.5t-77 45q-55 39 -94 89t-64.5 107.5t-37.5 118t-12 117.5zM180 1083l182 136l164 59l281 -131l-105 -45l-204 94zM242 602q0 -27 2 -53.5t4 -54.5l373 161q29 10 44 21.5t15 34.5q0 31 -16.5 62.5t-44 56t-64.5 41 t-78 16.5q-31 0 -71.5 -13.5t-76.5 -46t-61.5 -88t-25.5 -137.5z" />
<glyph unicode="&#xeb;" horiz-adv-x="894" d="M66 481q0 119 44 208t111.5 147.5t150.5 88t163 29.5q55 0 109 -14t101 -43q39 -25 64 -53.5t41 -56t24.5 -51t14.5 -42.5l-481 -194l-158 -13q18 -98 59 -173.5t97.5 -129t124 -81t141.5 -27.5q78 0 137 22.5t113 48.5l-109 -102q-16 -10 -33.5 -19.5t-34.5 -17.5 q-51 -23 -101 -31t-97 -8q-25 0 -55.5 2t-66.5 9.5t-74 23.5t-77 45q-55 39 -94 89t-64.5 107.5t-37.5 118t-12 117.5zM155 1223q25 18 41.5 32.5t31.5 27.5t30.5 27.5t38.5 35.5q20 -25 33.5 -41.5t25.5 -30.5t26.5 -29.5t32.5 -36.5l-38 -38t-30.5 -28.5t-31.5 -28 t-41 -32.5q-23 20 -37 36t-26.5 30t-24.5 31.5t-31 44.5zM242 602q0 -27 2 -53.5t4 -54.5l373 161q29 10 44 21.5t15 34.5q0 31 -16.5 62.5t-44 56t-64.5 41t-78 16.5q-31 0 -71.5 -13.5t-76.5 -46t-61.5 -88t-25.5 -137.5zM596 1229q27 20 44 33.5t31.5 25.5t29.5 25.5 t38 34.5q18 -25 30.5 -41.5t24 -29.5t24.5 -29.5t36 -41.5q-23 -23 -39.5 -37t-31.5 -26.5t-32.5 -27t-42.5 -32.5q-20 20 -33.5 36t-24.5 31t-23.5 33.5t-30.5 45.5z" />
<glyph unicode="&#xec;" d="M-159 1278l440 -100l143 -103l-444 99z" />
<glyph unicode="&#xed;" d="M111 1075l139 103l440 100l-143 -104z" />
<glyph unicode="&#xee;" d="M-53 1083l182 136l164 59l281 -131l-105 -45l-204 94z" />
<glyph unicode="&#xef;" d="M-78 1223q25 18 41.5 32.5t31.5 27.5t30.5 27.5t38.5 35.5q20 -25 33.5 -41.5t25.5 -30.5t26.5 -29.5t32.5 -36.5l-38 -38t-30.5 -28.5t-31.5 -28t-41 -32.5q-23 20 -37 36t-26.5 30t-24.5 31.5t-31 44.5zM363 1229q27 20 44 33.5t31.5 25.5t29.5 25.5t38 34.5 q18 -25 30.5 -41.5t24 -29.5t24.5 -29.5t36 -41.5q-23 -23 -39.5 -37t-31.5 -26.5t-32.5 -27t-42.5 -32.5q-20 20 -33.5 36t-24.5 31t-23.5 33.5t-30.5 45.5z" />
<glyph unicode="&#xf0;" horiz-adv-x="1110" d="M68 459q0 111 37.5 202t105.5 156.5t159 101t197 35.5q47 0 92.5 -7t85.5 -34q-8 20 -22 52t-35.5 69t-50.5 76t-64 72l-374 -133l57 92l260 94q-23 18 -83 62t-171 96l180 65q66 -35 126.5 -76t115.5 -88l264 95l-55 -93l-154 -53q14 -14 43 -45t63 -76t68.5 -105.5 t63.5 -133.5q27 -72 45 -161t18 -187q0 -111 -29.5 -212.5t-89 -179t-149.5 -124t-213 -46.5q-117 0 -208 38t-153.5 104.5t-96 154.5t-33.5 189zM279 471q0 -203 73.5 -320.5t208.5 -117.5q31 0 55.5 6t42.5 14q35 16 72 55t64 107q25 61 32 130t7 122q0 29 -2.5 64.5 t-7.5 72.5t-12 73t-19 66q-4 12 -16.5 37t-37 50.5t-64.5 45t-102 19.5q-59 0 -101 -17.5t-70.5 -42t-46 -51t-25.5 -43.5q-35 -66 -43 -141.5t-8 -128.5z" />
<glyph unicode="&#xf1;" horiz-adv-x="1150" d="M16 866l138 64h245q-14 -16 -22 -28.5t-11.5 -28t-4.5 -39t-1 -60.5q35 35 62 60.5t55 46.5q45 33 106.5 57.5t133.5 24.5q86 0 149.5 -38t94.5 -102q27 -53 30.5 -117.5t3.5 -130.5l-10 -421q0 -55 8 -70.5t49 -20.5l127 -14l-86 -49h-342q29 31 38 53.5t12 67.5l8 350 q0 76 -1 125t-5.5 84t-15.5 58.5t-29 47.5q-12 18 -43 39t-84 21q-39 0 -70 -12.5t-54.5 -27.5t-40 -31.5t-22.5 -24.5q-12 -12 -34.5 -42t-41.5 -55l-12 -483q0 -35 1 -54.5t7 -30.5t20.5 -16.5t39.5 -7.5l118 -12l-83 -49h-345q18 18 29.5 31.5t18 29t8.5 35t2 49.5 q0 180 2 360.5t6 360.5h-154zM244 1096l170 123q31 6 59 6q20 0 49 -4t54 -9q82 -12 135 -12q57 0 97 11.5t85 27.5l-141 -104q-4 -2 -16.5 -4.5t-28 -3.5t-29.5 -2t-20 -1q-25 0 -44.5 3t-41.5 8q-57 12 -90 15t-56 3q-63 0 -100 -15.5t-82 -41.5z" />
<glyph unicode="&#xf2;" horiz-adv-x="1150" d="M66 457q0 100 38.5 190t109.5 158.5t168 108.5t214 40q113 0 204 -41t154.5 -108.5t97 -154.5t33.5 -179q0 -90 -34.5 -179t-100 -160t-163 -115t-222.5 -44q-123 0 -216 43t-155.5 113t-95 156t-32.5 172zM160 1278l440 -100l143 -103l-444 99zM264 571q0 -76 19.5 -169 t61.5 -175t108.5 -137t158.5 -55q59 0 116.5 27.5t92.5 76.5q37 49 49.5 108.5t12.5 119.5q0 68 -17.5 157.5t-57.5 171.5t-105.5 138.5t-159.5 56.5q-51 0 -99.5 -18.5t-85.5 -51.5q-59 -53 -76.5 -118.5t-17.5 -131.5z" />
<glyph unicode="&#xf3;" horiz-adv-x="1150" d="M66 457q0 100 38.5 190t109.5 158.5t168 108.5t214 40q113 0 204 -41t154.5 -108.5t97 -154.5t33.5 -179q0 -90 -34.5 -179t-100 -160t-163 -115t-222.5 -44q-123 0 -216 43t-155.5 113t-95 156t-32.5 172zM264 571q0 -76 19.5 -169t61.5 -175t108.5 -137t158.5 -55 q59 0 116.5 27.5t92.5 76.5q37 49 49.5 108.5t12.5 119.5q0 68 -17.5 157.5t-57.5 171.5t-105.5 138.5t-159.5 56.5q-51 0 -99.5 -18.5t-85.5 -51.5q-59 -53 -76.5 -118.5t-17.5 -131.5zM465 1075l139 103l440 100l-143 -104z" />
<glyph unicode="&#xf4;" horiz-adv-x="1150" d="M66 457q0 100 38.5 190t109.5 158.5t168 108.5t214 40q113 0 204 -41t154.5 -108.5t97 -154.5t33.5 -179q0 -90 -34.5 -179t-100 -160t-163 -115t-222.5 -44q-123 0 -216 43t-155.5 113t-95 156t-32.5 172zM246 1083l182 136l164 59l281 -131l-105 -45l-204 94zM264 571 q0 -76 19.5 -169t61.5 -175t108.5 -137t158.5 -55q59 0 116.5 27.5t92.5 76.5q37 49 49.5 108.5t12.5 119.5q0 68 -17.5 157.5t-57.5 171.5t-105.5 138.5t-159.5 56.5q-51 0 -99.5 -18.5t-85.5 -51.5q-59 -53 -76.5 -118.5t-17.5 -131.5z" />
<glyph unicode="&#xf5;" horiz-adv-x="1150" d="M66 457q0 100 38.5 190t109.5 158.5t168 108.5t214 40q113 0 204 -41t154.5 -108.5t97 -154.5t33.5 -179q0 -90 -34.5 -179t-100 -160t-163 -115t-222.5 -44q-123 0 -216 43t-155.5 113t-95 156t-32.5 172zM244 1096l170 123q31 6 59 6q20 0 49 -4t54 -9q82 -12 135 -12 q57 0 97 11.5t85 27.5l-141 -104q-4 -2 -16.5 -4.5t-28 -3.5t-29.5 -2t-20 -1q-25 0 -44.5 3t-41.5 8q-57 12 -90 15t-56 3q-63 0 -100 -15.5t-82 -41.5zM264 571q0 -76 19.5 -169t61.5 -175t108.5 -137t158.5 -55q59 0 116.5 27.5t92.5 76.5q37 49 49.5 108.5t12.5 119.5 q0 68 -17.5 157.5t-57.5 171.5t-105.5 138.5t-159.5 56.5q-51 0 -99.5 -18.5t-85.5 -51.5q-59 -53 -76.5 -118.5t-17.5 -131.5z" />
<glyph unicode="&#xf6;" horiz-adv-x="1150" d="M66 457q0 100 38.5 190t109.5 158.5t168 108.5t214 40q113 0 204 -41t154.5 -108.5t97 -154.5t33.5 -179q0 -90 -34.5 -179t-100 -160t-163 -115t-222.5 -44q-123 0 -216 43t-155.5 113t-95 156t-32.5 172zM221 1223q25 18 41.5 32.5t31.5 27.5t30.5 27.5t38.5 35.5 q20 -25 33.5 -41.5t25.5 -30.5t26.5 -29.5t32.5 -36.5l-38 -38t-30.5 -28.5t-31.5 -28t-41 -32.5q-23 20 -37 36t-26.5 30t-24.5 31.5t-31 44.5zM264 571q0 -76 19.5 -169t61.5 -175t108.5 -137t158.5 -55q59 0 116.5 27.5t92.5 76.5q37 49 49.5 108.5t12.5 119.5 q0 68 -17.5 157.5t-57.5 171.5t-105.5 138.5t-159.5 56.5q-51 0 -99.5 -18.5t-85.5 -51.5q-59 -53 -76.5 -118.5t-17.5 -131.5zM662 1229q27 20 44 33.5t31.5 25.5t29.5 25.5t38 34.5q18 -25 30.5 -41.5t24 -29.5t24.5 -29.5t36 -41.5q-23 -23 -39.5 -37t-31.5 -26.5 t-32.5 -27t-42.5 -32.5q-20 20 -33.5 36t-24.5 31t-23.5 33.5t-30.5 45.5z" />
<glyph unicode="&#xf7;" horiz-adv-x="1024" d="M0 535v120h1024v-120h-1024zM422 326q0 39 25.5 67.5t66.5 28.5q31 0 63.5 -22.5t32.5 -71.5q0 -47 -30.5 -69.5t-59.5 -22.5q-41 0 -69.5 24.5t-28.5 65.5zM422 860q0 47 31.5 70.5t60.5 23.5q47 0 71.5 -28.5t24.5 -64.5t-23.5 -64.5t-70.5 -28.5q-37 0 -65.5 24.5 t-28.5 67.5z" />
<glyph unicode="&#xf8;" horiz-adv-x="1150" d="M49 0l135 135q-53 70 -83.5 152t-30.5 172q0 102 41 192t111.5 158t166.5 106.5t209 38.5q88 0 166 -26q59 -20 91 -43t56 -43l80 73l109 17l-137 -139q119 -139 118 -328q0 -104 -40 -195.5t-108.5 -158t-163.5 -104.5t-206 -38q-115 0 -187.5 32t-142.5 85l-75 -72z M262 561q0 -96 21.5 -169t42.5 -122l462 453q-16 31 -40.5 66.5t-77.5 66.5q-61 33 -127 33q-57 0 -113.5 -25.5t-93.5 -66.5q-41 -47 -57.5 -108.5t-16.5 -127.5zM356 205q16 -27 42 -64t75 -69q31 -18 66.5 -29.5t74.5 -11.5q59 0 114.5 26.5t92.5 73.5q25 31 38 64.5 t19.5 65.5t7.5 58.5t1 42.5q0 109 -23.5 180.5t-42.5 112.5z" />
<glyph unicode="&#xf9;" horiz-adv-x="1150" d="M-16 858l135 70h276q-18 -23 -28.5 -39.5t-15.5 -33.5t-7 -40.5t-2 -62.5l-2 -181v-136t1 -80.5t2 -46t3 -29.5q2 -18 8 -48t26.5 -60t60.5 -50.5t112 -20.5q80 0 137.5 25t102.5 53q0 188 2 356t6 324h-156l123 70h274q-18 -20 -27 -35.5t-14.5 -31t-7.5 -36t-2 -51.5 l-4 -295q0 -31 -1 -67.5t-1 -70.5t1 -63.5t1 -48.5q2 -41 7 -74.5t21.5 -58t47.5 -39t84 -14.5q20 0 41.5 1t38.5 3l-74 -47q-4 -2 -55 -16.5t-111 -14.5q-59 0 -95 17.5t-57.5 41t-29.5 47t-12 38.5q-6 -4 -19.5 -14.5t-30 -20.5t-31 -20.5t-20.5 -14.5 q-51 -33 -108.5 -52.5t-132.5 -19.5q-96 0 -172 39t-109 129q-4 12 -9 29.5t-8 50.5t-5.5 88t-2.5 146q0 59 3.5 168.5t9.5 236.5h-174zM160 1278l440 -100l143 -103l-444 99z" />
<glyph unicode="&#xfa;" horiz-adv-x="1150" d="M-16 858l135 70h276q-18 -23 -28.5 -39.5t-15.5 -33.5t-7 -40.5t-2 -62.5l-2 -181v-136t1 -80.5t2 -46t3 -29.5q2 -18 8 -48t26.5 -60t60.5 -50.5t112 -20.5q80 0 137.5 25t102.5 53q0 188 2 356t6 324h-156l123 70h274q-18 -20 -27 -35.5t-14.5 -31t-7.5 -36t-2 -51.5 l-4 -295q0 -31 -1 -67.5t-1 -70.5t1 -63.5t1 -48.5q2 -41 7 -74.5t21.5 -58t47.5 -39t84 -14.5q20 0 41.5 1t38.5 3l-74 -47q-4 -2 -55 -16.5t-111 -14.5q-59 0 -95 17.5t-57.5 41t-29.5 47t-12 38.5q-6 -4 -19.5 -14.5t-30 -20.5t-31 -20.5t-20.5 -14.5 q-51 -33 -108.5 -52.5t-132.5 -19.5q-96 0 -172 39t-109 129q-4 12 -9 29.5t-8 50.5t-5.5 88t-2.5 146q0 59 3.5 168.5t9.5 236.5h-174zM432 1075l139 103l440 100l-143 -104z" />
<glyph unicode="&#xfb;" horiz-adv-x="1150" d="M-16 858l135 70h276q-18 -23 -28.5 -39.5t-15.5 -33.5t-7 -40.5t-2 -62.5l-2 -181v-136t1 -80.5t2 -46t3 -29.5q2 -18 8 -48t26.5 -60t60.5 -50.5t112 -20.5q80 0 137.5 25t102.5 53q0 188 2 356t6 324h-156l123 70h274q-18 -20 -27 -35.5t-14.5 -31t-7.5 -36t-2 -51.5 l-4 -295q0 -31 -1 -67.5t-1 -70.5t1 -63.5t1 -48.5q2 -41 7 -74.5t21.5 -58t47.5 -39t84 -14.5q20 0 41.5 1t38.5 3l-74 -47q-4 -2 -55 -16.5t-111 -14.5q-59 0 -95 17.5t-57.5 41t-29.5 47t-12 38.5q-6 -4 -19.5 -14.5t-30 -20.5t-31 -20.5t-20.5 -14.5 q-51 -33 -108.5 -52.5t-132.5 -19.5q-96 0 -172 39t-109 129q-4 12 -9 29.5t-8 50.5t-5.5 88t-2.5 146q0 59 3.5 168.5t9.5 236.5h-174zM268 1083l182 136l164 59l281 -131l-105 -45l-204 94z" />
<glyph unicode="&#xfc;" horiz-adv-x="1150" d="M-16 858l135 70h276q-18 -23 -28.5 -39.5t-15.5 -33.5t-7 -40.5t-2 -62.5l-2 -181v-136t1 -80.5t2 -46t3 -29.5q2 -18 8 -48t26.5 -60t60.5 -50.5t112 -20.5q80 0 137.5 25t102.5 53q0 188 2 356t6 324h-156l123 70h274q-18 -20 -27 -35.5t-14.5 -31t-7.5 -36t-2 -51.5 l-4 -295q0 -31 -1 -67.5t-1 -70.5t1 -63.5t1 -48.5q2 -41 7 -74.5t21.5 -58t47.5 -39t84 -14.5q20 0 41.5 1t38.5 3l-74 -47q-4 -2 -55 -16.5t-111 -14.5q-59 0 -95 17.5t-57.5 41t-29.5 47t-12 38.5q-6 -4 -19.5 -14.5t-30 -20.5t-31 -20.5t-20.5 -14.5 q-51 -33 -108.5 -52.5t-132.5 -19.5q-96 0 -172 39t-109 129q-4 12 -9 29.5t-8 50.5t-5.5 88t-2.5 146q0 59 3.5 168.5t9.5 236.5h-174zM211 1223q25 18 41.5 32.5t31.5 27.5t30.5 27.5t38.5 35.5q20 -25 33.5 -41.5t25.5 -30.5t26.5 -29.5t32.5 -36.5l-38 -38t-30.5 -28.5 t-31.5 -28t-41 -32.5q-23 20 -37 36t-26.5 30t-24.5 31.5t-31 44.5zM652 1229q27 20 44 33.5t31.5 25.5t29.5 25.5t38 34.5q18 -25 30.5 -41.5t24 -29.5t24.5 -29.5t36 -41.5q-23 -23 -39.5 -37t-31.5 -26.5t-32.5 -27t-42.5 -32.5q-20 20 -33.5 36t-24.5 31t-23.5 33.5 t-30.5 45.5z" />
<glyph unicode="&#xfd;" horiz-adv-x="894" d="M-94 860l127 68h250q-16 -33 -19.5 -42t-3.5 -20q0 -18 11.5 -55t19.5 -59q16 -47 29.5 -92.5t27.5 -90.5l113 -336q12 -37 21.5 -62.5t21.5 -57.5l84 200q29 72 56.5 142.5t55.5 142.5q29 76 49.5 135.5t34.5 126.5h-190l121 68h211q-12 -16 -20.5 -25.5t-14.5 -19 t-11.5 -21.5t-13.5 -33q-37 -98 -63.5 -167.5t-49 -127t-43 -110.5t-48 -118.5t-63.5 -151.5t-87 -209q-39 -92 -76 -182.5t-76 -182.5q-2 -8 -4 -15t-2 -16q0 -18 23 -28q12 -4 37.5 -8.5t93.5 -10.5l-82 -43h-246q12 12 22.5 23.5t19.5 26t19.5 35t26.5 50.5l131 277 q12 27 21.5 45t15.5 31.5t12.5 27t12.5 29.5l-103 -33q-29 74 -62.5 170.5t-64 186.5t-54 158.5t-30.5 86.5q-25 76 -39 121t-24 74t-17.5 48.5t-15.5 43.5h-145zM303 1075l139 103l440 100l-143 -104z" />
<glyph unicode="&#xfe;" horiz-adv-x="1110" d="M20 1376l150 70h279q-16 -10 -32 -19.5t-26 -23.5q-14 -16 -17 -38t-5 -50l-17 -545q68 47 109 75.5t68.5 47t51 30t54.5 23.5q10 2 19.5 2h19.5q61 0 125.5 -19.5t119 -64.5t89 -120.5t34.5 -186.5q0 -145 -53 -250.5t-125 -171.5q-61 -53 -123.5 -82.5t-129 -44 t-135 -17.5t-138.5 -3l-12 -369q-2 -31 0 -49.5t9 -27.5t22.5 -14t39.5 -7q25 -4 48.5 -5t48.5 -5l-72 -48h-369q43 29 54.5 39.5t15.5 22.5q4 8 7 31.5t4 54.5t2 66.5t1 68.5q0 59 2 120.5t4 121.5l9 557q2 123 3 201.5t2 144t3 134.5t6 173q2 45 2 89t2 89h-150zM338 14 l106 68q57 0 108.5 1t94.5 8t80 23.5t68 45.5q47 45 66.5 106.5t19.5 126.5q0 102 -29 181t-73 132.5t-96 81t-101 27.5q-57 0 -99.5 -26.5t-76.5 -57.5l-56 -43q0 -25 -1 -76t-2 -117.5t-2 -139t-3 -140.5t-3 -121t-1 -80z" />
<glyph unicode="&#xff;" horiz-adv-x="894" d="M-94 860l127 68h250q-16 -33 -19.5 -42t-3.5 -20q0 -18 11.5 -55t19.5 -59q16 -47 29.5 -92.5t27.5 -90.5l113 -336q12 -37 21.5 -62.5t21.5 -57.5l84 200q29 72 56.5 142.5t55.5 142.5q29 76 49.5 135.5t34.5 126.5h-190l121 68h211q-12 -16 -20.5 -25.5t-14.5 -19 t-11.5 -21.5t-13.5 -33q-37 -98 -63.5 -167.5t-49 -127t-43 -110.5t-48 -118.5t-63.5 -151.5t-87 -209q-39 -92 -76 -182.5t-76 -182.5q-2 -8 -4 -15t-2 -16q0 -18 23 -28q12 -4 37.5 -8.5t93.5 -10.5l-82 -43h-246q12 12 22.5 23.5t19.5 26t19.5 35t26.5 50.5l131 277 q12 27 21.5 45t15.5 31.5t12.5 27t12.5 29.5l-103 -33q-29 74 -62.5 170.5t-64 186.5t-54 158.5t-30.5 86.5q-25 76 -39 121t-24 74t-17.5 48.5t-15.5 43.5h-145zM112 1223q25 18 41.5 32.5t31.5 27.5t30.5 27.5t38.5 35.5q20 -25 33.5 -41.5t25.5 -30.5t26.5 -29.5 t32.5 -36.5l-38 -38t-30.5 -28.5t-31.5 -28t-41 -32.5q-23 20 -37 36t-26.5 30t-24.5 31.5t-31 44.5zM553 1229q27 20 44 33.5t31.5 25.5t29.5 25.5t38 34.5q18 -25 30.5 -41.5t24 -29.5t24.5 -29.5t36 -41.5q-23 -23 -39.5 -37t-31.5 -26.5t-32.5 -27t-42.5 -32.5 q-20 20 -33.5 36t-24.5 31t-23.5 33.5t-30.5 45.5z" />
<glyph unicode="&#x152;" horiz-adv-x="2091" d="M78 713q0 166 65.5 310t184.5 249q113 98 265 151.5t312 53.5q41 0 81 -4.5t81 -8.5t81 -10t81 -6h776l-133 -133l-55 -6q6 10 15 22t11 15q0 4 1 5t1 5q0 10 -8 12t-12 2q-10 0 -33 1t-49.5 2t-51 1h-36.5l-225 2l-7 -303q-2 -49 -3 -84t-1 -64.5v-60v-71.5h465 l-119 -109l-57 -14q6 8 14.5 18t8.5 12q2 2 2 9q0 12 -9.5 14t-15.5 2h-233q-41 0 -51.5 -14.5t-10.5 -42.5l4 -498q0 -29 5 -49.5t28 -32.5t70 -17t133 -5q49 0 98 2t96 8q76 10 114 24.5t69 30.5l110 39l-190 -170h-750q-25 0 -40 -1t-29.5 -2t-33 -4t-48.5 -9 q-43 -10 -86 -13.5t-89 -3.5q-197 0 -346 64.5t-248.5 169t-150.5 238.5t-51 274zM301 791q0 -63 9 -128t32 -131q25 -74 74 -159.5t123.5 -157.5t175 -120t225.5 -48q31 0 62.5 4t62.5 11.5t57.5 18.5t42.5 25q23 18 27 39t8 50q0 14 1 53t1 83v84v60q0 88 1 150.5t1 112.5 t1 94.5t2 94.5t3 113.5t4 153.5q0 51 -1 70.5t-11 35.5q-12 20 -42 39t-71.5 33t-93 21.5t-106.5 7.5q-143 0 -253 -46t-184.5 -128t-112.5 -193.5t-38 -242.5z" />
<glyph unicode="&#x153;" horiz-adv-x="1662" d="M66 457q0 106 40.5 197t112.5 158t169 104.5t208 37.5q106 0 203 -39q80 -33 117.5 -71.5t60.5 -69.5q16 23 58 64t114 75q92 43 194 43q76 0 133.5 -23.5t98.5 -60t66.5 -84t39.5 -92.5l-464 -196l-148 -13q8 -39 18.5 -76.5t32.5 -88.5q61 -129 158.5 -187.5 t196.5 -58.5q78 0 134 23.5t99 45.5l-102 -96q-27 -12 -52.5 -23.5t-54.5 -21.5q-80 -31 -170 -31q-80 0 -140.5 22.5t-103.5 53.5t-69.5 61.5t-38.5 49.5q-78 -80 -172 -135.5t-238 -55.5q-127 0 -221 44t-156.5 115t-93 158t-30.5 171zM262 571q0 -47 8.5 -105 t25.5 -118.5t45 -117t68 -101.5t90 -71.5t115 -26.5q8 0 52.5 6t91.5 36.5t86 97t39 189.5q0 37 -6.5 90.5t-22.5 113t-42 117.5t-63.5 105.5t-90 76t-119.5 28.5q-53 0 -107.5 -23.5t-89.5 -60.5q-29 -29 -45 -62.5t-23.5 -65.5t-9.5 -60.5t-2 -47.5zM1059 600q0 -29 3 -51 t7 -51l176 82t178 79q23 10 37.5 21.5t14.5 34.5q0 20 -12.5 50t-37 57.5t-60.5 48t-83 20.5q-27 0 -64.5 -12.5t-73.5 -45t-60.5 -89t-24.5 -144.5z" />
<glyph unicode="&#x178;" horiz-adv-x="1280" d="M-145 1368l143 80h354l-11 -11l-15.5 -15.5l-15.5 -15.5t-7 -9q-6 -6 -6 -19q0 -12 7 -26.5t11 -24.5q14 -25 39 -64.5t80 -127.5l88 -134q6 -10 23.5 -35.5t38 -54t39 -55.5t26.5 -37q2 -4 11.5 -17.5t19.5 -28.5t18.5 -27.5t10.5 -14.5l135 193q35 55 70.5 109 t70.5 110q33 49 53.5 81.5t36 57.5t26.5 44.5t23 41.5h-250l140 80h327l-77 -57q-16 -14 -27.5 -23.5t-21 -21t-19.5 -24.5t-25 -34l-409 -622v-519q0 -35 7 -48t30 -19q29 -10 83 -16.5t117 -12.5l-92 -51h-418l46 70q12 23 14 34t4 37v453l-184 289q-45 66 -88 130 t-88 130q-8 12 -31 44t-48.5 67.5t-49 68.5t-31.5 45h-178zM326 1692q25 20 41 34.5t31.5 27.5t30.5 27.5t38 35.5q20 -25 33.5 -41.5t26 -31.5t26.5 -30.5t33 -36.5q-23 -23 -38.5 -38t-30.5 -27.5t-31.5 -27t-41.5 -32.5q-23 20 -37 36t-26 30t-24.5 31.5t-30.5 42.5z M766 1700q27 20 44 33.5t31.5 26t30 25.5t37.5 32q18 -25 30.5 -40.5t24 -28.5t24.5 -29.5t36 -41.5q-23 -23 -39 -37t-31.5 -27.5t-32.5 -27t-42 -31.5q-20 20 -34 36t-25 31t-23.5 32.5t-30.5 46.5z" />
<glyph unicode="&#x2c6;" d="M-35 1083l182 136l164 59l281 -131l-105 -45l-204 94z" />
<glyph unicode="&#x2dc;" d="M-47 1096l170 123q31 6 59 6q20 0 49 -4t54 -9q82 -12 135 -12q57 0 97 11.5t85 27.5l-141 -104q-4 -2 -16.5 -4.5t-28 -3.5t-29.5 -2t-20 -1q-25 0 -44.5 3t-41.5 8q-57 12 -90 15t-56 3q-63 0 -100 -15.5t-82 -41.5z" />
<glyph unicode="&#x2000;" horiz-adv-x="908" />
<glyph unicode="&#x2001;" horiz-adv-x="1817" />
<glyph unicode="&#x2002;" horiz-adv-x="908" />
<glyph unicode="&#x2003;" horiz-adv-x="1817" />
<glyph unicode="&#x2004;" horiz-adv-x="605" />
<glyph unicode="&#x2005;" horiz-adv-x="454" />
<glyph unicode="&#x2006;" horiz-adv-x="302" />
<glyph unicode="&#x2007;" horiz-adv-x="302" />
<glyph unicode="&#x2008;" horiz-adv-x="227" />
<glyph unicode="&#x2009;" horiz-adv-x="363" />
<glyph unicode="&#x200a;" horiz-adv-x="100" />
<glyph unicode="&#x2010;" horiz-adv-x="811" d="M51 492l154 86h555l-154 -86h-555z" />
<glyph unicode="&#x2011;" horiz-adv-x="811" d="M51 492l154 86h555l-154 -86h-555z" />
<glyph unicode="&#x2012;" horiz-adv-x="811" d="M51 492l154 86h555l-154 -86h-555z" />
<glyph unicode="&#x2013;" horiz-adv-x="980" d="M25 492l155 86h862l-147 -86h-870z" />
<glyph unicode="&#x2014;" horiz-adv-x="1323" d="M25 492l155 86h1118l-147 -86h-1126z" />
<glyph unicode="&#x2018;" d="M162 1053q0 25 10 52.5t25.5 55t32 53t30.5 46.5q6 6 24.5 32.5t39 55t38 52t21.5 25.5l98 45l-41 -61q-23 -35 -46 -72t-44 -73q-23 -41 -28 -62.5t-5 -32.5q0 -20 9.5 -33.5t17.5 -21.5q2 -4 11.5 -14t19.5 -21.5t19 -21.5t14 -15q-25 -20 -41.5 -35.5t-32 -28.5 t-31.5 -28.5t-41 -38.5q-59 61 -79.5 87t-20.5 55z" />
<glyph unicode="&#x2019;" d="M74 911l39 60q23 37 46 72.5t44 74.5q23 41 28 62.5t5 31.5q0 20 -9.5 34t-15.5 22q-4 4 -13.5 14t-19.5 21.5t-19 21.5t-14 14q25 20 41.5 35t31.5 29t31.5 29.5t41.5 37.5q31 -31 50 -52t30.5 -36.5t15.5 -27t4 -25.5q0 -25 -10 -52.5t-25.5 -55t-32 -53t-30.5 -46.5 q-6 -6 -24.5 -32.5t-39 -56t-38 -53.5t-19.5 -24z" />
<glyph unicode="&#x201a;" horiz-adv-x="512" d="M37 -303q61 84 113.5 163t52.5 132q0 12 -2 21.5t-11.5 22.5t-27 33.5t-45.5 53.5q49 45 81.5 73.5t63.5 57.5q33 -37 52.5 -59.5t28.5 -37t11 -25.5t2 -30q0 -39 -33.5 -99t-73.5 -118.5t-75 -101.5l-35 -43z" />
<glyph unicode="&#x201c;" horiz-adv-x="811" d="M104 1063q0 37 30 92t68 110.5t72.5 100.5t47.5 59l102 45q-31 -41 -60.5 -82.5t-53 -79.5t-38 -73t-14.5 -61q0 -12 2 -21.5t11.5 -23t26.5 -34t46 -53.5q-51 -45 -81 -72.5t-64 -58.5q-33 37 -52.5 58.5t-28.5 37t-11.5 28t-2.5 28.5zM451 1063q0 29 20 67 q18 39 52 88.5t67 93.5t58 74l24 31l104 49l-37 -53q-16 -23 -38.5 -53.5t-43 -64t-35 -67.5t-14.5 -59q0 -20 7.5 -32.5t15.5 -22.5q12 -16 29.5 -36.5t29.5 -37.5q-35 -29 -64.5 -55.5t-80.5 -73.5q-31 37 -50.5 59.5t-28.5 38t-12 27t-3 27.5z" />
<glyph unicode="&#x201d;" horiz-adv-x="811" d="M33 915l37 52q16 20 38.5 52t43 65.5t35 67.5t14.5 60q0 20 -7.5 32.5t-15.5 23.5q-12 16 -29.5 35.5t-29.5 35.5q25 20 40 35t29.5 28t32 28.5t43.5 39.5q33 -37 51.5 -60.5t27.5 -38.5t12 -26.5t3 -27.5q0 -29 -20 -68q-18 -37 -52 -87t-67 -94t-57 -74l-25 -31z M385 913q61 84 113.5 163t52.5 132q0 12 -2 21.5t-11.5 23t-26.5 34t-46 52.5q49 45 82 74t63 57q33 -37 52.5 -59t28.5 -36.5t11.5 -26t2.5 -29.5q0 -39 -34 -99.5t-75 -119t-75 -101.5l-34 -43z" />
<glyph unicode="&#x201e;" horiz-adv-x="811" d="M33 -299l37 51q16 20 38.5 52t43 66t35 67.5t14.5 60.5q0 20 -7.5 32.5t-15.5 22.5q-12 16 -29.5 36t-29.5 36q25 20 40 34.5t29.5 28t32 28.5t43.5 40q33 -37 51.5 -60.5t27.5 -39t12 -26.5t3 -28q0 -29 -20 -67q-18 -37 -52 -86t-67 -94t-57 -76l-25 -31zM385 -303 q61 84 113.5 163t52.5 132q0 12 -2 21.5t-11.5 22.5t-26.5 33.5t-46 53.5q49 45 82 73.5t63 57.5q33 -37 52.5 -59.5t28.5 -37t11.5 -25.5t2.5 -30q0 -39 -34 -99t-75 -118.5t-75 -101.5l-34 -43z" />
<glyph unicode="&#x2022;" horiz-adv-x="681" d="M96 723q0 43 16.5 87t49.5 79t78 56.5t104 21.5q53 0 98 -19.5t77 -53.5t49.5 -77t17.5 -92t-17.5 -94t-48.5 -79t-75 -53.5t-97 -19.5q-57 0 -103 19.5t-79 53.5t-51.5 78t-18.5 93z" />
<glyph unicode="&#x2026;" horiz-adv-x="2048" d="M203 117l90 80l61 61l45 -57l82 -84q-20 -23 -35.5 -39.5t-32 -31.5t-37 -31.5t-46.5 -39.5q-20 18 -32.5 31.5t-25 28t-29 33t-40.5 49.5zM885 117l90 80l61 61l45 -57l82 -84q-20 -23 -35.5 -39.5t-32 -31.5t-37 -31.5t-46.5 -39.5q-20 18 -32.5 31.5t-25 28t-29 33 t-40.5 49.5zM1567 117l90 80l61 61l45 -57l82 -84q-20 -23 -35.5 -39.5t-32 -31.5t-37 -31.5t-46.5 -39.5q-20 18 -32.5 31.5t-25 28t-29 33t-40.5 49.5z" />
<glyph unicode="&#x202f;" horiz-adv-x="363" />
<glyph unicode="&#x2039;" d="M41 532l418 396l55 -56l-358 -340l356 -348l-61 -53z" />
<glyph unicode="&#x203a;" d="M41 186l358 338l-356 350l55 54l418 -404l-416 -391z" />
<glyph unicode="&#x205f;" horiz-adv-x="454" />
<glyph unicode="&#x2122;" horiz-adv-x="1579" d="M45 1272q2 25 3 44t2 37.5t2 40t1 52.5h576q0 -31 1 -52.5t2 -40t2 -38t3 -43.5h-62q-14 41 -24 62.5t-26.5 31.5t-43 12t-75.5 2v-454q0 -43 2 -56.5t10 -21.5q10 -10 27.5 -12t52.5 -7v-63q-49 2 -76 3t-42 1h-22.5h-17.5h-17.5h-22.5t-42 -1t-76 -3v63q33 2 52.5 5.5 t28.5 12.5t11 27.5t2 51.5v454q-49 0 -75.5 -2t-43 -12t-26.5 -31.5t-25 -62.5h-61zM696 766v63q25 4 40.5 8.5t22.5 13.5t10 27.5t3 53.5v428q-14 16 -31.5 19t-33.5 5v64q25 -2 49 -2h49h46t46 2l207 -508l213 506h48h41.5t44.5 1t58 1v-64q-31 -2 -46 -6t-23 -16 t-9 -33.5t-1 -56.5v-340q0 -51 1 -63.5t7 -20.5q6 -10 18 -12t41 -7v-63q-31 2 -63.5 3t-67.5 1q-31 0 -62.5 -1t-64.5 -3v63q35 4 50.5 10.5t17.5 34.5v373l-203 -479h-45l-203 485v-321q0 -33 2 -52.5t10.5 -29.5t24.5 -14.5t45 -6.5v-63q-39 0 -65.5 1t-51 1t-53.5 -1 t-72 -1z" />
<glyph unicode="&#x25fc;" horiz-adv-x="931" d="M0 0v932h932v-932h-932z" />
</font>
</defs>
</svg>
